  0
SECTION
  2
HEADER
  9
$ACADVER
  1
AC1009
  9
$DWGCODEPAGE
  3
ANSI_1252
  9
$INSBASE
 10
0.0
 20
0.0
 30
0.0
  9
$EXTMIN
 10
1e+20
 20
1e+20
 30
1e+20
  9
$EXTMAX
 10
-1e+20
 20
-1e+20
 30
-1e+20
  9
$LIMMIN
 10
0.0
 20
0.0
  9
$LIMMAX
 10
420.0
 20
297.0
  9
$ORTHOMODE
 70
0
  9
$REGENMODE
 70
1
  9
$FILLMODE
 70
1
  9
$DRAGMODE
 70
2
  9
$QTEXTMODE
 70
0
  9
$MIRRTEXT
 70
1
  9
$OSMODE
 70
37
  9
$LTSCALE
 40
1.0
  9
$ATTMODE
 70
1
  9
$TEXTSIZE
 40
2.5
  9
$TRACEWID
 40
1.0
  9
$TEXTSTYLE
  7
STANDARD
  9
$CLAYER
  8
0
  9
$CELTYPE
  6
BYLAYER
  9
$CECOLOR
 62
256
  9
$DIMSCALE
 40
1.0
  9
$DIMASZ
 40
2.5
  9
$DIMEXO
 40
0.625
  9
$DIMDLI
 40
3.75
  9
$DIMRND
 40
0.0
  9
$DIMDLE
 40
0.0
  9
$DIMEXE
 40
1.25
  9
$DIMTP
 40
0.0
  9
$DIMTM
 40
0.0
  9
$DIMTXT
 40
2.5
  9
$DIMCEN
 40
2.5
  9
$DIMTSZ
 40
0.0
  9
$DIMTOL
 70
0
  9
$DIMLIM
 70
0
  9
$DIMTIH
 70
0
  9
$DIMTOH
 70
0
  9
$DIMSE1
 70
0
  9
$DIMSE2
 70
0
  9
$DIMTAD
 70
1
  9
$DIMZIN
 70
8
  9
$DIMBLK
  1

  9
$DIMASO
 70
1
  9
$DIMSHO
 70
1
  9
$DIMPOST
  1

  9
$DIMAPOST
  1

  9
$DIMALT
 70
0
  9
$DIMALTD
 70
3
  9
$DIMALTF
 40
0.0393700787
  9
$DIMLFAC
 40
1.0
  9
$DIMTOFL
 70
1
  9
$DIMTVP
 40
0.0
  9
$DIMTIX
 70
0
  9
$DIMSOXD
 70
0
  9
$DIMSAH
 70
0
  9
$DIMBLK1
  1

  9
$DIMBLK2
  1

  9
$DIMSTYLE
  2
ISO-25
  9
$DIMCLRD
 70
0
  9
$DIMCLRE
 70
0
  9
$DIMCLRT
 70
0
  9
$DIMTFAC
 40
1.0
  9
$DIMGAP
 40
0.625
  9
$COORDS
 70
1
  9
$ATTDIA
 70
0
  9
$ATTREQ
 70
1
  9
$HANDLING
 70
1
  9
$LUNITS
 70
2
  9
$LUPREC
 70
4
  9
$SKETCHINC
 40
1.0
  9
$FILLETRAD
 40
0.0
  9
$AUNITS
 70
0
  9
$AUPREC
 70
0
  9
$MENU
  1
.
  9
$ELEVATION
 40
0.0
  9
$PELEVATION
 40
0.0
  9
$THICKNESS
 40
0.0
  9
$LIMCHECK
 70
0
  9
$CHAMFERA
 40
0.0
  9
$CHAMFERB
 40
0.0
  9
$SKPOLY
 70
0
  9
$TDCREATE
 40
2460157.4895833335
  9
$TDUPDATE
 40
2460157.490821759
  9
$TDINDWG
 40
1.16e-08
  9
$TDUSRTIMER
 40
1.16e-08
  9
$USRTIMER
 70
1
  9
$ANGBASE
 50
0.0
  9
$ANGDIR
 70
0
  9
$PDMODE
 70
0
  9
$PDSIZE
 40
0.0
  9
$PLINEWID
 40
0.0
  9
$SPLFRAME
 70
0
  9
$SPLINETYPE
 70
6
  9
$SPLINESEGS
 70
8
  9
$HANDSEED
  5
16D
  9
$SURFTAB1
 70
6
  9
$SURFTAB2
 70
6
  9
$SURFTYPE
 70
6
  9
$SURFU
 70
6
  9
$SURFV
 70
6
  9
$UCSNAME
  2

  9
$UCSORG
 10
0.0
 20
0.0
 30
0.0
  9
$UCSXDIR
 10
1.0
 20
0.0
 30
0.0
  9
$UCSYDIR
 10
0.0
 20
1.0
 30
0.0
  9
$PUCSNAME
  2

  9
$PUCSORG
 10
0.0
 20
0.0
 30
0.0
  9
$PUCSXDIR
 10
1.0
 20
0.0
 30
0.0
  9
$PUCSYDIR
 10
0.0
 20
1.0
 30
0.0
  9
$USERI1
 70
0
  9
$USERI2
 70
0
  9
$USERI3
 70
0
  9
$USERI4
 70
0
  9
$USERI5
 70
0
  9
$USERR1
 40
0.0
  9
$USERR2
 40
0.0
  9
$USERR3
 40
0.0
  9
$USERR4
 40
0.0
  9
$USERR5
 40
0.0
  9
$WORLDVIEW
 70
1
  9
$SHADEDGE
 70
3
  9
$SHADEDIF
 70
70
  9
$TILEMODE
 70
1
  9
$MAXACTVP
 70
64
  9
$PLIMCHECK
 70
0
  9
$PEXTMIN
 10
1e+20
 20
1e+20
 30
1e+20
  9
$PEXTMAX
 10
-1e+20
 20
-1e+20
 30
-1e+20
  9
$PLIMMIN
 10
0.0
 20
0.0
  9
$PLIMMAX
 10
420.0
 20
297.0
  9
$UNITMODE
 70
0
  9
$VISRETAIN
 70
1
  9
$PLINEGEN
 70
0
  9
$PSLTSCALE
 70
1
  0
ENDSEC
  0
SECTION
  2
TABLES
  0
TABLE
  2
VPORT
 70
1
  0
VPORT
  5
13C
  2
*ACTIVE
 70
0
 10
0.0
 20
0.0
 11
1.0
 21
1.0
 12
344.1869158879
 22
148.5
 13
0.0
 23
0.0
 14
10.0
 24
10.0
 15
10.0
 25
10.0
 16
0.0
 26
0.0
 36
1.0
 17
0.0
 27
0.0
 37
0.0
 40
297.0
 41
1.9729729729
 42
50.0
 43
0.0
 44
0.0
 50
0.0
 51
0.0
 71
0
 72
100
 73
1
 74
3
 75
0
 76
0
 77
0
 78
0
  0
ENDTAB
  0
TABLE
  2
LTYPE
 70
3
  0
LTYPE
  5
13D
  2
CONTINUOUS
 70
0
  3
Solid line
 72
65
 73
0
 40
0.0
  0
LTYPE
  5
166
  2
ByBlock
 70
0
  3

 72
65
 73
0
 40
0.0
  0
LTYPE
  5
167
  2
ByLayer
 70
0
  3

 72
65
 73
0
 40
0.0
  0
ENDTAB
  0
TABLE
  2
LAYER
 70
3
  0
LAYER
  5
13E
  2
0
 70
0
 62
7
  6
CONTINUOUS
  0
LAYER
  5
13F
  2
ALAPÉRTELMEZETT
 70
0
 62
7
  6
CONTINUOUS
  0
LAYER
  5
168
  2
Defpoints
 70
0
 62
7
  6
Continuous
  0
ENDTAB
  0
TABLE
  2
STYLE
 70
1
  0
STYLE
  5
140
  2
STANDARD
 70
0
 40
0.0
 41
1.0
 50
0.0
 71
0
 42
2.5
  3
txt
  4

  0
ENDTAB
  0
TABLE
  2
VIEW
 70
0
  0
ENDTAB
  0
TABLE
  2
UCS
 70
0
  0
ENDTAB
  0
TABLE
  2
APPID
 70
3
  0
APPID
  5
141
  2
ACAD
 70
0
  0
APPID
  5
16B
  2
HATCHBACKGROUNDCOLOR
 70
0
  0
APPID
  5
16C
  2
EZDXF
 70
0
  0
ENDTAB
  0
TABLE
  2
DIMSTYLE
 70
2
  0
DIMSTYLE
105
142
  2
ISO-25
 70
0
  3

  4

  5

  6

  7

 40
1.0
 41
2.5
 42
0.625
 43
3.75
 44
1.25
 45
0.0
 46
0.0
 47
0.0
 48
0.0
140
2.5
141
2.5
142
0.0
143
0.0393700787
144
1.0
145
0.0
146
1.0
147
0.625
 71
0
 72
0
 73
0
 74
0
 75
0
 76
0
 77
1
 78
8
170
0
171
3
172
1
173
0
174
0
175
0
176
0
177
0
178
0
  0
DIMSTYLE
105
169
  2
Standard
 70
0
  3

  4

  5

  6

  7

 40
1.0
 41
2.5
 42
0.625
 43
3.75
 44
1.25
 45
0.0
 46
0.0
 47
0.0
 48
0.0
140
2.5
141
2.5
142
0.0
143
0.03937007874
144
1.0
145
0.0
146
1.0
147
0.625
 71
0
 72
0
 73
0
 74
0
 75
0
 76
0
 77
1
 78
8
170
0
171
3
172
1
173
0
174
0
175
0
176
0
177
0
178
0
  0
ENDTAB
  0
ENDSEC
  0
SECTION
  2
BLOCKS
  0
BLOCK
  5
145
  8
0
  2
$Model_Space
 70
0
 10
0.0
 20
0.0
 30
0.0
  3
$Model_Space
  1

1001
EZDXF
1000
WRITTEN_BY_EZDXF
1000
1.0.3 @ 2023-07-31T09:46:47.324567+00:00
  0
ENDBLK
  5
21
  8
0
  0
BLOCK
  5
146
 67
1
  8
0
  2
$Paper_Space
 70
0
 10
0.0
 20
0.0
 30
0.0
  3
$Paper_Space
  1

  0
ENDBLK
  5
1D
 67
1
  8
0
  0
ENDSEC
  0
SECTION
  2
ENTITIES
  0
LINE
  5
5F
  8
ALAPÉRTELMEZETT
  6
CONTINUOUS
 62
7
 10
71.697841993
 20
344.0268243102
 30
0.0
 11
235.9634040553
 21
344.0268243102
 31
0.0
  0
LINE
  5
60
  8
ALAPÉRTELMEZETT
  6
CONTINUOUS
 62
7
 10
236.4243365634
 20
343.4189463604
 30
0.0
 11
271.7176919075
 21
309.4938031762
 31
0.0
  0
POLYLINE
  5
61
  8
ALAPÉRTELMEZETT
  6
CONTINUOUS
 62
7
 66
1
 10
0.0
 20
0.0
 30
0.0
 70
0
  0
VERTEX
  5
70
  8
ALAPÉRTELMEZETT
  6
CONTINUOUS
 62
7
 10
271.5108483845
 20
309.3443789324
 30
0.0
 70
0
  0
VERTEX
  5
71
  8
ALAPÉRTELMEZETT
  6
CONTINUOUS
 62
7
 10
272.0593004898
 20
308.8549467546
 30
0.0
 70
0
  0
VERTEX
  5
72
  8
ALAPÉRTELMEZETT
  6
CONTINUOUS
 62
7
 10
272.5787996934
 20
308.2931370666
 30
0.0
 70
0
  0
VERTEX
  5
73
  8
ALAPÉRTELMEZETT
  6
CONTINUOUS
 62
7
 10
272.9973109212
 20
307.6629300234
 30
0.0
 70
0
  0
VERTEX
  5
74
  8
ALAPÉRTELMEZETT
  6
CONTINUOUS
 62
7
 10
273.2368679238
 20
306.9749098601
 30
0.0
 70
0
  0
VERTEX
  5
75
  8
ALAPÉRTELMEZETT
  6
CONTINUOUS
 62
7
 10
273.2664488108
 20
306.2475316948
 30
0.0
 70
0
  0
VERTEX
  5
76
  8
ALAPÉRTELMEZETT
  6
CONTINUOUS
 62
7
 10
273.1072268398
 20
305.508001897
 30
0.0
 70
0
  0
VERTEX
  5
77
  8
ALAPÉRTELMEZETT
  6
CONTINUOUS
 62
7
 10
272.7831019805
 20
304.783984008
 30
0.0
 70
0
  0
VERTEX
  5
78
  8
ALAPÉRTELMEZETT
  6
CONTINUOUS
 62
7
 10
272.3179742027
 20
304.1031415692
 30
0.0
 70
0
  0
VERTEX
  5
79
  8
ALAPÉRTELMEZETT
  6
CONTINUOUS
 62
7
 10
271.7357434759
 20
303.4931381218
 30
0.0
 70
0
  0
VERTEX
  5
7A
  8
ALAPÉRTELMEZETT
  6
CONTINUOUS
 62
7
 10
271.0603051
 20
302.9815543905
 30
0.0
 70
0
  0
VERTEX
  5
7B
  8
ALAPÉRTELMEZETT
  6
CONTINUOUS
 62
7
 10
270.3150169784
 20
302.5864411678
 30
0.0
 70
0
  0
VERTEX
  5
7C
  8
ALAPÉRTELMEZETT
  6
CONTINUOUS
 62
7
 10
269.5222078781
 20
302.3075990073
 30
0.0
 70
0
  0
VERTEX
  5
7D
  8
ALAPÉRTELMEZETT
  6
CONTINUOUS
 62
7
 10
268.7040903321
 20
302.1427672329
 30
0.0
 70
0
  0
VERTEX
  5
7E
  8
ALAPÉRTELMEZETT
  6
CONTINUOUS
 62
7
 10
267.882876874
 20
302.0896851684
 30
0.0
 70
0
  0
VERTEX
  5
7F
  8
ALAPÉRTELMEZETT
  6
CONTINUOUS
 62
7
 10
267.0807800368
 20
302.1460921374
 30
0.0
 70
0
  0
VERTEX
  5
80
  8
ALAPÉRTELMEZETT
  6
CONTINUOUS
 62
7
 10
266.320012354
 20
302.3097274639
 30
0.0
 70
0
  0
VERTEX
  5
81
  8
ALAPÉRTELMEZETT
  6
CONTINUOUS
 62
7
 10
265.6227863588
 20
302.5783304715
 30
0.0
 70
0
  0
VERTEX
  5
82
  8
ALAPÉRTELMEZETT
  6
CONTINUOUS
 62
7
 10
265.0113145845
 20
302.9496404842
 30
0.0
 70
0
  0
VERTEX
  5
83
  8
ALAPÉRTELMEZETT
  6
CONTINUOUS
 62
7
 10
264.5066494504
 20
303.4210245521
 30
0.0
 70
0
  0
VERTEX
  5
84
  8
ALAPÉRTELMEZETT
  6
CONTINUOUS
 62
7
 10
264.1086672991
 20
303.9830544519
 30
0.0
 70
0
  0
VERTEX
  5
85
  8
ALAPÉRTELMEZETT
  6
CONTINUOUS
 62
7
 10
263.7987394747
 20
304.620363819
 30
0.0
 70
0
  0
VERTEX
  5
86
  8
ALAPÉRTELMEZETT
  6
CONTINUOUS
 62
7
 10
263.557614469
 20
305.3173864197
 30
0.0
 70
0
  0
VERTEX
  5
87
  8
ALAPÉRTELMEZETT
  6
CONTINUOUS
 62
7
 10
263.366040774
 20
306.0585560198
 30
0.0
 70
0
  0
VERTEX
  5
88
  8
ALAPÉRTELMEZETT
  6
CONTINUOUS
 62
7
 10
263.2047668816
 20
306.8283063856
 30
0.0
 70
0
  0
VERTEX
  5
89
  8
ALAPÉRTELMEZETT
  6
CONTINUOUS
 62
7
 10
263.0545412837
 20
307.6110712831
 30
0.0
 70
0
  0
VERTEX
  5
8A
  8
ALAPÉRTELMEZETT
  6
CONTINUOUS
 62
7
 10
262.8961124722
 20
308.3912844783
 30
0.0
 70
0
  0
VERTEX
  5
8B
  8
ALAPÉRTELMEZETT
  6
CONTINUOUS
 62
7
 10
262.7102289391
 20
309.1533797375
 30
0.0
 70
0
  0
VERTEX
  5
8C
  8
ALAPÉRTELMEZETT
  6
CONTINUOUS
 62
7
 10
262.4787796747
 20
309.88281393
 30
0.0
 70
0
  0
VERTEX
  5
8D
  8
ALAPÉRTELMEZETT
  6
CONTINUOUS
 62
7
 10
262.1951608751
 20
310.5753666601
 30
0.0
 70
0
  0
VERTEX
  5
8E
  8
ALAPÉRTELMEZETT
  6
CONTINUOUS
 62
7
 10
261.8594378527
 20
311.2328001759
 30
0.0
 70
0
  0
VERTEX
  5
8F
  8
ALAPÉRTELMEZETT
  6
CONTINUOUS
 62
7
 10
261.4717575974
 20
311.8569499956
 30
0.0
 70
0
  0
VERTEX
  5
90
  8
ALAPÉRTELMEZETT
  6
CONTINUOUS
 62
7
 10
261.0322670987
 20
312.4496516374
 30
0.0
 70
0
  0
VERTEX
  5
91
  8
ALAPÉRTELMEZETT
  6
CONTINUOUS
 62
7
 10
260.5411133466
 20
313.0127406195
 30
0.0
 70
0
  0
VERTEX
  5
92
  8
ALAPÉRTELMEZETT
  6
CONTINUOUS
 62
7
 10
259.9984433305
 20
313.5480524601
 30
0.0
 70
0
  0
VERTEX
  5
93
  8
ALAPÉRTELMEZETT
  6
CONTINUOUS
 62
7
 10
259.4044040404
 20
314.0574226773
 30
0.0
 70
0
  0
VERTEX
  5
94
  8
ALAPÉRTELMEZETT
  6
CONTINUOUS
 62
7
 10
258.7591424658
 20
314.5426867894
 30
0.0
 70
0
  0
VERTEX
  5
95
  8
ALAPÉRTELMEZETT
  6
CONTINUOUS
 62
7
 10
258.0640495215
 20
315.0047003236
 30
0.0
 70
0
  0
VERTEX
  5
96
  8
ALAPÉRTELMEZETT
  6
CONTINUOUS
 62
7
 10
257.3261078566
 20
315.439913517
 30
0.0
 70
0
  0
VERTEX
  5
97
  8
ALAPÉRTELMEZETT
  6
CONTINUOUS
 62
7
 10
256.5538706656
 20
315.8435392976
 30
0.0
 70
0
  0
VERTEX
  5
98
  8
ALAPÉRTELMEZETT
  6
CONTINUOUS
 62
7
 10
255.7558912249
 20
316.2107905285
 30
0.0
 70
0
  0
VERTEX
  5
99
  8
ALAPÉRTELMEZETT
  6
CONTINUOUS
 62
7
 10
254.940722811
 20
316.5368800729
 30
0.0
 70
0
  0
VERTEX
  5
9A
  8
ALAPÉRTELMEZETT
  6
CONTINUOUS
 62
7
 10
254.1169187005
 20
316.8170207936
 30
0.0
 70
0
  0
VERTEX
  5
9B
  8
ALAPÉRTELMEZETT
  6
CONTINUOUS
 62
7
 10
253.2930321698
 20
317.0464255539
 30
0.0
 70
0
  0
VERTEX
  5
9C
  8
ALAPÉRTELMEZETT
  6
CONTINUOUS
 62
7
 10
252.4776164957
 20
317.2203072169
 30
0.0
 70
0
  0
VERTEX
  5
9D
  8
ALAPÉRTELMEZETT
  6
CONTINUOUS
 62
7
 10
251.6792249545
 20
317.3338786456
 30
0.0
 70
0
  0
VERTEX
  5
9E
  8
ALAPÉRTELMEZETT
  6
CONTINUOUS
 62
7
 10
250.9064108228
 20
317.382352703
 30
0.0
 70
0
  0
VERTEX
  5
9F
  8
ALAPÉRTELMEZETT
  6
CONTINUOUS
 62
7
 10
250.1677273772
 20
317.3609422524
 30
0.0
 70
0
  0
VERTEX
  5
A0
  8
ALAPÉRTELMEZETT
  6
CONTINUOUS
 62
7
 10
249.4717278942
 20
317.2648601568
 30
0.0
 70
0
  0
VERTEX
  5
A1
  8
ALAPÉRTELMEZETT
  6
CONTINUOUS
 62
7
 10
248.8269656503
 20
317.0893192792
 30
0.0
 70
0
  0
VERTEX
  5
A2
  8
ALAPÉRTELMEZETT
  6
CONTINUOUS
 62
7
 10
248.241993922
 20
316.8295324827
 30
0.0
 70
0
  0
VERTEX
  5
A3
  8
ALAPÉRTELMEZETT
  6
CONTINUOUS
 62
7
 10
247.7253659859
 20
316.4807126305
 30
0.0
 70
0
  0
VERTEX
  5
A4
  8
ALAPÉRTELMEZETT
  6
CONTINUOUS
 62
7
 10
247.2840655872
 20
316.039541285
 30
0.0
 70
0
  0
VERTEX
  5
A5
  8
ALAPÉRTELMEZETT
  6
CONTINUOUS
 62
7
 10
246.9150571565
 20
315.5120756498
 30
0.0
 70
0
  0
VERTEX
  5
A6
  8
ALAPÉRTELMEZETT
  6
CONTINUOUS
 62
7
 10
246.6113660225
 20
314.9080589692
 30
0.0
 70
0
  0
VERTEX
  5
A7
  8
ALAPÉRTELMEZETT
  6
CONTINUOUS
 62
7
 10
246.3660081081
 20
314.2372432894
 30
0.0
 70
0
  0
VERTEX
  5
A8
  8
ALAPÉRTELMEZETT
  6
CONTINUOUS
 62
7
 10
246.171999336
 20
313.5093806564
 30
0.0
 70
0
  0
VERTEX
  5
A9
  8
ALAPÉRTELMEZETT
  6
CONTINUOUS
 62
7
 10
246.0223556291
 20
312.7342231163
 30
0.0
 70
0
  0
VERTEX
  5
AA
  8
ALAPÉRTELMEZETT
  6
CONTINUOUS
 62
7
 10
245.9100929102
 20
311.9215227153
 30
0.0
 70
0
  0
VERTEX
  5
AB
  8
ALAPÉRTELMEZETT
  6
CONTINUOUS
 62
7
 10
245.828227102
 20
311.0810314994
 30
0.0
 70
0
  0
VERTEX
  5
AC
  8
ALAPÉRTELMEZETT
  6
CONTINUOUS
 62
7
 10
245.7697741274
 20
310.2225015147
 30
0.0
 70
0
  0
VERTEX
  5
AD
  8
ALAPÉRTELMEZETT
  6
CONTINUOUS
 62
7
 10
245.727749919
 20
309.3556848014
 30
0.0
 70
0
  0
VERTEX
  5
AE
  8
ALAPÉRTELMEZETT
  6
CONTINUOUS
 62
7
 10
245.6969667651
 20
308.4892583953
 30
0.0
 70
0
  0
VERTEX
  5
AF
  8
ALAPÉRTELMEZETT
  6
CONTINUOUS
 62
7
 10
245.6790448805
 20
307.6278252213
 30
0.0
 70
0
  0
VERTEX
  5
B0
  8
ALAPÉRTELMEZETT
  6
CONTINUOUS
 62
7
 10
245.6772169967
 20
306.7750232155
 30
0.0
 70
0
  0
VERTEX
  5
B1
  8
ALAPÉRTELMEZETT
  6
CONTINUOUS
 62
7
 10
245.6947158453
 20
305.9344903144
 30
0.0
 70
0
  0
VERTEX
  5
B2
  8
ALAPÉRTELMEZETT
  6
CONTINUOUS
 62
7
 10
245.7347741578
 20
305.1098644543
 30
0.0
 70
0
  0
VERTEX
  5
B3
  8
ALAPÉRTELMEZETT
  6
CONTINUOUS
 62
7
 10
245.8006246655
 20
304.3047835713
 30
0.0
 70
0
  0
VERTEX
  5
B4
  8
ALAPÉRTELMEZETT
  6
CONTINUOUS
 62
7
 10
245.8955001
 20
303.522885602
 30
0.0
 70
0
  0
VERTEX
  5
B5
  8
ALAPÉRTELMEZETT
  6
CONTINUOUS
 62
7
 10
246.0226331929
 20
302.7678084824
 30
0.0
 70
0
  0
VERTEX
  5
B6
  8
ALAPÉRTELMEZETT
  6
CONTINUOUS
 62
7
 10
246.1852566755
 20
302.0431901491
 30
0.0
 70
0
  0
VERTEX
  5
B7
  8
ALAPÉRTELMEZETT
  6
CONTINUOUS
 62
7
 10
246.3866032793
 20
301.3526685383
 30
0.0
 70
0
  0
VERTEX
  5
B8
  8
ALAPÉRTELMEZETT
  6
CONTINUOUS
 62
7
 10
246.629905736
 20
300.6998815862
 30
0.0
 70
0
  0
VERTEX
  5
B9
  8
ALAPÉRTELMEZETT
  6
CONTINUOUS
 62
7
 10
246.9183967769
 20
300.0884672292
 30
0.0
 70
0
  0
VERTEX
  5
BA
  8
ALAPÉRTELMEZETT
  6
CONTINUOUS
 62
7
 10
247.2553091335
 20
299.5220634036
 30
0.0
 70
0
  0
VERTEX
  5
BB
  8
ALAPÉRTELMEZETT
  6
CONTINUOUS
 62
7
 10
247.6438755373
 20
299.0043080458
 30
0.0
 70
0
  0
VERTEX
  5
BC
  8
ALAPÉRTELMEZETT
  6
CONTINUOUS
 62
7
 10
248.0872665098
 20
298.5387761102
 30
0.0
 70
0
  0
VERTEX
  5
BD
  8
ALAPÉRTELMEZETT
  6
CONTINUOUS
 62
7
 10
248.5856884528
 20
298.1260416663
 30
0.0
 70
0
  0
VERTEX
  5
BE
  8
ALAPÉRTELMEZETT
  6
CONTINUOUS
 62
7
 10
249.1351479725
 20
297.7624268951
 30
0.0
 70
0
  0
VERTEX
  5
BF
  8
ALAPÉRTELMEZETT
  6
CONTINUOUS
 62
7
 10
249.7313328839
 20
297.4439312323
 30
0.0
 70
0
  0
VERTEX
  5
C0
  8
ALAPÉRTELMEZETT
  6
CONTINUOUS
 62
7
 10
250.3699310024
 20
297.1665541141
 30
0.0
 70
0
  0
VERTEX
  5
C1
  8
ALAPÉRTELMEZETT
  6
CONTINUOUS
 62
7
 10
251.0466301431
 20
296.9262949762
 30
0.0
 70
0
  0
VERTEX
  5
C2
  8
ALAPÉRTELMEZETT
  6
CONTINUOUS
 62
7
 10
251.7571181213
 20
296.7191532547
 30
0.0
 70
0
  0
VERTEX
  5
C3
  8
ALAPÉRTELMEZETT
  6
CONTINUOUS
 62
7
 10
252.4970827521
 20
296.5411283855
 30
0.0
 70
0
  0
VERTEX
  5
C4
  8
ALAPÉRTELMEZETT
  6
CONTINUOUS
 62
7
 10
253.2622118509
 20
296.3882198045
 30
0.0
 70
0
  0
VERTEX
  5
C5
  8
ALAPÉRTELMEZETT
  6
CONTINUOUS
 62
7
 10
254.0481932328
 20
296.2564269477
 30
0.0
 70
0
  0
VERTEX
  5
C6
  8
ALAPÉRTELMEZETT
  6
CONTINUOUS
 62
7
 10
254.850714713
 20
296.141749251
 30
0.0
 70
0
  0
VERTEX
  5
C7
  8
ALAPÉRTELMEZETT
  6
CONTINUOUS
 62
7
 10
255.6654641068
 20
296.0401861504
 30
0.0
 70
0
  0
VERTEX
  5
C8
  8
ALAPÉRTELMEZETT
  6
CONTINUOUS
 62
7
 10
256.4881292293
 20
295.9477370818
 30
0.0
 70
0
  0
VERTEX
  5
C9
  8
ALAPÉRTELMEZETT
  6
CONTINUOUS
 62
7
 10
257.3143978959
 20
295.8604014811
 30
0.0
 70
0
  0
VERTEX
  5
CA
  8
ALAPÉRTELMEZETT
  6
CONTINUOUS
 62
7
 10
258.1399579216
 20
295.7741787844
 30
0.0
 70
0
  0
VERTEX
  5
CB
  8
ALAPÉRTELMEZETT
  6
CONTINUOUS
 62
7
 10
258.9605248482
 20
295.6851370341
 30
0.0
 70
0
  0
VERTEX
  5
CC
  8
ALAPÉRTELMEZETT
  6
CONTINUOUS
 62
7
 10
259.7732062956
 20
295.5927888562
 30
0.0
 70
0
  0
VERTEX
  5
CD
  8
ALAPÉRTELMEZETT
  6
CONTINUOUS
 62
7
 10
260.5771244778
 20
295.501631823
 30
0.0
 70
0
  0
VERTEX
  5
CE
  8
ALAPÉRTELMEZETT
  6
CONTINUOUS
 62
7
 10
261.3715591947
 20
295.4165534412
 30
0.0
 70
0
  0
VERTEX
  5
CF
  8
ALAPÉRTELMEZETT
  6
CONTINUOUS
 62
7
 10
262.1557902466
 20
295.3424412171
 30
0.0
 70
0
  0
VERTEX
  5
D0
  8
ALAPÉRTELMEZETT
  6
CONTINUOUS
 62
7
 10
262.9290974335
 20
295.2841826573
 30
0.0
 70
0
  0
VERTEX
  5
D1
  8
ALAPÉRTELMEZETT
  6
CONTINUOUS
 62
7
 10
263.6907605555
 20
295.2466652683
 30
0.0
 70
0
  0
VERTEX
  5
D2
  8
ALAPÉRTELMEZETT
  6
CONTINUOUS
 62
7
 10
264.4400594128
 20
295.2347765567
 30
0.0
 70
0
  0
VERTEX
  5
D3
  8
ALAPÉRTELMEZETT
  6
CONTINUOUS
 62
7
 10
265.1762738054
 20
295.2534040289
 30
0.0
 70
0
  0
VERTEX
  5
D4
  8
ALAPÉRTELMEZETT
  6
CONTINUOUS
 62
7
 10
265.8986835335
 20
295.3074351915
 30
0.0
 70
0
  0
VERTEX
  5
D5
  8
ALAPÉRTELMEZETT
  6
CONTINUOUS
 62
7
 10
266.6065683972
 20
295.401757551
 30
0.0
 70
0
  0
VERTEX
  5
D6
  8
ALAPÉRTELMEZETT
  6
CONTINUOUS
 62
7
 10
267.2992081965
 20
295.541258614
 30
0.0
 70
0
  0
VERTEX
  5
D7
  8
ALAPÉRTELMEZETT
  6
CONTINUOUS
 62
7
 10
267.9758827316
 20
295.7308258868
 30
0.0
 70
0
  0
VERTEX
  5
D8
  8
ALAPÉRTELMEZETT
  6
CONTINUOUS
 62
7
 10
268.6358718026
 20
295.9753468762
 30
0.0
 70
0
  0
VERTEX
  5
D9
  8
ALAPÉRTELMEZETT
  6
CONTINUOUS
 62
7
 10
269.278476331
 20
296.279432794
 30
0.0
 70
0
  0
VERTEX
  5
DA
  8
ALAPÉRTELMEZETT
  6
CONTINUOUS
 62
7
 10
269.9034543434
 20
296.6417153506
 30
0.0
 70
0
  0
VERTEX
  5
DB
  8
ALAPÉRTELMEZETT
  6
CONTINUOUS
 62
7
 10
270.5110055797
 20
297.0550480951
 30
0.0
 70
0
  0
VERTEX
  5
DC
  8
ALAPÉRTELMEZETT
  6
CONTINUOUS
 62
7
 10
271.101347822
 20
297.5120485647
 30
0.0
 70
0
  0
VERTEX
  5
DD
  8
ALAPÉRTELMEZETT
  6
CONTINUOUS
 62
7
 10
271.6746988521
 20
298.0053342967
 30
0.0
 70
0
  0
VERTEX
  5
DE
  8
ALAPÉRTELMEZETT
  6
CONTINUOUS
 62
7
 10
272.2312764521
 20
298.5275228283
 30
0.0
 70
0
  0
VERTEX
  5
DF
  8
ALAPÉRTELMEZETT
  6
CONTINUOUS
 62
7
 10
272.771298404
 20
299.071231697
 30
0.0
 70
0
  0
VERTEX
  5
E0
  8
ALAPÉRTELMEZETT
  6
CONTINUOUS
 62
7
 10
273.2949824897
 20
299.6290784398
 30
0.0
 70
0
  0
VERTEX
  5
E1
  8
ALAPÉRTELMEZETT
  6
CONTINUOUS
 62
7
 10
273.8025464912
 20
300.1936805942
 30
0.0
 70
0
  0
VERTEX
  5
E2
  8
ALAPÉRTELMEZETT
  6
CONTINUOUS
 62
7
 10
274.2942081905
 20
300.7576556974
 30
0.0
 70
0
  0
VERTEX
  5
E3
  8
ALAPÉRTELMEZETT
  6
CONTINUOUS
 62
7
 10
274.7703443192
 20
301.3140367586
 30
0.0
 70
0
  0
VERTEX
  5
E4
  8
ALAPÉRTELMEZETT
  6
CONTINUOUS
 62
7
 10
275.234657348
 20
301.8645498003
 30
0.0
 70
0
  0
VERTEX
  5
E5
  8
ALAPÉRTELMEZETT
  6
CONTINUOUS
 62
7
 10
275.6940018197
 20
302.4191599181
 30
0.0
 70
0
  0
VERTEX
  5
E6
  8
ALAPÉRTELMEZETT
  6
CONTINUOUS
 62
7
 10
276.1553564622
 20
302.9881568094
 30
0.0
 70
0
  0
VERTEX
  5
E7
  8
ALAPÉRTELMEZETT
  6
CONTINUOUS
 62
7
 10
276.6257000033
 20
303.5818301717
 30
0.0
 70
0
  0
VERTEX
  5
E8
  8
ALAPÉRTELMEZETT
  6
CONTINUOUS
 62
7
 10
277.1120111709
 20
304.2104697024
 30
0.0
 70
0
  0
SEQEND
  5
13A
  8
ALAPÉRTELMEZETT
  6
CONTINUOUS
 62
7
  0
POLYLINE
  5
62
  8
ALAPÉRTELMEZETT
  6
CONTINUOUS
 62
7
 66
1
 10
0.0
 20
0.0
 30
0.0
 70
0
  0
VERTEX
  5
E9
  8
ALAPÉRTELMEZETT
  6
CONTINUOUS
 62
7
 10
277.5460857501
 20
304.1295186302
 30
0.0
 70
0
  0
VERTEX
  5
EA
  8
ALAPÉRTELMEZETT
  6
CONTINUOUS
 62
7
 10
279.9796462742
 20
306.2848922218
 30
0.0
 70
0
  0
VERTEX
  5
EB
  8
ALAPÉRTELMEZETT
  6
CONTINUOUS
 62
7
 10
282.653067759
 20
308.0692860219
 30
0.0
 70
0
  0
VERTEX
  5
EC
  8
ALAPÉRTELMEZETT
  6
CONTINUOUS
 62
7
 10
285.4224629465
 20
309.2720333604
 30
0.0
 70
0
  0
VERTEX
  5
ED
  8
ALAPÉRTELMEZETT
  6
CONTINUOUS
 62
7
 10
288.1439445785
 20
309.6824675672
 30
0.0
 70
0
  0
VERTEX
  5
EE
  8
ALAPÉRTELMEZETT
  6
CONTINUOUS
 62
7
 10
290.674517005
 20
309.0952670637
 30
0.0
 70
0
  0
VERTEX
  5
EF
  8
ALAPÉRTELMEZETT
  6
CONTINUOUS
 62
7
 10
292.9035986524
 20
307.4994290697
 30
0.0
 70
0
  0
VERTEX
  5
F0
  8
ALAPÉRTELMEZETT
  6
CONTINUOUS
 62
7
 10
294.7614591981
 20
305.1288495323
 30
0.0
 70
0
  0
VERTEX
  5
F1
  8
ALAPÉRTELMEZETT
  6
CONTINUOUS
 62
7
 10
296.1809757241
 20
302.2330554983
 30
0.0
 70
0
  0
VERTEX
  5
F2
  8
ALAPÉRTELMEZETT
  6
CONTINUOUS
 62
7
 10
297.095025312
 20
299.0615740147
 30
0.0
 70
0
  0
VERTEX
  5
F3
  8
ALAPÉRTELMEZETT
  6
CONTINUOUS
 62
7
 10
297.438439055
 20
295.8606809472
 30
0.0
 70
0
  0
VERTEX
  5
F4
  8
ALAPÉRTELMEZETT
  6
CONTINUOUS
 62
7
 10
297.20507389
 20
292.7784420164
 30
0.0
 70
0
  0
VERTEX
  5
F5
  8
ALAPÉRTELMEZETT
  6
CONTINUOUS
 62
7
 10
296.4568923966
 20
289.8496053758
 30
0.0
 70
0
  0
VERTEX
  5
F6
  8
ALAPÉRTELMEZETT
  6
CONTINUOUS
 62
7
 10
295.2596387882
 20
287.1026271083
 30
0.0
 70
0
  0
VERTEX
  5
F7
  8
ALAPÉRTELMEZETT
  6
CONTINUOUS
 62
7
 10
293.6790572778
 20
284.5659632967
 30
0.0
 70
0
  0
VERTEX
  5
F8
  8
ALAPÉRTELMEZETT
  6
CONTINUOUS
 62
7
 10
291.7808920788
 20
282.2680700239
 30
0.0
 70
0
  0
VERTEX
  5
F9
  8
ALAPÉRTELMEZETT
  6
CONTINUOUS
 62
7
 10
289.6308873801
 20
280.2374033428
 30
0.0
 70
0
  0
VERTEX
  5
FA
  8
ALAPÉRTELMEZETT
  6
CONTINUOUS
 62
7
 10
287.2875407336
 20
278.4934776138
 30
0.0
 70
0
  0
VERTEX
  5
FB
  8
ALAPÉRTELMEZETT
  6
CONTINUOUS
 62
7
 10
284.7816526675
 20
277.021631584
 30
0.0
 70
0
  0
VERTEX
  5
FC
  8
ALAPÉRTELMEZETT
  6
CONTINUOUS
 62
7
 10
282.1374076162
 20
275.7990403414
 30
0.0
 70
0
  0
VERTEX
  5
FD
  8
ALAPÉRTELMEZETT
  6
CONTINUOUS
 62
7
 10
279.3789900144
 20
274.802878974
 30
0.0
 70
0
  0
VERTEX
  5
FE
  8
ALAPÉRTELMEZETT
  6
CONTINUOUS
 62
7
 10
276.5305842964
 20
274.0103225697
 30
0.0
 70
0
  0
VERTEX
  5
FF
  8
ALAPÉRTELMEZETT
  6
CONTINUOUS
 62
7
 10
273.6163748968
 20
273.3985462166
 30
0.0
 70
0
  0
VERTEX
  5
100
  8
ALAPÉRTELMEZETT
  6
CONTINUOUS
 62
7
 10
270.6605462502
 20
272.9447250026
 30
0.0
 70
0
  0
VERTEX
  5
101
  8
ALAPÉRTELMEZETT
  6
CONTINUOUS
 62
7
 10
267.6868703909
 20
272.6265344563
 30
0.0
 70
0
  0
VERTEX
  5
102
  8
ALAPÉRTELMEZETT
  6
CONTINUOUS
 62
7
 10
264.7102011404
 20
272.4324722138
 30
0.0
 70
0
  0
VERTEX
  5
103
  8
ALAPÉRTELMEZETT
  6
CONTINUOUS
 62
7
 10
261.7367781685
 20
272.361489044
 30
0.0
 70
0
  0
VERTEX
  5
104
  8
ALAPÉRTELMEZETT
  6
CONTINUOUS
 62
7
 10
258.7724895808
 20
272.4129623334
 30
0.0
 70
0
  0
VERTEX
  5
105
  8
ALAPÉRTELMEZETT
  6
CONTINUOUS
 62
7
 10
255.8232234827
 20
272.5862694688
 30
0.0
 70
0
  0
VERTEX
  5
106
  8
ALAPÉRTELMEZETT
  6
CONTINUOUS
 62
7
 10
252.8948679797
 20
272.880787837
 30
0.0
 70
0
  0
VERTEX
  5
107
  8
ALAPÉRTELMEZETT
  6
CONTINUOUS
 62
7
 10
249.9933111772
 20
273.2958948247
 30
0.0
 70
0
  0
VERTEX
  5
108
  8
ALAPÉRTELMEZETT
  6
CONTINUOUS
 62
7
 10
247.1244411808
 20
273.8309678186
 30
0.0
 70
0
  0
VERTEX
  5
109
  8
ALAPÉRTELMEZETT
  6
CONTINUOUS
 62
7
 10
244.2941460958
 20
274.4853842054
 30
0.0
 70
0
  0
VERTEX
  5
10A
  8
ALAPÉRTELMEZETT
  6
CONTINUOUS
 62
7
 10
241.5083140279
 20
275.2585213718
 30
0.0
 70
0
  0
VERTEX
  5
10B
  8
ALAPÉRTELMEZETT
  6
CONTINUOUS
 62
7
 10
238.7728330823
 20
276.1497567046
 30
0.0
 70
0
  0
VERTEX
  5
10C
  8
ALAPÉRTELMEZETT
  6
CONTINUOUS
 62
7
 10
236.0935866124
 20
277.158463687
 30
0.0
 70
0
  0
VERTEX
  5
10D
  8
ALAPÉRTELMEZETT
  6
CONTINUOUS
 62
7
 10
233.4729878937
 20
278.2811654748
 30
0.0
 70
0
  0
VERTEX
  5
10E
  8
ALAPÉRTELMEZETT
  6
CONTINUOUS
 62
7
 10
230.9038539797
 20
279.5065028718
 30
0.0
 70
0
  0
VERTEX
  5
10F
  8
ALAPÉRTELMEZETT
  6
CONTINUOUS
 62
7
 10
228.3773569526
 20
280.8217654996
 30
0.0
 70
0
  0
VERTEX
  5
110
  8
ALAPÉRTELMEZETT
  6
CONTINUOUS
 62
7
 10
225.8846688949
 20
282.2142429799
 30
0.0
 70
0
  0
VERTEX
  5
111
  8
ALAPÉRTELMEZETT
  6
CONTINUOUS
 62
7
 10
223.4169618889
 20
283.6712249346
 30
0.0
 70
0
  0
VERTEX
  5
112
  8
ALAPÉRTELMEZETT
  6
CONTINUOUS
 62
7
 10
220.9654080169
 20
285.1800009854
 30
0.0
 70
0
  0
VERTEX
  5
113
  8
ALAPÉRTELMEZETT
  6
CONTINUOUS
 62
7
 10
218.5211793613
 20
286.727860754
 30
0.0
 70
0
  0
VERTEX
  5
114
  8
ALAPÉRTELMEZETT
  6
CONTINUOUS
 62
7
 10
216.0754480044
 20
288.3020938623
 30
0.0
 70
0
  0
VERTEX
  5
115
  8
ALAPÉRTELMEZETT
  6
CONTINUOUS
 62
7
 10
213.6193860287
 20
289.8899899318
 30
0.0
 70
0
  0
VERTEX
  5
116
  8
ALAPÉRTELMEZETT
  6
CONTINUOUS
 62
7
 10
211.1441655163
 20
291.4788385845
 30
0.0
 70
0
  0
VERTEX
  5
117
  8
ALAPÉRTELMEZETT
  6
CONTINUOUS
 62
7
 10
208.6409585498
 20
293.0559294421
 30
0.0
 70
0
  0
VERTEX
  5
118
  8
ALAPÉRTELMEZETT
  6
CONTINUOUS
 62
7
 10
206.1009372115
 20
294.6085521263
 30
0.0
 70
0
  0
VERTEX
  5
119
  8
ALAPÉRTELMEZETT
  6
CONTINUOUS
 62
7
 10
203.5152735836
 20
296.1239962588
 30
0.0
 70
0
  0
VERTEX
  5
11A
  8
ALAPÉRTELMEZETT
  6
CONTINUOUS
 62
7
 10
200.8754471608
 20
297.5896701366
 30
0.0
 70
0
  0
VERTEX
  5
11B
  8
ALAPÉRTELMEZETT
  6
CONTINUOUS
 62
7
 10
198.1801457613
 20
298.995764798
 30
0.0
 70
0
  0
VERTEX
  5
11C
  8
ALAPÉRTELMEZETT
  6
CONTINUOUS
 62
7
 10
195.4353429481
 20
300.3352839109
 30
0.0
 70
0
  0
VERTEX
  5
11D
  8
ALAPÉRTELMEZETT
  6
CONTINUOUS
 62
7
 10
192.6473351812
 20
301.6013557962
 30
0.0
 70
0
  0
VERTEX
  5
11E
  8
ALAPÉRTELMEZETT
  6
CONTINUOUS
 62
7
 10
189.8224189209
 20
302.7871087749
 30
0.0
 70
0
  0
VERTEX
  5
11F
  8
ALAPÉRTELMEZETT
  6
CONTINUOUS
 62
7
 10
186.9668906272
 20
303.8856711677
 30
0.0
 70
0
  0
VERTEX
  5
120
  8
ALAPÉRTELMEZETT
  6
CONTINUOUS
 62
7
 10
184.0870467601
 20
304.8901712956
 30
0.0
 70
0
  0
VERTEX
  5
121
  8
ALAPÉRTELMEZETT
  6
CONTINUOUS
 62
7
 10
181.1891837799
 20
305.7937374795
 30
0.0
 70
0
  0
VERTEX
  5
122
  8
ALAPÉRTELMEZETT
  6
CONTINUOUS
 62
7
 10
178.2795981464
 20
306.5894980404
 30
0.0
 70
0
  0
VERTEX
  5
123
  8
ALAPÉRTELMEZETT
  6
CONTINUOUS
 62
7
 10
175.36458632
 20
307.270581299
 30
0.0
 70
0
  0
VERTEX
  5
124
  8
ALAPÉRTELMEZETT
  6
CONTINUOUS
 62
7
 10
172.4504447605
 20
307.8301155763
 30
0.0
 70
0
  0
VERTEX
  5
125
  8
ALAPÉRTELMEZETT
  6
CONTINUOUS
 62
7
 10
169.5434699282
 20
308.2612291932
 30
0.0
 70
0
  0
VERTEX
  5
126
  8
ALAPÉRTELMEZETT
  6
CONTINUOUS
 62
7
 10
166.6499582831
 20
308.5570504705
 30
0.0
 70
0
  0
VERTEX
  5
127
  8
ALAPÉRTELMEZETT
  6
CONTINUOUS
 62
7
 10
163.7762062854
 20
308.7107077293
 30
0.0
 70
0
  0
VERTEX
  5
128
  8
ALAPÉRTELMEZETT
  6
CONTINUOUS
 62
7
 10
160.928510395
 20
308.7153292903
 30
0.0
 70
0
  0
VERTEX
  5
129
  8
ALAPÉRTELMEZETT
  6
CONTINUOUS
 62
7
 10
158.1131670721
 20
308.5640434745
 30
0.0
 70
0
  0
VERTEX
  5
12A
  8
ALAPÉRTELMEZETT
  6
CONTINUOUS
 62
7
 10
155.3364727768
 20
308.2499786028
 30
0.0
 70
0
  0
VERTEX
  5
12B
  8
ALAPÉRTELMEZETT
  6
CONTINUOUS
 62
7
 10
152.6047234294
 20
307.7662638312
 30
0.0
 70
0
  0
VERTEX
  5
12C
  8
ALAPÉRTELMEZETT
  6
CONTINUOUS
 62
7
 10
149.9220137097
 20
307.1094344446
 30
0.0
 70
0
  0
VERTEX
  5
12D
  8
ALAPÉRTELMEZETT
  6
CONTINUOUS
 62
7
 10
147.2852246661
 20
306.2871878685
 30
0.0
 70
0
  0
VERTEX
  5
12E
  8
ALAPÉRTELMEZETT
  6
CONTINUOUS
 62
7
 10
144.6897619592
 20
305.3095044956
 30
0.0
 70
0
  0
VERTEX
  5
12F
  8
ALAPÉRTELMEZETT
  6
CONTINUOUS
 62
7
 10
142.1310312495
 20
304.186364719
 30
0.0
 70
0
  0
VERTEX
  5
130
  8
ALAPÉRTELMEZETT
  6
CONTINUOUS
 62
7
 10
139.6044381978
 20
302.9277489316
 30
0.0
 70
0
  0
VERTEX
  5
131
  8
ALAPÉRTELMEZETT
  6
CONTINUOUS
 62
7
 10
137.1053884646
 20
301.5436375263
 30
0.0
 70
0
  0
VERTEX
  5
132
  8
ALAPÉRTELMEZETT
  6
CONTINUOUS
 62
7
 10
134.6292877106
 20
300.0440108959
 30
0.0
 70
0
  0
VERTEX
  5
133
  8
ALAPÉRTELMEZETT
  6
CONTINUOUS
 62
7
 10
132.1715415963
 20
298.4388494333
 30
0.0
 70
0
  0
VERTEX
  5
134
  8
ALAPÉRTELMEZETT
  6
CONTINUOUS
 62
7
 10
129.7275557826
 20
296.7381335316
 30
0.0
 70
0
  0
VERTEX
  5
135
  8
ALAPÉRTELMEZETT
  6
CONTINUOUS
 62
7
 10
127.2927359298
 20
294.9518435835
 30
0.0
 70
0
  0
VERTEX
  5
136
  8
ALAPÉRTELMEZETT
  6
CONTINUOUS
 62
7
 10
124.8624876988
 20
293.089959982
 30
0.0
 70
0
  0
VERTEX
  5
137
  8
ALAPÉRTELMEZETT
  6
CONTINUOUS
 62
7
 10
122.43221675
 20
291.16246312
 30
0.0
 70
0
  0
VERTEX
  5
138
  8
ALAPÉRTELMEZETT
  6
CONTINUOUS
 62
7
 10
119.9973287442
 20
289.1793333903
 30
0.0
 70
0
  0
VERTEX
  5
139
  8
ALAPÉRTELMEZETT
  6
CONTINUOUS
 62
7
 10
117.5532293419
 20
287.150551186
 30
0.0
 70
0
  0
SEQEND
  5
13B
  8
ALAPÉRTELMEZETT
  6
CONTINUOUS
 62
7
  0
ARC
  5
63
  8
ALAPÉRTELMEZETT
  6
CONTINUOUS
 62
7
 10
94.9260895614
 20
337.9967096996
 30
0.0
 40
57.17770099621139
 50
228.8603616945
 51
293.5239093067
  0
ARC
  5
64
  8
ALAPÉRTELMEZETT
  6
CONTINUOUS
 62
7
 10
77.1892561168
 20
315.9608994802
 30
0.0
 40
27.71462308366322
 50
101.6063426593
 51
226.5692569329
  0
ENDSEC
  0
EOF
