  0
SECTION
  2
HEADER
  9
$ACADVER
  1
AC1006
  9
$EXTMIN
 10
0.000000
 20
0.000000
 30
0.000000
  9
$EXTMAX
 10
1181.000000
 20
1181.000000
 30
0.000000
  0
ENDSEC
  0
SECTION
  2
ENTITIES
  0
POLYLINE
  8
0
 66
1
 70
1
  0
VERTEX
  8
0
 10
622.449604
 20
1153.538735
 42
0.012975
  0
VERTEX
  8
0
 10
615.245809
 20
1152.036045
 42
0.016655
  0
VERTEX
  8
0
 10
608.712374
 20
1150.263663
 42
0.017291
  0
VERTEX
  8
0
 10
602.518698
 20
1148.122857
 42
0.016128
  0
VERTEX
  8
0
 10
596.339898
 20
1145.513253
 42
0.062708
  0
VERTEX
  8
0
 10
574.080921
 20
1131.646874
 42
0.061565
  0
VERTEX
  8
0
 10
555.797666
 20
1112.618904
 42
0.061925
  0
VERTEX
  8
0
 10
542.783295
 20
1089.824099
 42
0.064868
  0
VERTEX
  8
0
 10
536.002443
 20
1064.889812
 42
-0.009746
  0
VERTEX
  8
0
 10
534.841461
 20
1057.482223
 42
-0.053442
  0
VERTEX
  8
0
 10
533.717372
 20
1053.598520
 42
-0.134455
  0
VERTEX
  8
0
 10
532.324531
 20
1051.788327
 42
-0.227183
  0
VERTEX
  8
0
 10
530.486440
 20
1051.414047
 42
0.025337
  0
VERTEX
  8
0
 10
525.414959
 20
1052.416985
 42
0.011596
  0
VERTEX
  8
0
 10
518.716739
 20
1053.234071
 42
0.011234
  0
VERTEX
  8
0
 10
511.428064
 20
1053.787085
 42
0.012824
  0
VERTEX
  8
0
 10
504.437091
 20
1053.980191
 42
-0.005204
  0
VERTEX
  8
0
 10
498.126170
 20
1054.058307
 42
-0.048060
  0
VERTEX
  8
0
 10
495.414588
 20
1054.382057
 42
-0.097175
  0
VERTEX
  8
0
 10
493.609789
 20
1055.163522
 42
-0.051468
  0
VERTEX
  8
0
 10
491.746042
 20
1056.750000
 42
-0.054046
  0
VERTEX
  8
0
 10
489.039109
 20
1060.275859
 42
-0.042723
  0
VERTEX
  8
0
 10
486.897249
 20
1064.584013
 42
-0.042384
  0
VERTEX
  8
0
 10
485.502908
 20
1069.235046
 42
-0.050641
  0
VERTEX
  8
0
 10
485.021962
 20
1073.783244
 42
-0.059415
  0
VERTEX
  8
0
 10
485.553876
 20
1078.407124
 42
-0.043689
  0
VERTEX
  8
0
 10
487.180705
 20
1083.307291
 42
-0.036832
  0
VERTEX
  8
0
 10
489.956690
 20
1088.620011
 42
-0.022106
  0
VERTEX
  8
0
 10
493.973652
 20
1094.500000
 42
0.025992
  0
VERTEX
  8
0
 10
496.843217
 20
1098.771302
 42
0.048753
  0
VERTEX
  8
0
 10
498.621629
 20
1102.527763
 42
0.044078
  0
VERTEX
  8
0
 10
499.743894
 20
1106.804297
 42
0.017581
  0
VERTEX
  8
0
 10
500.550550
 20
1112.816226
 42
0.059442
  0
VERTEX
  8
0
 10
500.370935
 20
1121.566557
 42
0.075697
  0
VERTEX
  8
0
 10
498.062345
 20
1129.292237
 42
0.068995
  0
VERTEX
  8
0
 10
493.346429
 20
1136.502027
 42
0.040210
  0
VERTEX
  8
0
 10
485.939432
 20
1143.733340
 42
0.016860
  0
VERTEX
  8
0
 10
482.277005
 20
1146.571677
 42
0.082110
  0
VERTEX
  8
0
 10
479.934786
 20
1147.737184
 42
0.199101
  0
VERTEX
  8
0
 10
478.385360
 20
1147.589259
 42
0.180974
  0
VERTEX
  8
0
 10
477.315918
 20
1146.380885
 42
0.220620
  0
VERTEX
  8
0
 10
477.389526
 20
1145.298073
 42
0.043952
  0
VERTEX
  8
0
 10
478.496714
 20
1143.644473
 42
0.029948
  0
VERTEX
  8
0
 10
480.512335
 20
1141.426906
 42
0.009587
  0
VERTEX
  8
0
 10
483.760011
 20
1138.376930
 42
-0.026389
  0
VERTEX
  8
0
 10
489.389753
 20
1132.722247
 42
-0.064396
  0
VERTEX
  8
0
 10
492.711349
 20
1127.885866
 42
-0.073991
  0
VERTEX
  8
0
 10
494.430388
 20
1122.792172
 42
-0.044673
  0
VERTEX
  8
0
 10
494.994423
 20
1116.434276
 42
-0.024566
  0
VERTEX
  8
0
 10
494.683465
 20
1110.211218
 42
-0.048828
  0
VERTEX
  8
0
 10
493.719972
 20
1105.374466
 42
-0.053112
  0
VERTEX
  8
0
 10
491.904174
 20
1101.083663
 42
-0.034949
  0
VERTEX
  8
0
 10
488.979849
 20
1096.584204
 42
0.028975
  0
VERTEX
  8
0
 10
485.502948
 20
1091.371758
 42
0.020682
  0
VERTEX
  8
0
 10
482.207521
 20
1085.178073
 42
0.018925
  0
VERTEX
  8
0
 10
479.664170
 20
1079.322534
 42
0.093175
  0
VERTEX
  8
0
 10
479.000789
 20
1075.799221
 42
0.043511
  0
VERTEX
  8
0
 10
479.374131
 20
1071.502674
 42
0.029501
  0
VERTEX
  8
0
 10
480.507329
 20
1066.719583
 42
0.028787
  0
VERTEX
  8
0
 10
482.246130
 20
1061.943813
 42
0.033834
  0
VERTEX
  8
0
 10
484.445463
 20
1057.660584
 42
0.000000
  0
VERTEX
  8
0
 10
487.760881
 20
1052.154788
 42
0.000000
  0
VERTEX
  8
0
 10
483.130440
 20
1051.545853
 42
-0.027629
  0
VERTEX
  8
0
 10
481.101604
 20
1051.392360
 42
-0.019934
  0
VERTEX
  8
0
 10
478.832067
 20
1051.436838
 42
-0.020227
  0
VERTEX
  8
0
 10
476.671453
 20
1051.653416
 42
-0.040601
  0
VERTEX
  8
0
 10
475.000000
 20
1052.029838
 42
0.041927
  0
VERTEX
  8
0
 10
472.937054
 20
1052.488693
 42
0.007184
  0
VERTEX
  8
0
 10
468.947813
 20
1052.972513
 42
0.007786
  0
VERTEX
  8
0
 10
464.234679
 20
1053.401424
 42
0.006879
  0
VERTEX
  8
0
 10
459.311704
 20
1053.704202
 42
0.000000
  0
VERTEX
  8
0
 10
447.123407
 20
1054.285644
 42
0.000000
  0
VERTEX
  8
0
 10
444.902261
 20
1059.392822
 42
-0.030368
  0
VERTEX
  8
0
 10
443.943025
 20
1062.024625
 42
-0.020037
  0
VERTEX
  8
0
 10
443.150027
 20
1065.146819
 42
-0.018928
  0
VERTEX
  8
0
 10
442.562814
 20
1068.551203
 42
-0.018111
  0
VERTEX
  8
0
 10
442.224186
 20
1072.040745
 42
-0.014793
  0
VERTEX
  8
0
 10
442.076489
 20
1076.813384
 42
-0.059446
  0
VERTEX
  8
0
 10
442.417758
 20
1079.706905
 42
-0.050192
  0
VERTEX
  8
0
 10
443.453052
 20
1082.666996
 42
-0.008551
  0
VERTEX
  8
0
 10
446.074471
 20
1088.040745
 42
0.011303
  0
VERTEX
  8
0
 10
448.627423
 20
1093.348055
 42
0.044684
  0
VERTEX
  8
0
 10
449.822268
 20
1096.764485
 42
0.042183
  0
VERTEX
  8
0
 10
450.424702
 20
1100.431904
 42
0.009328
  0
VERTEX
  8
0
 10
450.805930
 20
1106.795073
 42
0.006996
  0
VERTEX
  8
0
 10
450.981680
 20
1113.256218
 42
0.043750
  0
VERTEX
  8
0
 10
450.736678
 20
1116.550281
 42
0.057180
  0
VERTEX
  8
0
 10
449.937611
 20
1119.372420
 42
0.016829
  0
VERTEX
  8
0
 10
448.084514
 20
1123.479893
 42
0.062663
  0
VERTEX
  8
0
 10
443.355099
 20
1130.657286
 42
0.053929
  0
VERTEX
  8
0
 10
436.771633
 20
1136.855323
 42
0.049886
  0
VERTEX
  8
0
 10
428.495728
 20
1141.904397
 42
0.039882
  0
VERTEX
  8
0
 10
418.744885
 20
1145.668402
 42
0.009996
  0
VERTEX
  8
0
 10
415.850697
 20
1146.465284
 42
0.062002
  0
VERTEX
  8
0
 10
414.324827
 20
1146.656776
 42
0.116937
  0
VERTEX
  8
0
 10
413.258223
 20
1146.404991
 42
0.080363
  0
VERTEX
  8
0
 10
412.246325
 20
1145.674897
 42
0.129965
  0
VERTEX
  8
0
 10
411.408196
 20
1144.234277
 42
0.263949
  0
VERTEX
  8
0
 10
411.719265
 20
1143.004188
 42
0.105866
  0
VERTEX
  8
0
 10
413.441929
 20
1141.835655
 42
0.017185
  0
VERTEX
  8
0
 10
417.261762
 20
1140.438182
 42
-0.033618
  0
VERTEX
  8
0
 10
425.976997
 20
1136.921111
 42
-0.044394
  0
VERTEX
  8
0
 10
433.321174
 20
1132.523723
 42
-0.049174
  0
VERTEX
  8
0
 10
439.147129
 20
1127.346538
 42
-0.062442
  0
VERTEX
  8
0
 10
443.332522
 20
1121.500000
 42
-0.039428
  0
VERTEX
  8
0
 10
444.444849
 20
1118.994157
 42
-0.045692
  0
VERTEX
  8
0
 10
445.084393
 20
1116.464487
 42
-0.031457
  0
VERTEX
  8
0
 10
445.391840
 20
1113.182858
 42
-0.008682
  0
VERTEX
  8
0
 10
445.460035
 20
1108.000000
 42
-0.010007
  0
VERTEX
  8
0
 10
445.314038
 20
1101.973475
 42
-0.050066
  0
VERTEX
  8
0
 10
444.828853
 20
1098.634132
 42
-0.049703
  0
VERTEX
  8
0
 10
443.688375
 20
1095.447167
 42
-0.009774
  0
VERTEX
  8
0
 10
440.972395
 20
1090.000000
 42
0.009307
  0
VERTEX
  8
0
 10
438.316993
 20
1084.686784
 42
0.046825
  0
VERTEX
  8
0
 10
437.175352
 20
1081.571549
 42
0.053298
  0
VERTEX
  8
0
 10
436.704282
 20
1078.479687
 42
0.014273
  0
VERTEX
  8
0
 10
436.623820
 20
1073.500000
 42
0.015348
  0
VERTEX
  8
0
 10
436.793202
 20
1069.570736
 42
0.022237
  0
VERTEX
  8
0
 10
437.202905
 20
1066.121932
 42
0.024538
  0
VERTEX
  8
0
 10
437.872265
 20
1063.008607
 42
0.027496
  0
VERTEX
  8
0
 10
438.824434
 20
1060.094599
 42
-0.010752
  0
VERTEX
  8
0
 10
439.597616
 20
1057.971803
 42
-0.015675
  0
VERTEX
  8
0
 10
440.179223
 20
1056.067652
 42
-0.011114
  0
VERTEX
  8
0
 10
440.571060
 20
1054.486107
 42
-0.196007
  0
VERTEX
  8
0
 10
440.485419
 20
1053.976407
 42
-0.184113
  0
VERTEX
  8
0
 10
440.077984
 20
1053.664693
 42
-0.012146
  0
VERTEX
  8
0
 10
438.625514
 20
1053.271087
 42
-0.016297
  0
VERTEX
  8
0
 10
436.824383
 20
1052.891416
 42
-0.011382
  0
VERTEX
  8
0
 10
434.772445
 20
1052.576256
 42
0.024841
  0
VERTEX
  8
0
 10
432.056094
 20
1052.083900
 42
0.007536
  0
VERTEX
  8
0
 10
427.992688
 20
1051.072045
 42
0.007527
  0
VERTEX
  8
0
 10
423.466129
 20
1049.798901
 42
0.008135
  0
VERTEX
  8
0
 10
419.096279
 20
1048.420766
 42
0.000000
  0
VERTEX
  8
0
 10
408.692558
 20
1044.952636
 42
0.000000
  0
VERTEX
  8
0
 10
400.596279
 20
1048.377979
 42
0.002797
  0
VERTEX
  8
0
 10
397.326473
 20
1049.739838
 42
0.003238
  0
VERTEX
  8
0
 10
394.196974
 20
1050.999150
 42
0.002893
  0
VERTEX
  8
0
 10
391.534430
 20
1052.032805
 42
0.019068
  0
VERTEX
  8
0
 10
390.180655
 20
1052.491058
 42
-0.072229
  0
VERTEX
  8
0
 10
388.831952
 20
1053.113639
 42
-0.007904
  0
VERTEX
  8
0
 10
385.992675
 20
1055.024933
 42
-0.009535
  0
VERTEX
  8
0
 10
382.674407
 20
1057.430956
 42
-0.007567
  0
VERTEX
  8
0
 10
379.180655
 20
1060.151257
 42
0.010362
  0
VERTEX
  8
0
 10
375.341354
 20
1063.106289
 42
0.007653
  0
VERTEX
  8
0
 10
370.977398
 20
1066.221420
 42
0.007741
  0
VERTEX
  8
0
 10
366.761371
 20
1069.039172
 42
0.017160
  0
VERTEX
  8
0
 10
363.444531
 20
1071.024522
 42
0.028505
  0
VERTEX
  8
0
 10
357.202183
 20
1074.024957
 42
0.008725
  0
VERTEX
  8
0
 10
347.453218
 20
1077.846777
 42
0.005767
  0
VERTEX
  8
0
 10
337.591660
 20
1081.386595
 42
0.083466
  0
VERTEX
  8
0
 10
333.942679
 20
1082.000000
 42
-0.125862
  0
VERTEX
  8
0
 10
333.123558
 20
1082.209512
 42
-0.007431
  0
VERTEX
  8
0
 10
330.874572
 20
1083.484318
 42
-0.010833
  0
VERTEX
  8
0
 10
328.224224
 20
1085.117304
 42
-0.007749
  0
VERTEX
  8
0
 10
325.329239
 20
1087.052997
 42
0.010893
  0
VERTEX
  8
0
 10
321.968711
 20
1089.269517
 42
0.006531
  0
VERTEX
  8
0
 10
317.887488
 20
1091.761799
 42
0.006538
  0
VERTEX
  8
0
 10
313.759844
 20
1094.136599
 42
0.011308
  0
VERTEX
  8
0
 10
310.259910
 20
1095.987261
 42
0.024326
  0
VERTEX
  8
0
 10
303.560840
 20
1098.939921
 42
0.013072
  0
VERTEX
  8
0
 10
295.046337
 20
1101.955216
 42
0.011103
  0
VERTEX
  8
0
 10
286.885433
 20
1104.408383
 42
0.067553
  0
VERTEX
  8
0
 10
282.526508
 20
1105.000000
 42
-0.076535
  0
VERTEX
  8
0
 10
281.321278
 20
1105.185572
 42
-0.017132
  0
VERTEX
  8
0
 10
279.354781
 20
1105.880766
 42
-0.017391
  0
VERTEX
  8
0
 10
277.116332
 20
1106.850597
 42
-0.016040
  0
VERTEX
  8
0
 10
274.888375
 20
1107.998353
 42
0.006038
  0
VERTEX
  8
0
 10
266.458905
 20
1112.556486
 42
0.009881
  0
VERTEX
  8
0
 10
259.196868
 20
1116.189497
 42
0.011643
  0
VERTEX
  8
0
 10
252.923541
 20
1118.997177
 42
0.019838
  0
VERTEX
  8
0
 10
247.544315
 20
1121.008839
 42
-0.026386
  0
VERTEX
  8
0
 10
243.872022
 20
1122.437220
 42
-0.023373
  0
VERTEX
  8
0
 10
240.214526
 20
1124.297176
 42
-0.020680
  0
VERTEX
  8
0
 10
236.350436
 20
1126.711923
 42
-0.013089
  0
VERTEX
  8
0
 10
232.044315
 20
1129.825751
 42
0.047646
  0
VERTEX
  8
0
 10
215.147199
 20
1140.349598
 42
0.046069
  0
VERTEX
  8
0
 10
196.375096
 20
1147.624947
 42
0.046541
  0
VERTEX
  8
0
 10
176.782050
 20
1151.284498
 42
0.050966
  0
VERTEX
  8
0
 10
157.450438
 20
1151.087133
 42
0.037763
  0
VERTEX
  8
0
 10
138.619708
 20
1147.513548
 42
0.047141
  0
VERTEX
  8
0
 10
121.952436
 20
1141.292273
 42
0.047343
  0
VERTEX
  8
0
 10
106.801638
 20
1132.084866
 42
0.038602
  0
VERTEX
  8
0
 10
92.500000
 20
1119.595511
 42
0.032210
  0
VERTEX
  8
0
 10
82.546685
 20
1108.047748
 42
0.037251
  0
VERTEX
  8
0
 10
74.680230
 20
1095.842539
 42
0.037091
  0
VERTEX
  8
0
 10
68.685797
 20
1082.558498
 42
0.031448
  0
VERTEX
  8
0
 10
64.327677
 20
1067.785570
 42
0.039683
  0
VERTEX
  8
0
 10
62.895923
 20
1057.958074
 42
0.019061
  0
VERTEX
  8
0
 10
62.548841
 20
1045.214122
 42
0.019071
  0
VERTEX
  8
0
 10
63.175584
 20
1032.440697
 42
0.038448
  0
VERTEX
  8
0
 10
64.820858
 20
1022.500000
 42
0.019174
  0
VERTEX
  8
0
 10
70.558226
 20
1002.489255
 42
0.033482
  0
VERTEX
  8
0
 10
77.026440
 20
986.504439
 42
0.038310
  0
VERTEX
  8
0
 10
84.843818
 20
973.101754
 42
0.037930
  0
VERTEX
  8
0
 10
94.637975
 20
961.000885
 42
0.016094
  0
VERTEX
  8
0
 10
100.732744
 20
954.943083
 42
0.021542
  0
VERTEX
  8
0
 10
106.658199
 20
949.879849
 42
0.021098
  0
VERTEX
  8
0
 10
113.095779
 20
945.266222
 42
0.014499
  0
VERTEX
  8
0
 10
120.750000
 20
940.566626
 42
-0.006700
  0
VERTEX
  8
0
 10
123.912164
 20
938.692365
 42
-0.010477
  0
VERTEX
  8
0
 10
126.576562
 20
936.986831
 42
-0.004917
  0
VERTEX
  8
0
 10
128.765421
 20
935.488759
 42
-0.244923
  0
VERTEX
  8
0
 10
129.000000
 20
935.038603
 42
0.200408
  0
VERTEX
  8
0
 10
129.756332
 20
933.227412
 42
0.003343
  0
VERTEX
  8
0
 10
137.706793
 20
925.472321
 42
0.009070
  0
VERTEX
  8
0
 10
145.521999
 20
918.218891
 42
0.027559
  0
VERTEX
  8
0
 10
151.180136
 20
913.690998
 42
0.014158
  0
VERTEX
  8
0
 10
154.285530
 20
911.605142
 42
0.007391
  0
VERTEX
  8
0
 10
158.263527
 20
909.175101
 42
0.007345
  0
VERTEX
  8
0
 10
162.421224
 20
906.800616
 42
0.011143
  0
VERTEX
  8
0
 10
166.110044
 20
904.871127
 42
-0.016998
  0
VERTEX
  8
0
 10
170.200918
 20
902.669968
 42
-0.021627
  0
VERTEX
  8
0
 10
173.807201
 20
900.354005
 42
-0.022751
  0
VERTEX
  8
0
 10
177.044305
 20
897.843664
 42
-0.023045
  0
VERTEX
  8
0
 10
180.025496
 20
895.059748
 42
0.024961
  0
VERTEX
  8
0
 10
188.630716
 20
887.085442
 42
0.028485
  0
VERTEX
  8
0
 10
197.631100
 20
880.377308
 42
0.028528
  0
VERTEX
  8
0
 10
207.323370
 20
874.743880
 42
0.025180
  0
VERTEX
  8
0
 10
218.000000
 20
869.987329
 42
-0.015461
  0
VERTEX
  8
0
 10
221.971091
 20
868.309859
 42
-0.022131
  0
VERTEX
  8
0
 10
225.370527
 20
866.562235
 42
-0.025106
  0
VERTEX
  8
0
 10
228.209909
 20
864.745027
 42
-0.037208
  0
VERTEX
  8
0
 10
230.480316
 20
862.856260
 42
-0.022350
  0
VERTEX
  8
0
 10
232.865494
 20
860.335789
 42
-0.087052
  0
VERTEX
  8
0
 10
233.964186
 20
858.500678
 42
-0.068426
  0
VERTEX
  8
0
 10
234.503502
 20
856.188588
 42
-0.010517
  0
VERTEX
  8
0
 10
234.841332
 20
851.470986
 42
-0.011859
  0
VERTEX
  8
0
 10
234.970648
 20
846.635807
 42
-0.068225
  0
VERTEX
  8
0
 10
234.631279
 20
844.103402
 42
-0.068642
  0
VERTEX
  8
0
 10
233.623467
 20
841.762407
 42
-0.012087
  0
VERTEX
  8
0
 10
231.042584
 20
837.716008
 42
0.023805
  0
VERTEX
  8
0
 10
226.343358
 20
829.953096
 42
0.022890
  0
VERTEX
  8
0
 10
222.336269
 20
821.678236
 42
0.020577
  0
VERTEX
  8
0
 10
218.757871
 20
812.286880
 42
0.013180
  0
VERTEX
  8
0
 10
215.346886
 20
801.123448
 42
-0.184880
  0
VERTEX
  8
0
 10
214.892537
 20
800.507847
 42
-0.106675
  0
VERTEX
  8
0
 10
214.018058
 20
800.181877
 42
-0.055104
  0
VERTEX
  8
0
 10
212.564203
 20
800.132192
 42
-0.013988
  0
VERTEX
  8
0
 10
210.211891
 20
800.377504
 42
0.011428
  0
VERTEX
  8
0
 10
195.118669
 20
802.029669
 42
0.014835
  0
VERTEX
  8
0
 10
181.226044
 20
802.815541
 42
0.014641
  0
VERTEX
  8
0
 10
167.165422
 20
802.781215
 42
0.010672
  0
VERTEX
  8
0
 10
151.556562
 20
801.952163
 42
0.009133
  0
VERTEX
  8
0
 10
138.045354
 20
800.696451
 42
0.017680
  0
VERTEX
  8
0
 10
127.312061
 20
799.114941
 42
0.020007
  0
VERTEX
  8
0
 10
117.640658
 20
796.935392
 42
0.016392
  0
VERTEX
  8
0
 10
107.500000
 20
793.860127
 42
0.022539
  0
VERTEX
  8
0
 10
90.029766
 20
787.037882
 42
0.030396
  0
VERTEX
  8
0
 10
74.966430
 20
779.231355
 42
0.032646
  0
VERTEX
  8
0
 10
61.847831
 20
770.175715
 42
0.034097
  0
VERTEX
  8
0
 10
50.221036
 20
759.610141
 42
0.050145
  0
VERTEX
  8
0
 10
41.378100
 20
748.328530
 42
0.040745
  0
VERTEX
  8
0
 10
34.237383
 20
734.717549
 42
0.037539
  0
VERTEX
  8
0
 10
28.909488
 20
718.992123
 42
0.029839
  0
VERTEX
  8
0
 10
25.488302
 20
701.389803
 42
0.025128
  0
VERTEX
  8
0
 10
24.376971
 20
687.877330
 42
0.008148
  0
VERTEX
  8
0
 10
24.065740
 20
667.821914
 42
0.008407
  0
VERTEX
  8
0
 10
24.431277
 20
647.046334
 42
0.016358
  0
VERTEX
  8
0
 10
25.543539
 20
630.500000
 42
-0.008619
  0
VERTEX
  8
0
 10
26.186161
 20
622.737421
 42
-0.002703
  0
VERTEX
  8
0
 10
26.885060
 20
611.093750
 42
-0.002700
  0
VERTEX
  8
0
 10
27.524858
 20
598.085767
 42
-0.002985
  0
VERTEX
  8
0
 10
28.000515
 20
585.500000
 42
0.011421
  0
VERTEX
  8
0
 10
29.571884
 20
556.772753
 42
0.051304
  0
VERTEX
  8
0
 10
32.581616
 20
540.233358
 42
0.063898
  0
VERTEX
  8
0
 10
38.582850
 20
526.431195
 42
0.024070
  0
VERTEX
  8
0
 10
50.251614
 20
508.848010
 42
0.002611
  0
VERTEX
  8
0
 10
63.716383
 20
490.735142
 42
0.007243
  0
VERTEX
  8
0
 10
73.433698
 20
478.187576
 42
0.008128
  0
VERTEX
  8
0
 10
80.622587
 20
469.471996
 42
0.060246
  0
VERTEX
  8
0
 10
84.572387
 20
465.832791
 42
0.081178
  0
VERTEX
  8
0
 10
89.796431
 20
463.230559
 42
0.035028
  0
VERTEX
  8
0
 10
97.391004
 20
461.451376
 42
0.021965
  0
VERTEX
  8
0
 10
108.636801
 20
460.139041
 42
0.005957
  0
VERTEX
  8
0
 10
126.524634
 20
459.058521
 42
0.014477
  0
VERTEX
  8
0
 10
153.510177
 20
458.533143
 42
0.022297
  0
VERTEX
  8
0
 10
176.820867
 20
459.794816
 42
0.025728
  0
VERTEX
  8
0
 10
195.649694
 20
462.642518
 42
0.071034
  0
VERTEX
  8
0
 10
208.250000
 20
467.147679
 42
-0.034477
  0
VERTEX
  8
0
 10
208.954828
 20
467.459300
 42
-0.084397
  0
VERTEX
  8
0
 10
209.511030
 20
467.559916
 42
-0.163125
  0
VERTEX
  8
0
 10
209.857956
 20
467.447701
 42
-0.237986
  0
VERTEX
  8
0
 10
210.000000
 20
467.166174
 42
0.038472
  0
VERTEX
  8
0
 10
210.049486
 20
466.523978
 42
0.001202
  0
VERTEX
  8
0
 10
210.459797
 20
463.918797
 42
0.002341
  0
VERTEX
  8
0
 10
210.965541
 20
460.849361
 42
0.001619
  0
VERTEX
  8
0
 10
211.565266
 20
457.380990
 42
-0.011125
  0
VERTEX
  8
0
 10
212.397439
 20
451.955954
 42
-0.034276
  0
VERTEX
  8
0
 10
212.625235
 20
448.252699
 42
-0.030813
  0
VERTEX
  8
0
 10
212.356685
 20
444.349623
 42
-0.007685
  0
VERTEX
  8
0
 10
211.428004
 20
438.019697
 42
0.026002
  0
VERTEX
  8
0
 10
210.432520
 20
428.927281
 42
0.018104
  0
VERTEX
  8
0
 10
210.217157
 20
418.601578
 42
0.018287
  0
VERTEX
  8
0
 10
210.740301
 20
408.534859
 42
0.031905
  0
VERTEX
  8
0
 10
212.007382
 20
400.278600
 42
-0.028775
  0
VERTEX
  8
0
 10
212.506169
 20
397.158773
 42
-0.033907
  0
VERTEX
  8
0
 10
212.605471
 20
394.169864
 42
-0.025255
  0
VERTEX
  8
0
 10
212.297569
 20
390.559475
 42
-0.008288
  0
VERTEX
  8
0
 10
211.488706
 20
385.284339
 42
0.013926
  0
VERTEX
  8
0
 10
210.819195
 20
380.563330
 42
0.011152
  0
VERTEX
  8
0
 10
210.353929
 20
375.448961
 42
0.011134
  0
VERTEX
  8
0
 10
210.116488
 20
370.307810
 42
0.013700
  0
VERTEX
  8
0
 10
210.133366
 20
365.505739
 42
0.000000
  0
VERTEX
  8
0
 10
210.442783
 20
355.500000
 42
0.000000
  0
VERTEX
  8
0
 10
205.220758
 20
345.000000
 42
0.014164
  0
VERTEX
  8
0
 10
203.025084
 20
340.252441
 42
0.009174
  0
VERTEX
  8
0
 10
200.743696
 20
334.646875
 42
0.009224
  0
VERTEX
  8
0
 10
198.715031
 20
329.084480
 42
0.017218
  0
VERTEX
  8
0
 10
197.312751
 20
324.500000
 42
0.014600
  0
VERTEX
  8
0
 10
195.828263
 20
318.250279
 42
0.026112
  0
VERTEX
  8
0
 10
195.030139
 20
313.032871
 42
0.018227
  0
VERTEX
  8
0
 10
194.625868
 20
306.638077
 42
0.003888
  0
VERTEX
  8
0
 10
194.415231
 20
295.500000
 42
-0.004643
  0
VERTEX
  8
0
 10
194.207700
 20
285.338236
 42
-0.013285
  0
VERTEX
  8
0
 10
193.810291
 20
278.283789
 42
-0.017536
  0
VERTEX
  8
0
 10
193.120861
 20
272.463944
 42
-0.015808
  0
VERTEX
  8
0
 10
192.007265
 20
266.500000
 42
0.012957
  0
VERTEX
  8
0
 10
190.868853
 20
260.590090
 42
0.023287
  0
VERTEX
  8
0
 10
190.288504
 20
255.687094
 42
0.019296
  0
VERTEX
  8
0
 10
190.108275
 20
250.171460
 42
0.006237
  0
VERTEX
  8
0
 10
190.258630
 20
242.000000
 42
0.029466
  0
VERTEX
  8
0
 10
191.732621
 20
225.627564
 42
0.041544
  0
VERTEX
  8
0
 10
195.096364
 20
211.373280
 42
0.041766
  0
VERTEX
  8
0
 10
200.753378
 20
197.928204
 42
0.030231
  0
VERTEX
  8
0
 10
209.143913
 20
184.000000
 42
-0.028367
  0
VERTEX
  8
0
 10
210.912623
 20
181.088548
 42
-0.019050
  0
VERTEX
  8
0
 10
212.610257
 20
177.584049
 42
-0.017794
  0
VERTEX
  8
0
 10
214.163603
 20
173.665696
 42
-0.015923
  0
VERTEX
  8
0
 10
215.497971
 20
169.500000
 42
0.054444
  0
VERTEX
  8
0
 10
224.647392
 20
147.046016
 42
0.056788
  0
VERTEX
  8
0
 10
238.325366
 20
127.441125
 42
0.057142
  0
VERTEX
  8
0
 10
255.976627
 20
111.516646
 42
0.056403
  0
VERTEX
  8
0
 10
276.848530
 20
99.919284
 42
-0.022477
  0
VERTEX
  8
0
 10
280.749982
 20
98.085293
 42
-0.021349
  0
VERTEX
  8
0
 10
284.540555
 20
95.879262
 42
-0.019869
  0
VERTEX
  8
0
 10
288.372638
 20
93.203878
 42
-0.014653
  0
VERTEX
  8
0
 10
292.401539
 20
89.955696
 42
0.049993
  0
VERTEX
  8
0
 10
310.256614
 20
77.531556
 42
0.051440
  0
VERTEX
  8
0
 10
330.056299
 20
69.038038
 42
0.051543
  0
VERTEX
  8
0
 10
351.135591
 20
64.777246
 42
0.050584
  0
VERTEX
  8
0
 10
372.777232
 20
64.877525
 42
-0.005896
  0
VERTEX
  8
0
 10
379.692801
 20
65.528977
 42
-0.028115
  0
VERTEX
  8
0
 10
383.658794
 20
65.631786
 42
-0.039619
  0
VERTEX
  8
0
 10
386.949425
 20
65.270030
 42
-0.020232
  0
VERTEX
  8
0
 10
391.000000
 20
64.325237
 42
0.053031
  0
VERTEX
  8
0
 10
400.110142
 20
62.820926
 42
0.014919
  0
VERTEX
  8
0
 10
414.532479
 20
62.419181
 42
0.015118
  0
VERTEX
  8
0
 10
429.015390
 20
62.885995
 42
0.048969
  0
VERTEX
  8
0
 10
438.500000
 20
64.419664
 42
-0.027123
  0
VERTEX
  8
0
 10
442.984605
 20
65.347147
 42
-0.018674
  0
VERTEX
  8
0
 10
448.142471
 20
65.929148
 42
-0.012619
  0
VERTEX
  8
0
 10
455.054732
 20
66.273530
 42
-0.003876
  0
VERTEX
  8
0
 10
465.500000
 20
66.448949
 42
0.009686
  0
VERTEX
  8
0
 10
479.804055
 20
66.855459
 42
0.031438
  0
VERTEX
  8
0
 10
489.233318
 20
67.902967
 42
0.036270
  0
VERTEX
  8
0
 10
497.726500
 20
70.035495
 42
0.016433
  0
VERTEX
  8
0
 10
508.500000
 20
73.984902
 42
-0.020320
  0
VERTEX
  8
0
 10
512.315089
 20
75.349914
 42
-0.023647
  0
VERTEX
  8
0
 10
516.041636
 20
76.324034
 42
-0.021762
  0
VERTEX
  8
0
 10
520.094041
 20
76.998305
 42
-0.013353
  0
VERTEX
  8
0
 10
524.914446
 20
77.455959
 42
0.023593
  0
VERTEX
  8
0
 10
537.130523
 20
78.868656
 42
0.027739
  0
VERTEX
  8
0
 10
548.504904
 20
81.385596
 42
0.028373
  0
VERTEX
  8
0
 10
559.306143
 20
85.084876
 42
0.026998
  0
VERTEX
  8
0
 10
569.805294
 20
90.036391
 42
0.013376
  0
VERTEX
  8
0
 10
575.621493
 20
93.377444
 42
0.020489
  0
VERTEX
  8
0
 10
580.454088
 20
96.607078
 42
0.016964
  0
VERTEX
  8
0
 10
585.610184
 20
100.642153
 42
0.006165
  0
VERTEX
  8
0
 10
592.649556
 20
106.696189
 42
-0.005511
  0
VERTEX
  8
0
 10
595.451013
 20
109.111894
 42
-0.008315
  0
VERTEX
  8
0
 10
597.948748
 20
111.148053
 42
-0.004024
  0
VERTEX
  8
0
 10
600.097484
 20
112.813166
 42
-0.164466
  0
VERTEX
  8
0
 10
600.649556
 20
112.999309
 42
-0.380698
  0
VERTEX
  8
0
 10
600.989732
 20
112.695904
 42
-0.007104
  0
VERTEX
  8
0
 10
601.250182
 20
110.119524
 42
-0.013499
  0
VERTEX
  8
0
 10
601.438831
 20
106.955070
 42
-0.008137
  0
VERTEX
  8
0
 10
601.500000
 20
103.196755
 42
0.009201
  0
VERTEX
  8
0
 10
601.611957
 20
97.113382
 42
0.044524
  0
VERTEX
  8
0
 10
602.045127
 20
93.688026
 42
0.048715
  0
VERTEX
  8
0
 10
603.062926
 20
90.533827
 42
0.012393
  0
VERTEX
  8
0
 10
605.327477
 20
85.651208
 42
0.039375
  0
VERTEX
  8
0
 10
609.592101
 20
78.500503
 42
0.031985
  0
VERTEX
  8
0
 10
615.208087
 20
71.561660
 42
0.028112
  0
VERTEX
  8
0
 10
622.390531
 20
64.594010
 42
0.018306
  0
VERTEX
  8
0
 10
631.397397
 20
57.349110
 42
0.032570
  0
VERTEX
  8
0
 10
645.383035
 20
48.272301
 42
0.050211
  0
VERTEX
  8
0
 10
658.594635
 20
42.526629
 42
0.059891
  0
VERTEX
  8
0
 10
670.672402
 20
40.200762
 42
0.090985
  0
VERTEX
  8
0
 10
681.268646
 20
41.380336
 42
0.039350
  0
VERTEX
  8
0
 10
685.688198
 20
43.099569
 42
0.055818
  0
VERTEX
  8
0
 10
689.256466
 20
45.342525
 42
0.050880
  0
VERTEX
  8
0
 10
692.468613
 20
48.484559
 42
0.026504
  0
VERTEX
  8
0
 10
695.826125
 20
52.977479
 42
0.044276
  0
VERTEX
  8
0
 10
701.087108
 20
62.601345
 42
0.034233
  0
VERTEX
  8
0
 10
705.112494
 20
73.861134
 42
0.030691
  0
VERTEX
  8
0
 10
707.919304
 20
86.804985
 42
0.022126
  0
VERTEX
  8
0
 10
709.511539
 20
101.500000
 42
-0.013051
  0
VERTEX
  8
0
 10
710.853193
 20
116.402576
 42
-0.019532
  0
VERTEX
  8
0
 10
712.870119
 20
129.315232
 42
-0.021632
  0
VERTEX
  8
0
 10
715.682670
 20
140.946124
 42
-0.023564
  0
VERTEX
  8
0
 10
719.425024
 20
151.956571
 42
0.017639
  0
VERTEX
  8
0
 10
722.792436
 20
161.491677
 42
0.038550
  0
VERTEX
  8
0
 10
724.536317
 20
169.036422
 42
0.023567
  0
VERTEX
  8
0
 10
725.539190
 20
178.742239
 42
0.003258
  0
VERTEX
  8
0
 10
726.539124
 20
199.000000
 42
0.000000
  0
VERTEX
  8
0
 10
727.245831
 20
215.500000
 42
0.000000
  0
VERTEX
  8
0
 10
742.872916
 20
215.596764
 42
0.005525
  0
VERTEX
  8
0
 10
751.853690
 20
215.751632
 42
0.020204
  0
VERTEX
  8
0
 10
757.533485
 20
216.142429
 42
0.025555
  0
VERTEX
  8
0
 10
762.458204
 20
216.938182
 42
0.013344
  0
VERTEX
  8
0
 10
768.500000
 20
218.403806
 42
0.014450
  0
VERTEX
  8
0
 10
773.084828
 20
219.789805
 42
0.007814
  0
VERTEX
  8
0
 10
778.646875
 20
221.745374
 42
0.007777
  0
VERTEX
  8
0
 10
784.252870
 20
223.915057
 42
0.012154
  0
VERTEX
  8
0
 10
789.000000
 20
225.973435
 42
-0.012480
  0
VERTEX
  8
0
 10
794.162076
 20
228.207739
 42
-0.014990
  0
VERTEX
  8
0
 10
799.125776
 20
230.039611
 42
-0.015919
  0
VERTEX
  8
0
 10
803.901892
 20
231.473887
 42
-0.018839
  0
VERTEX
  8
0
 10
808.500000
 20
232.512858
 42
0.015310
  0
VERTEX
  8
0
 10
812.625581
 20
233.414512
 42
0.008369
  0
VERTEX
  8
0
 10
817.627092
 20
234.758548
 42
0.008333
  0
VERTEX
  8
0
 10
822.667088
 20
236.295138
 42
0.013129
  0
VERTEX
  8
0
 10
826.932652
 20
237.798508
 42
-0.005445
  0
VERTEX
  8
0
 10
831.936152
 20
239.648871
 42
-0.032359
  0
VERTEX
  8
0
 10
834.614570
 20
240.415091
 42
-0.076046
  0
VERTEX
  8
0
 10
836.141555
 20
240.510094
 42
-0.298994
  0
VERTEX
  8
0
 10
836.844879
 20
239.952044
 42
0.035707
  0
VERTEX
  8
0
 10
837.293258
 20
238.862419
 42
0.000263
  0
VERTEX
  8
0
 10
841.652590
 20
230.114038
 42
0.000993
  0
VERTEX
  8
0
 10
846.672121
 20
220.103797
 42
0.000636
  0
VERTEX
  8
0
 10
852.538110
 20
208.500000
 42
-0.003785
  0
VERTEX
  8
0
 10
862.234342
 20
189.015635
 42
-0.012842
  0
VERTEX
  8
0
 10
868.132810
 20
176.103508
 42
-0.013255
  0
VERTEX
  8
0
 10
871.703000
 20
167.068452
 42
-0.180992
  0
VERTEX
  8
0
 10
871.674156
 20
163.593248
 42
-0.296344
  0
VERTEX
  8
0
 10
870.431879
 20
162.690925
 42
-0.004876
  0
VERTEX
  8
0
 10
861.466007
 20
162.311988
 42
-0.005872
  0
VERTEX
  8
0
 10
846.961765
 20
162.011087
 42
-0.000751
  0
VERTEX
  8
0
 10
815.802294
 20
161.777506
 42
0.000619
  0
VERTEX
  8
0
 10
780.215805
 20
161.520128
 42
0.008138
  0
VERTEX
  8
0
 10
767.042490
 20
161.194058
 42
0.022672
  0
VERTEX
  8
0
 10
759.574450
 20
160.547520
 42
0.048152
  0
VERTEX
  8
0
 10
753.927870
 20
159.237776
 42
0.034243
  0
VERTEX
  8
0
 10
747.387407
 20
156.529294
 42
0.031340
  0
VERTEX
  8
0
 10
741.072771
 20
152.882412
 42
0.032934
  0
VERTEX
  8
0
 10
735.750563
 20
148.817624
 42
0.067339
  0
VERTEX
  8
0
 10
732.300011
 20
144.869434
 42
0.117218
  0
VERTEX
  8
0
 10
729.679664
 20
137.699717
 42
0.084083
  0
VERTEX
  8
0
 10
730.114088
 20
129.146921
 42
0.077264
  0
VERTEX
  8
0
 10
733.475651
 20
120.550079
 42
0.074919
  0
VERTEX
  8
0
 10
739.315738
 20
113.276611
 42
0.047003
  0
VERTEX
  8
0
 10
748.150575
 20
106.549521
 42
0.020650
  0
VERTEX
  8
0
 10
760.954637
 20
99.293972
 42
0.020672
  0
VERTEX
  8
0
 10
774.712808
 20
92.935618
 42
0.035311
  0
VERTEX
  8
0
 10
786.716534
 20
88.944620
 42
0.045281
  0
VERTEX
  8
0
 10
802.105962
 20
86.462819
 42
0.012811
  0
VERTEX
  8
0
 10
826.378660
 20
85.399729
 42
0.011932
  0
VERTEX
  8
0
 10
850.433090
 20
85.537186
 42
0.060933
  0
VERTEX
  8
0
 10
863.626418
 20
87.548619
 42
0.138173
  0
VERTEX
  8
0
 10
871.840063
 20
92.557556
 42
0.112620
  0
VERTEX
  8
0
 10
877.015403
 20
101.507490
 42
0.065140
  0
VERTEX
  8
0
 10
879.511913
 20
116.061152
 42
0.018360
  0
VERTEX
  8
0
 10
879.582800
 20
139.134548
 42
0.000000
  0
VERTEX
  8
0
 10
878.955636
 20
157.769095
 42
0.000000
  0
VERTEX
  8
0
 10
882.727818
 20
158.472742
 42
0.037486
  0
VERTEX
  8
0
 10
894.517136
 20
161.600780
 42
0.029633
  0
VERTEX
  8
0
 10
906.705704
 20
166.661424
 42
0.030347
  0
VERTEX
  8
0
 10
917.752448
 20
172.890808
 42
0.051323
  0
VERTEX
  8
0
 10
926.028997
 20
179.538580
 42
-0.005433
  0
VERTEX
  8
0
 10
928.194521
 20
181.631639
 42
-0.008290
  0
VERTEX
  8
0
 10
930.122865
 20
183.395708
 42
-0.003793
  0
VERTEX
  8
0
 10
931.788535
 20
184.847124
 42
-0.179177
  0
VERTEX
  8
0
 10
932.201445
 20
185.000000
 42
-0.266933
  0
VERTEX
  8
0
 10
932.510760
 20
184.822199
 42
-0.018389
  0
VERTEX
  8
0
 10
933.004218
 20
183.898438
 42
-0.022291
  0
VERTEX
  8
0
 10
933.529679
 20
182.687037
 42
-0.014607
  0
VERTEX
  8
0
 10
934.030719
 20
181.250000
 42
0.049294
  0
VERTEX
  8
0
 10
937.720580
 20
172.637602
 42
0.020674
  0
VERTEX
  8
0
 10
944.262547
 20
161.837555
 42
0.020760
  0
VERTEX
  8
0
 10
951.897587
 20
151.310302
 42
0.036682
  0
VERTEX
  8
0
 10
959.149508
 20
143.405134
 42
0.036200
  0
VERTEX
  8
0
 10
971.515925
 20
133.348102
 42
0.037548
  0
VERTEX
  8
0
 10
985.058688
 20
125.315717
 42
0.037375
  0
VERTEX
  8
0
 10
999.710439
 20
119.368910
 42
0.035190
  0
VERTEX
  8
0
 10
1015.380990
 20
115.525820
 42
0.061098
  0
VERTEX
  8
0
 10
1040.078555
 20
114.336898
 42
0.059308
  0
VERTEX
  8
0
 10
1064.593087
 20
119.113063
 42
0.059072
  0
VERTEX
  8
0
 10
1087.388946
 20
129.537495
 42
0.059693
  0
VERTEX
  8
0
 10
1107.026843
 20
144.973157
 42
0.089364
  0
VERTEX
  8
0
 10
1128.344088
 20
175.659762
 42
0.089367
  0
VERTEX
  8
0
 10
1137.610879
 20
211.856327
 42
0.088951
  0
VERTEX
  8
0
 10
1133.677744
 20
249.154126
 42
0.087494
  0
VERTEX
  8
0
 10
1117.033368
 20
283.000000
 42
-0.020404
  0
VERTEX
  8
0
 10
1114.872648
 20
286.221638
 42
-0.020003
  0
VERTEX
  8
0
 10
1112.966417
 20
289.629687
 42
-0.020440
  0
VERTEX
  8
0
 10
1111.379512
 20
293.098052
 42
-0.024128
  0
VERTEX
  8
0
 10
1110.176183
 20
296.500000
 42
0.027972
  0
VERTEX
  8
0
 10
1106.675482
 20
306.160132
 42
0.022938
  0
VERTEX
  8
0
 10
1101.904866
 20
316.049559
 42
0.022735
  0
VERTEX
  8
0
 10
1096.192435
 20
325.562143
 42
0.025911
  0
VERTEX
  8
0
 10
1089.865723
 20
334.093913
 42
-0.034062
  0
VERTEX
  8
0
 10
1088.105206
 20
336.550670
 42
-0.018108
  0
VERTEX
  8
0
 10
1086.253107
 20
339.804475
 42
-0.017024
  0
VERTEX
  8
0
 10
1084.476174
 20
343.509306
 42
-0.016498
  0
VERTEX
  8
0
 10
1082.935351
 20
347.365030
 42
0.027490
  0
VERTEX
  8
0
 10
1079.412152
 20
355.648434
 42
0.020843
  0
VERTEX
  8
0
 10
1074.687800
 20
364.321038
 42
0.020223
  0
VERTEX
  8
0
 10
1069.070598
 20
372.877531
 42
0.021173
  0
VERTEX
  8
0
 10
1062.861049
 20
380.817618
 42
-0.014666
  0
VERTEX
  8
0
 10
1059.736295
 20
384.707839
 42
-0.020028
  0
VERTEX
  8
0
 10
1057.170878
 20
388.399358
 42
-0.021906
  0
VERTEX
  8
0
 10
1055.101746
 20
391.984243
 42
-0.025744
  0
VERTEX
  8
0
 10
1053.473363
 20
395.551866
 42
0.027384
  0
VERTEX
  8
0
 10
1048.768986
 20
405.769908
 42
0.028664
  0
VERTEX
  8
0
 10
1043.039561
 20
415.251892
 42
0.027441
  0
VERTEX
  8
0
 10
1036.025534
 20
424.369781
 42
0.021329
  0
VERTEX
  8
0
 10
1027.464530
 20
433.500000
 42
-0.015471
  0
VERTEX
  8
0
 10
1024.078050
 20
437.027908
 42
-0.020491
  0
VERTEX
  8
0
 10
1021.234262
 20
440.452325
 42
-0.022161
  0
VERTEX
  8
0
 10
1018.869516
 20
443.852094
 42
-0.025288
  0
VERTEX
  8
0
 10
1016.925171
 20
447.304890
 42
0.017222
  0
VERTEX
  8
0
 10
1015.214855
 20
450.460014
 42
0.008388
  0
VERTEX
  8
0
 10
1012.827822
 20
454.371283
 42
0.008309
  0
VERTEX
  8
0
 10
1010.205428
 20
458.362142
 42
0.011889
  0
VERTEX
  8
0
 10
1007.738535
 20
461.804890
 42
-0.009658
  0
VERTEX
  8
0
 10
1005.065113
 20
465.500930
 42
-0.028345
  0
VERTEX
  8
0
 10
1003.423101
 20
468.177819
 42
-0.040734
  0
VERTEX
  8
0
 10
1002.555423
 20
470.162664
 42
-0.154476
  0
VERTEX
  8
0
 10
1002.523099
 20
471.500000
 42
0.059104
  0
VERTEX
  8
0
 10
1003.507941
 20
477.440378
 42
0.010862
  0
VERTEX
  8
0
 10
1003.780718
 20
488.572294
 42
0.012357
  0
VERTEX
  8
0
 10
1003.527991
 20
500.091016
 42
0.029550
  0
VERTEX
  8
0
 10
1002.626045
 20
508.589624
 42
-0.007713
  0
VERTEX
  8
0
 10
1001.864319
 20
513.650561
 42
-0.022958
  0
VERTEX
  8
0
 10
1001.556033
 20
517.142581
 42
-0.033315
  0
VERTEX
  8
0
 10
1001.620520
 20
519.778721
 42
-0.052290
  0
VERTEX
  8
0
 10
1002.060509
 20
522.000000
 42
0.058449
  0
VERTEX
  8
0
 10
1003.197152
 20
528.132450
 42
0.010167
  0
VERTEX
  8
0
 10
1003.741593
 20
539.915786
 42
0.011609
  0
VERTEX
  8
0
 10
1003.773286
 20
552.004223
 42
0.031785
  0
VERTEX
  8
0
 10
1003.055800
 20
560.511016
 42
-0.011210
  0
VERTEX
  8
0
 10
1002.498890
 20
564.933323
 42
-0.025246
  0
VERTEX
  8
0
 10
1002.322042
 20
568.306999
 42
-0.029488
  0
VERTEX
  8
0
 10
1002.495326
 20
571.340161
 42
-0.022170
  0
VERTEX
  8
0
 10
1003.029080
 20
574.640080
 42
0.020198
  0
VERTEX
  8
0
 10
1004.347648
 20
582.593007
 42
0.018285
  0
VERTEX
  8
0
 10
1005.074630
 20
590.894911
 42
0.017464
  0
VERTEX
  8
0
 10
1005.212715
 20
599.604160
 42
0.014891
  0
VERTEX
  8
0
 10
1004.764123
 20
608.779652
 42
-0.007375
  0
VERTEX
  8
0
 10
1004.335446
 20
615.480885
 42
-0.019634
  0
VERTEX
  8
0
 10
1004.288140
 20
620.273006
 42
-0.023704
  0
VERTEX
  8
0
 10
1004.613934
 20
624.507291
 42
-0.016141
  0
VERTEX
  8
0
 10
1005.366813
 20
629.279652
 42
0.015641
  0
VERTEX
  8
0
 10
1006.723277
 20
637.822620
 42
0.017195
  0
VERTEX
  8
0
 10
1007.491573
 20
646.168264
 42
0.018253
  0
VERTEX
  8
0
 10
1007.655442
 20
654.002641
 42
0.025418
  0
VERTEX
  8
0
 10
1007.190041
 20
661.000000
 42
-0.013604
  0
VERTEX
  8
0
 10
1006.902998
 20
664.179618
 42
-0.015660
  0
VERTEX
  8
0
 10
1006.807040
 20
667.224121
 42
-0.016328
  0
VERTEX
  8
0
 10
1006.891579
 20
669.827418
 42
-0.055213
  0
VERTEX
  8
0
 10
1007.188044
 20
671.500000
 42
0.018147
  0
VERTEX
  8
0
 10
1009.007241
 20
678.640922
 42
0.016886
  0
VERTEX
  8
0
 10
1010.354079
 20
686.068083
 42
0.015066
  0
VERTEX
  8
0
 10
1011.311906
 20
694.324653
 42
0.009525
  0
VERTEX
  8
0
 10
1011.954456
 20
704.000000
 42
-0.006672
  0
VERTEX
  8
0
 10
1012.454325
 20
712.237474
 42
-0.015591
  0
VERTEX
  8
0
 10
1013.102213
 20
718.377417
 42
-0.018622
  0
VERTEX
  8
0
 10
1014.045828
 20
723.759798
 42
-0.014731
  0
VERTEX
  8
0
 10
1015.452084
 20
729.500000
 42
0.041543
  0
VERTEX
  8
0
 10
1018.330597
 20
744.740471
 42
0.035668
  0
VERTEX
  8
0
 10
1018.858248
 20
761.055322
 42
0.035723
  0
VERTEX
  8
0
 10
1017.063060
 20
777.251257
 42
0.042057
  0
VERTEX
  8
0
 10
1013.009571
 20
792.136385
 42
-0.013811
  0
VERTEX
  8
0
 10
1011.455651
 20
796.789409
 42
-0.029685
  0
VERTEX
  8
0
 10
1010.574283
 20
800.465085
 42
-0.029863
  0
VERTEX
  8
0
 10
1010.137366
 20
804.205546
 42
-0.014144
  0
VERTEX
  8
0
 10
1010.000000
 20
809.060413
 42
0.068781
  0
VERTEX
  8
0
 10
1006.246169
 20
836.219712
 42
0.065739
  0
VERTEX
  8
0
 10
995.251459
 20
861.797221
 42
0.065233
  0
VERTEX
  8
0
 10
977.896975
 20
883.813104
 42
0.065861
  0
VERTEX
  8
0
 10
955.508139
 20
900.532573
 42
0.015716
  0
VERTEX
  8
0
 10
952.501148
 20
902.092214
 42
0.006894
  0
VERTEX
  8
0
 10
948.427863
 20
903.976380
 42
0.006815
  0
VERTEX
  8
0
 10
944.047045
 20
905.858783
 42
0.009065
  0
VERTEX
  8
0
 10
940.012662
 20
907.442532
 42
-0.007392
  0
VERTEX
  8
0
 10
936.326478
 20
908.875374
 42
-0.009629
  0
VERTEX
  8
0
 10
932.998664
 20
910.301120
 42
-0.007566
  0
VERTEX
  8
0
 10
930.269467
 20
911.583193
 42
-0.082964
  0
VERTEX
  8
0
 10
929.287238
 20
912.284190
 42
-0.133930
  0
VERTEX
  8
0
 10
928.651328
 20
913.397093
 42
-0.067656
  0
VERTEX
  8
0
 10
928.460114
 20
915.013587
 42
-0.033033
  0
VERTEX
  8
0
 10
928.677278
 20
917.611271
 42
-0.005801
  0
VERTEX
  8
0
 10
929.463822
 20
922.452883
 42
0.097124
  0
VERTEX
  8
0
 10
928.603429
 20
963.434791
 42
0.098359
  0
VERTEX
  8
0
 10
912.308046
 20
1000.853487
 42
0.098214
  0
VERTEX
  8
0
 10
882.922751
 20
1029.244342
 42
0.096528
  0
VERTEX
  8
0
 10
844.749637
 20
1044.488008
 42
0.029482
  0
VERTEX
  8
0
 10
836.665015
 20
1045.532827
 42
0.014767
  0
VERTEX
  8
0
 10
826.364585
 20
1045.945528
 42
0.014753
  0
VERTEX
  8
0
 10
816.108227
 20
1045.750724
 42
0.030989
  0
VERTEX
  8
0
 10
808.188650
 20
1044.872397
 42
-0.021057
  0
VERTEX
  8
0
 10
804.379293
 20
1044.373183
 42
-0.031768
  0
VERTEX
  8
0
 10
801.034429
 20
1044.290598
 42
-0.025314
  0
VERTEX
  8
0
 10
797.198425
 20
1044.634631
 42
-0.008455
  0
VERTEX
  8
0
 10
791.632349
 20
1045.515594
 42
0.013627
  0
VERTEX
  8
0
 10
785.898290
 20
1046.362447
 42
0.017691
  0
VERTEX
  8
0
 10
780.605229
 20
1046.808095
 42
0.015080
  0
VERTEX
  8
0
 10
774.676807
 20
1046.917546
 42
0.006679
  0
VERTEX
  8
0
 10
766.850297
 20
1046.721404
 42
0.000000
  0
VERTEX
  8
0
 10
752.149370
 20
1046.156413
 42
0.000000
  0
VERTEX
  8
0
 10
751.457049
 20
1050.328206
 42
0.025893
  0
VERTEX
  8
0
 10
750.970402
 20
1052.543635
 42
0.006655
  0
VERTEX
  8
0
 10
749.952765
 20
1056.065161
 42
0.006758
  0
VERTEX
  8
0
 10
748.682284
 20
1060.056911
 42
0.006823
  0
VERTEX
  8
0
 10
747.308278
 20
1064.000000
 42
-0.001083
  0
VERTEX
  8
0
 10
745.771855
 20
1068.251473
 42
-0.000696
  0
VERTEX
  8
0
 10
744.006893
 20
1073.190225
 42
-0.000699
  0
VERTEX
  8
0
 10
742.292785
 20
1078.029229
 42
-0.001312
  0
VERTEX
  8
0
 10
740.923258
 20
1081.945448
 42
0.052922
  0
VERTEX
  8
0
 10
730.117284
 20
1104.926580
 42
0.059156
  0
VERTEX
  8
0
 10
715.054120
 20
1124.197497
 42
0.059993
  0
VERTEX
  8
0
 10
696.100557
 20
1139.192778
 42
0.057064
  0
VERTEX
  8
0
 10
673.815127
 20
1149.561568
 42
0.032856
  0
VERTEX
  8
0
 10
661.416995
 20
1152.803918
 42
0.028215
  0
VERTEX
  8
0
 10
648.052232
 20
1154.601359
 42
0.028490
  0
VERTEX
  8
0
 10
634.726570
 20
1154.872031
 42
0.035776
  0
SEQEND
  0
POLYLINE
  8
0
 66
1
 70
1
  0
VERTEX
  8
0
 10
208.834441
 20
795.279703
 42
0.000000
  0
VERTEX
  8
0
 10
213.168882
 20
794.500000
 42
0.000000
  0
VERTEX
  8
0
 10
213.542557
 20
774.500000
 42
-0.002875
  0
VERTEX
  8
0
 10
213.645478
 20
766.541243
 42
-0.003618
  0
VERTEX
  8
0
 10
213.645063
 20
759.170061
 42
-0.002896
  0
VERTEX
  8
0
 10
213.564195
 20
752.990076
 42
-0.028578
  0
VERTEX
  8
0
 10
213.366778
 20
750.398079
 42
0.000000
  0
VERTEX
  8
0
 10
212.817324
 20
746.296157
 42
0.000000
  0
VERTEX
  8
0
 10
201.658662
 20
745.691581
 42
0.012640
  0
VERTEX
  8
0
 10
196.425589
 20
745.275165
 42
0.010848
  0
VERTEX
  8
0
 10
190.945211
 20
744.578833
 42
0.011068
  0
VERTEX
  8
0
 10
185.650192
 20
743.668744
 42
0.015636
  0
VERTEX
  8
0
 10
180.983939
 20
742.607533
 42
-0.010023
  0
VERTEX
  8
0
 10
175.435277
 20
741.279968
 42
-0.030591
  0
VERTEX
  8
0
 10
171.610053
 20
740.687613
 42
-0.032846
  0
VERTEX
  8
0
 10
167.889537
 20
740.587870
 42
-0.013008
  0
VERTEX
  8
0
 10
162.782956
 20
740.919653
 42
0.112954
  0
VERTEX
  8
0
 10
116.780526
 20
734.715354
 42
0.110514
  0
VERTEX
  8
0
 10
77.635026
 20
709.116074
 42
0.110093
  0
VERTEX
  8
0
 10
53.029152
 20
669.181316
 42
0.111369
  0
VERTEX
  8
0
 10
47.849979
 20
622.750000
 42
0.070381
  0
VERTEX
  8
0
 10
55.367707
 20
593.463098
 42
0.071381
  0
VERTEX
  8
0
 10
70.692242
 20
567.565304
 42
0.071561
  0
VERTEX
  8
0
 10
92.640667
 20
547.073857
 42
0.071315
  0
VERTEX
  8
0
 10
119.500000
 20
533.571342
 42
0.035369
  0
VERTEX
  8
0
 10
132.364628
 20
530.249193
 42
0.029441
  0
VERTEX
  8
0
 10
146.386291
 20
528.513721
 42
0.029604
  0
VERTEX
  8
0
 10
160.419450
 20
528.442305
 42
0.037164
  0
VERTEX
  8
0
 10
173.315680
 20
530.107291
 42
-0.022519
  0
VERTEX
  8
0
 10
176.559766
 20
530.623032
 42
-0.027203
  0
VERTEX
  8
0
 10
179.638196
 20
530.802512
 42
-0.023722
  0
VERTEX
  8
0
 10
183.039598
 20
530.654150
 42
-0.011886
  0
VERTEX
  8
0
 10
187.315680
 20
530.161108
 42
0.003567
  0
VERTEX
  8
0
 10
190.967696
 20
529.678338
 42
0.002328
  0
VERTEX
  8
0
 10
195.188493
 20
529.170933
 42
0.002341
  0
VERTEX
  8
0
 10
199.308995
 20
528.714571
 42
0.004471
  0
VERTEX
  8
0
 10
202.623870
 20
528.393084
 42
0.000000
  0
VERTEX
  8
0
 10
209.747739
 20
527.766436
 42
0.000000
  0
VERTEX
  8
0
 10
210.378054
 20
521.133218
 42
0.005835
  0
VERTEX
  8
0
 10
210.699673
 20
518.122165
 42
0.003450
  0
VERTEX
  8
0
 10
211.150214
 20
514.536012
 42
0.003451
  0
VERTEX
  8
0
 10
211.649441
 20
510.961879
 42
0.005915
  0
VERTEX
  8
0
 10
212.121559
 20
507.989374
 42
-0.020342
  0
VERTEX
  8
0
 10
212.607276
 20
504.235132
 42
-0.029917
  0
VERTEX
  8
0
 10
212.700941
 20
500.910847
 42
-0.024990
  0
VERTEX
  8
0
 10
212.396472
 20
497.188620
 42
-0.009633
  0
VERTEX
  8
0
 10
211.617374
 20
492.063158
 42
0.006733
  0
VERTEX
  8
0
 10
210.998224
 20
488.143110
 42
0.006447
  0
VERTEX
  8
0
 10
210.475104
 20
484.150830
 42
0.006404
  0
VERTEX
  8
0
 10
210.104119
 20
480.616712
 42
0.022950
  0
VERTEX
  8
0
 10
210.000000
 20
478.349464
 42
-0.022563
  0
VERTEX
  8
0
 10
209.890970
 20
475.934540
 42
-0.093827
  0
VERTEX
  8
0
 10
209.493538
 20
474.538462
 42
-0.115193
  0
VERTEX
  8
0
 10
208.658946
 20
473.535081
 42
-0.042614
  0
VERTEX
  8
0
 10
207.093702
 20
472.548455
 42
-0.044661
  0
VERTEX
  8
0
 10
201.539145
 20
470.278282
 42
-0.015670
  0
VERTEX
  8
0
 10
193.218577
 20
467.998873
 42
-0.015556
  0
VERTEX
  8
0
 10
183.962502
 20
466.074907
 42
-0.018871
  0
VERTEX
  8
0
 10
175.181420
 20
464.872417
 42
-0.025535
  0
VERTEX
  8
0
 10
156.352514
 20
463.981166
 42
-0.008489
  0
VERTEX
  8
0
 10
128.729164
 20
464.554084
 42
-0.005742
  0
VERTEX
  8
0
 10
101.302822
 20
465.904520
 42
-0.075804
  0
VERTEX
  8
0
 10
91.412451
 20
468.033286
 42
-0.045693
  0
VERTEX
  8
0
 10
90.331642
 20
468.561582
 42
-0.014297
  0
VERTEX
  8
0
 10
88.816466
 20
469.542536
 42
-0.014155
  0
VERTEX
  8
0
 10
87.178813
 20
470.740234
 42
-0.015193
  0
VERTEX
  8
0
 10
85.650754
 20
472.001780
 42
-0.039555
  0
VERTEX
  8
0
 10
82.577640
 20
475.163457
 42
-0.008103
  0
VERTEX
  8
0
 10
77.700699
 20
481.244930
 42
-0.004323
  0
VERTEX
  8
0
 10
69.771705
 20
491.651934
 42
-0.000594
  0
VERTEX
  8
0
 10
53.462886
 20
513.500000
 42
-0.024282
  0
VERTEX
  8
0
 10
43.436122
 20
528.427000
 42
-0.061755
  0
VERTEX
  8
0
 10
38.128757
 20
540.324910
 42
-0.051753
  0
VERTEX
  8
0
 10
35.390499
 20
554.349727
 42
-0.013184
  0
VERTEX
  8
0
 10
33.929239
 20
577.500000
 42
0.003064
  0
VERTEX
  8
0
 10
33.450800
 20
588.671979
 42
0.001972
  0
VERTEX
  8
0
 10
32.765650
 20
601.618750
 42
0.001982
  0
VERTEX
  8
0
 10
31.995124
 20
614.280610
 42
0.003727
  0
VERTEX
  8
0
 10
31.256032
 20
624.500000
 42
-0.010915
  0
VERTEX
  8
0
 10
29.984722
 20
646.462105
 42
-0.009068
  0
VERTEX
  8
0
 10
29.566782
 20
669.862167
 42
-0.008883
  0
VERTEX
  8
0
 10
29.948115
 20
690.997669
 42
-0.030884
  0
VERTEX
  8
0
 10
31.278117
 20
704.588009
 42
-0.031148
  0
VERTEX
  8
0
 10
34.861889
 20
720.496428
 42
-0.037019
  0
VERTEX
  8
0
 10
40.252651
 20
734.911921
 42
-0.039791
  0
VERTEX
  8
0
 10
47.270824
 20
747.417608
 42
-0.050391
  0
VERTEX
  8
0
 10
55.718856
 20
757.619384
 42
-0.030081
  0
VERTEX
  8
0
 10
66.130889
 20
766.720489
 42
-0.029825
  0
VERTEX
  8
0
 10
77.588438
 20
774.534495
 42
-0.027678
  0
VERTEX
  8
0
 10
90.674983
 20
781.406924
 42
-0.019725
  0
VERTEX
  8
0
 10
105.998715
 20
787.683989
 42
-0.025685
  0
VERTEX
  8
0
 10
121.331975
 20
792.393168
 42
-0.031285
  0
VERTEX
  8
0
 10
136.093738
 20
795.141485
 42
-0.024852
  0
VERTEX
  8
0
 10
153.573515
 20
796.399185
 42
-0.009473
  0
VERTEX
  8
0
 10
178.000000
 20
796.477046
 42
-0.002479
  0
VERTEX
  8
0
 10
188.465906
 20
796.260202
 42
-0.003285
  0
VERTEX
  8
0
 10
197.988867
 20
795.953050
 42
-0.002352
  0
VERTEX
  8
0
 10
205.963381
 20
795.605814
 42
-0.032452
  0
SEQEND
  0
POLYLINE
  8
0
 66
1
 70
1
  0
VERTEX
  8
0
 10
876.362761
 20
263.378549
 42
0.004335
  0
VERTEX
  8
0
 10
878.803712
 20
261.573422
 42
0.005722
  0
VERTEX
  8
0
 10
881.061049
 20
259.973299
 42
0.004208
  0
VERTEX
  8
0
 10
882.974769
 20
258.673070
 42
0.054513
  0
VERTEX
  8
0
 10
883.738682
 20
258.275904
 42
-0.123374
  0
VERTEX
  8
0
 10
884.447265
 20
257.774267
 42
-0.006898
  0
VERTEX
  8
0
 10
886.190857
 20
255.685005
 42
-0.010285
  0
VERTEX
  8
0
 10
888.199893
 20
253.102206
 42
-0.007328
  0
VERTEX
  8
0
 10
890.347084
 20
250.131545
 42
0.013777
  0
VERTEX
  8
0
 10
892.884724
 20
246.714388
 42
0.008081
  0
VERTEX
  8
0
 10
896.097834
 20
242.761050
 42
0.008078
  0
VERTEX
  8
0
 10
899.441458
 20
238.908464
 42
0.013614
  0
VERTEX
  8
0
 10
902.383647
 20
235.801538
 42
-0.015925
  0
VERTEX
  8
0
 10
905.459738
 20
232.523001
 42
-0.021257
  0
VERTEX
  8
0
 10
908.023564
 20
229.347326
 42
-0.023510
  0
VERTEX
  8
0
 10
910.077770
 20
226.277171
 42
-0.031890
  0
VERTEX
  8
0
 10
911.614577
 20
223.317348
 42
0.017737
  0
VERTEX
  8
0
 10
914.426913
 20
217.504561
 42
0.013888
  0
VERTEX
  8
0
 10
917.871561
 20
211.401813
 42
0.013729
  0
VERTEX
  8
0
 10
921.703023
 20
205.412267
 42
0.015921
  0
VERTEX
  8
0
 10
925.681081
 20
199.937765
 42
-0.012133
  0
VERTEX
  8
0
 10
927.335070
 20
197.697468
 42
-0.015831
  0
VERTEX
  8
0
 10
928.731318
 20
195.566530
 42
-0.013434
  0
VERTEX
  8
0
 10
929.778959
 20
193.743195
 42
-0.124296
  0
VERTEX
  8
0
 10
930.000000
 20
192.867764
 42
-0.193523
  0
VERTEX
  8
0
 10
928.489219
 20
189.110578
 42
-0.023615
  0
VERTEX
  8
0
 10
921.919926
 20
182.880056
 42
-0.027829
  0
VERTEX
  8
0
 10
913.774880
 20
176.609741
 42
-0.034092
  0
VERTEX
  8
0
 10
905.500000
 20
171.736070
 42
-0.026376
  0
VERTEX
  8
0
 10
900.729619
 20
169.654926
 42
-0.009262
  0
VERTEX
  8
0
 10
893.682053
 20
167.161088
 42
-0.009331
  0
VERTEX
  8
0
 10
886.511114
 20
164.919869
 42
-0.024621
  0
VERTEX
  8
0
 10
881.280187
 20
163.667292
 42
-0.030882
  0
VERTEX
  8
0
 10
879.306021
 20
163.421126
 42
-0.192186
  0
VERTEX
  8
0
 10
878.355964
 20
163.733262
 42
-0.141430
  0
VERTEX
  8
0
 10
877.722900
 20
164.673417
 42
-0.014409
  0
VERTEX
  8
0
 10
876.965128
 20
167.281037
 42
0.025807
  0
VERTEX
  8
0
 10
874.800539
 20
174.142299
 42
0.016624
  0
VERTEX
  8
0
 10
871.625926
 20
181.855626
 42
0.009307
  0
VERTEX
  8
0
 10
866.396132
 20
192.898358
 42
0.001827
  0
VERTEX
  8
0
 10
856.557195
 20
212.530972
 42
-0.000771
  0
VERTEX
  8
0
 10
850.593567
 20
224.368295
 42
-0.001256
  0
VERTEX
  8
0
 10
845.573662
 20
234.433737
 42
-0.000135
  0
VERTEX
  8
0
 10
841.115349
 20
243.435765
 42
-0.120742
  0
VERTEX
  8
0
 10
841.012719
 20
243.896325
 42
-0.229109
  0
VERTEX
  8
0
 10
841.190323
 20
244.244661
 42
-0.005551
  0
VERTEX
  8
0
 10
842.683009
 20
245.350796
 42
-0.010996
  0
VERTEX
  8
0
 10
844.512469
 20
246.614915
 42
-0.007120
  0
VERTEX
  8
0
 10
846.680951
 20
248.000000
 42
0.024796
  0
VERTEX
  8
0
 10
849.437386
 20
249.901020
 42
0.008761
  0
VERTEX
  8
0
 10
853.196052
 20
252.884100
 42
0.008671
  0
VERTEX
  8
0
 10
857.217943
 20
256.311227
 42
0.010077
  0
VERTEX
  8
0
 10
860.918232
 20
259.711829
 42
-0.001759
  0
VERTEX
  8
0
 10
864.234311
 20
262.862693
 42
-0.002828
  0
VERTEX
  8
0
 10
867.085667
 20
265.522646
 42
-0.000525
  0
VERTEX
  8
0
 10
869.613639
 20
267.849416
 42
-0.160890
  0
VERTEX
  8
0
 10
869.862761
 20
267.961829
 42
-0.180323
  0
VERTEX
  8
0
 10
870.117454
 20
267.896260
 42
-0.001342
  0
VERTEX
  8
0
 10
871.921775
 20
266.631236
 42
-0.004792
  0
VERTEX
  8
0
 10
873.984018
 20
265.147317
 42
-0.003027
  0
SEQEND
  0
POLYLINE
  8
0
 66
1
 70
1
  0
VERTEX
  8
0
 10
721.523436
 20
206.750000
 42
0.000010
  0
VERTEX
  8
0
 10
721.282517
 20
202.437365
 42
0.000005
  0
VERTEX
  8
0
 10
720.982255
 20
197.059375
 42
0.000005
  0
VERTEX
  8
0
 10
720.674175
 20
191.539205
 42
0.000008
  0
VERTEX
  8
0
 10
720.407022
 20
186.750000
 42
0.000000
  0
VERTEX
  8
0
 10
719.807540
 20
176.000000
 42
0.000000
  0
VERTEX
  8
0
 10
716.153770
 20
175.995353
 42
0.015177
  0
VERTEX
  8
0
 10
707.729404
 20
175.728860
 42
0.003553
  0
VERTEX
  8
0
 10
693.639458
 20
174.753973
 42
0.003597
  0
VERTEX
  8
0
 10
679.541161
 20
173.575733
 42
0.014430
  0
VERTEX
  8
0
 10
670.950135
 20
172.544796
 42
-0.002691
  0
VERTEX
  8
0
 10
667.321063
 20
172.022617
 42
-0.004344
  0
VERTEX
  8
0
 10
664.225850
 20
171.621619
 42
-0.000942
  0
VERTEX
  8
0
 10
661.515067
 20
171.299527
 42
-0.229344
  0
VERTEX
  8
0
 10
661.288335
 20
171.378332
 42
-0.276893
  0
VERTEX
  8
0
 10
661.235105
 20
171.591097
 42
-0.003151
  0
VERTEX
  8
0
 10
661.688134
 20
173.048355
 42
-0.008529
  0
VERTEX
  8
0
 10
662.261222
 20
174.750492
 42
-0.005325
  0
VERTEX
  8
0
 10
662.987606
 20
176.725264
 42
0.019891
  0
VERTEX
  8
0
 10
663.872806
 20
179.366827
 42
0.006617
  0
VERTEX
  8
0
 10
664.962919
 20
183.300608
 42
0.006575
  0
VERTEX
  8
0
 10
666.056681
 20
187.694888
 42
0.007441
  0
VERTEX
  8
0
 10
666.987612
 20
191.939210
 42
-0.012223
  0
VERTEX
  8
0
 10
668.085364
 20
196.724972
 42
-0.019140
  0
VERTEX
  8
0
 10
669.285680
 20
200.773925
 42
-0.022254
  0
VERTEX
  8
0
 10
670.607723
 20
204.172637
 42
-0.034044
  0
VERTEX
  8
0
 10
672.077234
 20
206.971097
 42
0.000000
  0
VERTEX
  8
0
 10
675.106999
 20
211.895092
 42
0.000000
  0
VERTEX
  8
0
 10
683.425936
 20
211.308016
 42
0.027666
  0
VERTEX
  8
0
 10
690.872183
 20
211.195297
 42
0.014752
  0
VERTEX
  8
0
 10
700.063691
 20
211.836824
 42
0.014602
  0
VERTEX
  8
0
 10
708.958729
 20
212.985141
 42
0.036924
  0
VERTEX
  8
0
 10
715.303844
 20
214.480206
 42
-0.016435
  0
VERTEX
  8
0
 10
719.877122
 20
215.757487
 42
-0.291009
  0
VERTEX
  8
0
 10
721.265021
 20
215.286914
 42
-0.178929
  0
VERTEX
  8
0
 10
721.821144
 20
213.627777
 42
-0.006284
  0
SEQEND
  0
POLYLINE
  8
0
 66
1
 70
1
  0
VERTEX
  8
0
 10
718.390619
 20
166.268644
 42
-0.027376
  0
VERTEX
  8
0
 10
717.882112
 20
164.192346
 42
-0.005433
  0
VERTEX
  8
0
 10
716.730220
 20
160.543522
 42
-0.005738
  0
VERTEX
  8
0
 10
715.292162
 20
156.319348
 42
-0.005311
  0
VERTEX
  8
0
 10
713.721183
 20
152.018644
 42
0.017199
  0
VERTEX
  8
0
 10
710.563658
 20
142.692465
 42
0.019757
  0
VERTEX
  8
0
 10
708.214660
 20
133.589894
 42
0.018179
  0
VERTEX
  8
0
 10
706.451227
 20
123.713417
 42
0.011236
  0
VERTEX
  8
0
 10
705.064220
 20
112.000000
 42
-0.001681
  0
VERTEX
  8
0
 10
703.272771
 20
93.918457
 42
-0.010972
  0
VERTEX
  8
0
 10
702.143120
 20
84.859378
 42
-0.021321
  0
VERTEX
  8
0
 10
700.978644
 20
78.759665
 42
-0.024764
  0
VERTEX
  8
0
 10
699.341752
 20
73.084100
 42
-0.024129
  0
VERTEX
  8
0
 10
695.300052
 20
62.922407
 42
-0.044450
  0
VERTEX
  8
0
 10
690.916541
 20
55.188532
 42
-0.056754
  0
VERTEX
  8
0
 10
686.233309
 20
49.825924
 42
-0.105580
  0
VERTEX
  8
0
 10
681.272456
 20
46.924904
 42
-0.073892
  0
VERTEX
  8
0
 10
676.056514
 20
46.022790
 42
-0.030143
  0
VERTEX
  8
0
 10
668.846162
 20
46.286257
 42
-0.029938
  0
VERTEX
  8
0
 10
661.326671
 20
47.473912
 42
-0.045005
  0
VERTEX
  8
0
 10
655.000000
 20
49.475825
 42
-0.046685
  0
VERTEX
  8
0
 10
642.162923
 20
56.318143
 42
-0.030646
  0
VERTEX
  8
0
 10
628.759090
 20
66.387390
 42
-0.030916
  0
VERTEX
  8
0
 10
617.234850
 20
77.503367
 42
-0.070767
  0
VERTEX
  8
0
 10
610.432213
 20
87.439981
 42
-0.013994
  0
VERTEX
  8
0
 10
608.328710
 20
92.014107
 42
-0.055235
  0
VERTEX
  8
0
 10
607.435919
 20
94.976840
 42
-0.045233
  0
VERTEX
  8
0
 10
607.126375
 20
98.334740
 42
-0.007313
  0
VERTEX
  8
0
 10
607.212458
 20
104.903023
 42
0.000000
  0
VERTEX
  8
0
 10
607.500000
 20
115.269532
 42
0.000000
  0
VERTEX
  8
0
 10
616.377440
 20
120.622167
 42
0.029390
  0
VERTEX
  8
0
 10
628.166773
 20
128.711020
 42
0.031380
  0
VERTEX
  8
0
 10
638.656476
 20
137.964194
 42
0.032294
  0
VERTEX
  8
0
 10
647.629940
 20
148.182106
 42
0.035653
  0
VERTEX
  8
0
 10
654.892364
 20
159.151615
 42
-0.033775
  0
VERTEX
  8
0
 10
657.472097
 20
163.080102
 42
-0.129182
  0
VERTEX
  8
0
 10
659.756511
 20
164.872445
 42
-0.064697
  0
VERTEX
  8
0
 10
663.368458
 20
165.907648
 42
-0.004367
  0
VERTEX
  8
0
 10
674.000000
 20
167.418619
 42
-0.003591
  0
VERTEX
  8
0
 10
683.750942
 20
168.646454
 42
-0.011207
  0
VERTEX
  8
0
 10
690.335900
 20
169.278340
 42
-0.011190
  0
VERTEX
  8
0
 10
696.947699
 20
169.614999
 42
-0.003572
  0
VERTEX
  8
0
 10
706.795313
 20
169.825293
 42
0.000000
  0
VERTEX
  8
0
 10
719.090626
 20
170.000000
 42
0.000000
  0
SEQEND
  0
POLYLINE
  8
0
 66
1
 70
1
  0
VERTEX
  8
0
 10
873.234687
 20
155.500000
 42
-0.149549
  0
VERTEX
  8
0
 10
873.531927
 20
154.650898
 42
-0.001643
  0
VERTEX
  8
0
 10
873.758058
 20
148.466404
 42
-0.004954
  0
VERTEX
  8
0
 10
873.925730
 20
141.288357
 42
-0.003184
  0
VERTEX
  8
0
 10
873.984687
 20
132.960099
 42
-0.009937
  0
VERTEX
  8
0
 10
873.625412
 20
114.212890
 42
-0.050181
  0
VERTEX
  8
0
 10
872.173440
 20
103.857929
 42
-0.097773
  0
VERTEX
  8
0
 10
869.250504
 20
97.559831
 42
-0.121581
  0
VERTEX
  8
0
 10
864.324889
 20
93.416270
 42
-0.064001
  0
VERTEX
  8
0
 10
861.322888
 20
92.389429
 42
-0.029337
  0
VERTEX
  8
0
 10
857.219920
 20
91.798282
 42
-0.014770
  0
VERTEX
  8
0
 10
850.658727
 20
91.437724
 42
-0.002363
  0
VERTEX
  8
0
 10
837.817178
 20
91.172717
 42
-0.013977
  0
VERTEX
  8
0
 10
809.194584
 20
91.517487
 42
-0.042406
  0
VERTEX
  8
0
 10
789.889920
 20
93.938464
 42
-0.051790
  0
VERTEX
  8
0
 10
773.466633
 20
99.253760
 42
-0.029952
  0
VERTEX
  8
0
 10
755.000000
 20
108.782839
 42
-0.030822
  0
VERTEX
  8
0
 10
745.764948
 20
115.072306
 42
-0.064682
  0
VERTEX
  8
0
 10
739.654703
 20
121.223020
 42
-0.081481
  0
VERTEX
  8
0
 10
736.195234
 20
127.704004
 42
-0.082111
  0
VERTEX
  8
0
 10
735.000000
 20
134.933085
 42
-0.024619
  0
VERTEX
  8
0
 10
735.136001
 20
137.693560
 42
-0.062306
  0
VERTEX
  8
0
 10
735.579431
 20
139.649808
 42
-0.064874
  0
VERTEX
  8
0
 10
736.478660
 20
141.390109
 42
-0.028518
  0
VERTEX
  8
0
 10
738.078678
 20
143.436828
 42
-0.061347
  0
VERTEX
  8
0
 10
743.172346
 20
147.974388
 42
-0.045741
  0
VERTEX
  8
0
 10
749.732233
 20
151.676197
 42
-0.042432
  0
VERTEX
  8
0
 10
757.393492
 20
154.365012
 42
-0.036827
  0
VERTEX
  8
0
 10
765.771773
 20
155.881800
 42
-0.025991
  0
VERTEX
  8
0
 10
779.076163
 20
156.594370
 42
-0.001273
  0
VERTEX
  8
0
 10
823.166830
 20
156.549945
 42
-0.000193
  0
VERTEX
  8
0
 10
871.546049
 20
156.359358
 42
-0.237532
  0
SEQEND
  0
ENDSEC
  0
EOF
