  0
SECTION
  2
HEADER
  9
$ACADVER
  1
AC1009
  9
$DWGCODEPAGE
  3
ansi_1252
  9
$INSBASE
 10
0.0
 20
0.0
 30
0.0
  9
$EXTMIN
 10
0.0
 20
0.0
 30
0.0
  9
$EXTMAX
 10
594.0
 20
420.0
 30
0.0
  9
$LIMMIN
 10
0.0
 20
0.0
  9
$LIMMAX
 10
594.0
 20
420.0
  9
$ORTHOMODE
 70
     0
  9
$REGENMODE
 70
     1
  9
$FILLMODE
 70
     1
  9
$QTEXTMODE
 70
     0
  9
$MIRRTEXT
 70
     1
  9
$DRAGMODE
 70
     2
  9
$LTSCALE
 40
1.0
  9
$OSMODE
 70
    37
  9
$ATTMODE
 70
     1
  9
$TEXTSIZE
 40
2.5
  9
$TRACEWID
 40
1.0
  9
$TEXTSTYLE
  7
STANDARD
  9
$CLAYER
  8
0
  9
$CELTYPE
  6
BYLAYER
  9
$CECOLOR
 62
   256
  9
$DIMSCALE
 40
1.0
  9
$DIMASZ
 40
2.5
  9
$DIMEXO
 40
0.625
  9
$DIMDLI
 40
3.75
  9
$DIMRND
 40
0.0
  9
$DIMDLE
 40
0.0
  9
$DIMEXE
 40
1.25
  9
$DIMTP
 40
0.0
  9
$DIMTM
 40
0.0
  9
$DIMTXT
 40
2.5
  9
$DIMCEN
 40
2.5
  9
$DIMTSZ
 40
0.0
  9
$DIMTOL
 70
     0
  9
$DIMLIM
 70
     0
  9
$DIMTIH
 70
     0
  9
$DIMTOH
 70
     0
  9
$DIMSE1
 70
     0
  9
$DIMSE2
 70
     0
  9
$DIMTAD
 70
     1
  9
$DIMZIN
 70
     8
  9
$DIMBLK
  1

  9
$DIMASO
 70
     1
  9
$DIMSHO
 70
     1
  9
$DIMPOST
  1

  9
$DIMAPOST
  1

  9
$DIMALT
 70
     0
  9
$DIMALTD
 70
     3
  9
$DIMALTF
 40
0.0393700787
  9
$DIMLFAC
 40
1.0
  9
$DIMTOFL
 70
     1
  9
$DIMTVP
 40
0.0
  9
$DIMTIX
 70
     0
  9
$DIMSOXD
 70
     0
  9
$DIMSAH
 70
     0
  9
$DIMBLK1
  1

  9
$DIMBLK2
  1

  9
$DIMSTYLE
  2
ISO-25
  9
$DIMCLRD
 70
     0
  9
$DIMCLRE
 70
     0
  9
$DIMCLRT
 70
     0
  9
$DIMTFAC
 40
1.0
  9
$DIMGAP
 40
0.625
  9
$LUNITS
 70
     2
  9
$LUPREC
 70
     4
  9
$SKETCHINC
 40
1.0
  9
$FILLETRAD
 40
0.0
  9
$AUNITS
 70
     0
  9
$AUPREC
 70
     0
  9
$MENU
  1
.
  9
$ELEVATION
 40
0.0
  9
$PELEVATION
 40
0.0
  9
$THICKNESS
 40
0.0
  9
$LIMCHECK
 70
     0
  9
$CHAMFERA
 40
0.0
  9
$CHAMFERB
 40
0.0
  9
$SKPOLY
 70
     0
  9
$TDCREATE
 40
2460154.591064201
  9
$TDUPDATE
 40
2460154.591066898
  9
$TDINDWG
 40
0.0000000116
  9
$TDUSRTIMER
 40
0.0000000116
  9
$USRTIMER
 70
     1
  9
$ANGBASE
 50
0.0
  9
$ANGDIR
 70
     0
  9
$PDMODE
 70
     0
  9
$PDSIZE
 40
0.0
  9
$PLINEWID
 40
0.0
  9
$COORDS
 70
     1
  9
$SPLFRAME
 70
     0
  9
$SPLINETYPE
 70
     6
  9
$SPLINESEGS
 70
     8
  9
$ATTDIA
 70
     0
  9
$ATTREQ
 70
     1
  9
$HANDLING
 70
     1
  9
$HANDSEED
  5
3ED
  9
$SURFTAB1
 70
     6
  9
$SURFTAB2
 70
     6
  9
$SURFTYPE
 70
     6
  9
$SURFU
 70
     6
  9
$SURFV
 70
     6
  9
$UCSNAME
  2

  9
$UCSORG
 10
0.0
 20
0.0
 30
0.0
  9
$UCSXDIR
 10
1.0
 20
0.0
 30
0.0
  9
$UCSYDIR
 10
0.0
 20
1.0
 30
0.0
  9
$PUCSNAME
  2

  9
$PUCSORG
 10
0.0
 20
0.0
 30
0.0
  9
$PUCSXDIR
 10
1.0
 20
0.0
 30
0.0
  9
$PUCSYDIR
 10
0.0
 20
1.0
 30
0.0
  9
$USERI1
 70
     0
  9
$USERI2
 70
     0
  9
$USERI3
 70
     0
  9
$USERI4
 70
     0
  9
$USERI5
 70
     0
  9
$USERR1
 40
0.0
  9
$USERR2
 40
0.0
  9
$USERR3
 40
0.0
  9
$USERR4
 40
0.0
  9
$USERR5
 40
0.0
  9
$WORLDVIEW
 70
     1
  9
$SHADEDGE
 70
     3
  9
$SHADEDIF
 70
    70
  9
$TILEMODE
 70
     1
  9
$MAXACTVP
 70
    64
  9
$PLIMCHECK
 70
     0
  9
$PEXTMIN
 10
0.0
 20
0.0
 30
0.0
  9
$PEXTMAX
 10
594.0
 20
420.0
 30
0.0
  9
$PLIMMIN
 10
0.0
 20
0.0
  9
$PLIMMAX
 10
594.0
 20
420.0
  9
$UNITMODE
 70
     0
  9
$VISRETAIN
 70
     1
  9
$PLINEGEN
 70
     0
  9
$PSLTSCALE
 70
     1
  0
ENDSEC
  0
SECTION
  2
TABLES
  0
TABLE
  2
VPORT
 70
     1
  0
VPORT
  2
*ACTIVE
 70
     0
 10
0.0
 20
0.0
 11
1.0
 21
1.0
 12
344.1869158879
 22
148.5
 13
0.0
 23
0.0
 14
10.0
 24
10.0
 15
10.0
 25
10.0
 16
0.0
 26
0.0
 36
1.0
 17
0.0
 27
0.0
 37
0.0
 40
297.0
 41
1.9729729729
 42
50.0
 43
0.0
 44
0.0
 50
0.0
 51
0.0
 71
     0
 72
   100
 73
     1
 74
     3
 75
     0
 76
     0
 77
     0
 78
     0
  0
ENDTAB
  0
TABLE
  2
LTYPE
 70
     1
  0
LTYPE
  2
CONTINUOUS
 70
     0
  3
Solid line
 72
    65
 73
     0
 40
0.0
  0
ENDTAB
  0
TABLE
  2
LAYER
 70
     1
  0
LAYER
  2
0
 70
     0
 62
     7
  6
CONTINUOUS
  0
ENDTAB
  0
TABLE
  2
STYLE
 70
     1
  0
STYLE
  2
STANDARD
 70
     0
 40
0.0
 41
1.0
 50
0.0
 71
     0
 42
2.5
  3
txt
  4

  0
ENDTAB
  0
TABLE
  2
VIEW
 70
     0
  0
ENDTAB
  0
TABLE
  2
UCS
 70
     0
  0
ENDTAB
  0
TABLE
  2
APPID
 70
     1
  0
APPID
  2
ACAD
 70
     0
  0
ENDTAB
  0
TABLE
  2
DIMSTYLE
 70
     1
  0
DIMSTYLE
  2
ISO-25
 70
     0
  3

  4

  5

  6

  7

 40
1.0
 41
2.5
 42
0.625
 43
3.75
 44
1.25
 45
0.0
 46
0.0
 47
0.0
 48
0.0
140
2.5
141
2.5
142
0.0
143
0.0393700787
144
1.0
145
0.0
146
1.0
147
0.625
 71
     0
 72
     0
 73
     0
 74
     0
 75
     0
 76
     0
 77
     1
 78
     8
170
     0
171
     3
172
     1
173
     0
174
     0
175
     0
176
     0
177
     0
178
     0
  0
ENDTAB
  0
ENDSEC
  0
SECTION
  2
BLOCKS
  0
BLOCK
  8
0
  2
$MODEL_SPACE
 70
     0
 10
0.0
 20
0.0
 30
0.0
  3
$MODEL_SPACE
  1

  0
ENDBLK
  5
21
  8
0
  0
BLOCK
 67
     1
  8
0
  2
$PAPER_SPACE
 70
     0
 10
0.0
 20
0.0
 30
0.0
  3
$PAPER_SPACE
  1

  0
ENDBLK
  5
1D
 67
     1
  8
0
  0
ENDSEC
  0
SECTION
  2
ENTITIES
  0
ARC
  5
5E
  8
0
  6
CONTINUOUS
 62
     7
 10
871.9956148125
 20
154.5896679916
 30
0.0
 40
1.537531870039459
 50
2.2823260343
 51
36.3042946662
  0
ARC
  5
5F
  8
0
  6
CONTINUOUS
 62
     7
 10
-67.3892901011
 20
117.1504967745
 30
0.0
 40
941.6682095532285
 50
1.9057670099
 51
2.282314534
  0
ARC
  5
60
  8
0
  6
CONTINUOUS
 62
     7
 10
511.6158728289
 20
136.4161428651
 30
0.0
 40
362.3426155918431
 50
0.7704468305
 51
1.9058107093
  0
ARC
  5
61
  8
0
  6
CONTINUOUS
 62
     7
 10
220.0471078926
 20
132.4951134976
 30
0.0
 40
653.9377444225008
 50
0.0407404364
 51
0.7704570183
  0
ARC
  5
62
  8
0
  6
CONTINUOUS
 62
     7
 10
402.1999919832
 20
132.6244215343
 30
0.0
 40
471.7848144349521
 50
357.7634485738
 51
0.0407662627
  0
ARC
  5
63
  8
0
  6
CONTINUOUS
 62
     7
 10
821.4412753381
 20
116.250868248
 30
0.0
 40
52.22391669045629
 50
346.2725310303
 51
357.7635302584
  0
ARC
  5
64
  8
0
  6
CONTINUOUS
 62
     7
 10
854.7620396126
 20
108.1112150498
 30
0.0
 40
17.92337316666967
 50
323.9356077018
 51
346.2725321927
  0
ARC
  5
65
  8
0
  6
CONTINUOUS
 62
     7
 10
858.3934755039
 20
105.4665933167
 30
0.0
 40
13.43100733743744
 50
296.2073464961
 51
323.9355679681
  0
ARC
  5
66
  8
0
  6
CONTINUOUS
 62
     7
 10
858.8292832289
 20
104.581199915
 30
0.0
 40
12.4441690280496
 50
281.5593795046
 51
296.2073500549
  0
ARC
  5
67
  8
0
  6
CONTINUOUS
 62
     7
 10
854.2381846552
 20
127.0278700663
 30
0.0
 40
35.35554583074575
 50
274.8378271578
 51
281.5594443931
  0
ARC
  5
68
  8
0
  6
CONTINUOUS
 62
     7
 10
847.8377774061
 20
202.6498523013
 30
0.0
 40
111.2478999258491
 50
271.4530236715
 51
274.8378122056
  0
ARC
  5
69
  8
0
  6
CONTINUOUS
 62
     7
 10
816.2009740549
 20
1449.9041726579
 30
0.0
 40
1358.903392028703
 50
270.9114477893
 51
271.4530064893
  0
ARC
  5
6A
  8
0
  6
CONTINUOUS
 62
     7
 10
829.6714145002
 20
603.2039127137
 30
0.0
 40
512.0959859704352
 50
267.7083420459
 51
270.9114259167
  0
ARC
  5
6B
  8
0
  6
CONTINUOUS
 62
     7
 10
813.7891948413
 20
206.3318819303
 30
0.0
 40
114.9062910897492
 50
257.9954560868
 51
267.7083760332
  0
ARC
  5
6C
  8
0
  6
CONTINUOUS
 62
     7
 10
807.2673829456
 20
175.6617443242
 30
0.0
 40
83.55040852903036
 50
246.1367450251
 51
257.9955437092
  0
ARC
  5
6D
  8
0
  6
CONTINUOUS
 62
     7
 10
843.6982124226
 20
258.0152460449
 30
0.0
 40
173.6020858152001
 50
239.2743192243
 51
246.1367603172
  0
ARC
  5
6E
  8
0
  6
CONTINUOUS
 62
     7
 10
801.3484401402
 20
186.7627449455
 30
0.0
 40
90.71407627650089
 50
232.2126326681
 51
239.2742791211
  0
ARC
  5
6F
  8
0
  6
CONTINUOUS
 62
     7
 10
766.383262012
 20
141.6653386845
 30
0.0
 40
33.64972897453465
 50
217.4091876032
 51
232.2125883964
  0
ARC
  5
70
  8
0
  6
CONTINUOUS
 62
     7
 10
757.6779040104
 20
135.0073843591
 30
0.0
 40
22.69018456173145
 50
198.7762940999
 51
217.4092009189
  0
ARC
  5
71
  8
0
  6
CONTINUOUS
 62
     7
 10
757.459307188
 20
134.9330890611
 30
0.0
 40
22.45930718796504
 50
180.0000103602
 51
198.7763429367
  0
ARC
  5
72
  8
0
  6
CONTINUOUS
 62
     7
 10
763.0829674916
 20
134.9331022387
 30
0.0
 40
28.08296749156006
 50
174.3589154886
 51
180.0000351709
  0
ARC
  5
73
  8
0
  6
CONTINUOUS
 62
     7
 10
743.1766009053
 20
136.8993483178
 30
0.0
 40
8.079728896021932
 50
160.0978491542
 51
174.358897597
  0
ARC
  5
74
  8
0
  6
CONTINUOUS
 62
     7
 10
742.7072860385
 20
137.0692522364
 30
0.0
 40
7.580605879389483
 50
145.2505891493
 51
160.097809227
  0
ARC
  5
75
  8
0
  6
CONTINUOUS
 62
     7
 10
755.2064203491
 20
128.3984889849
 30
0.0
 40
22.79278829608329
 50
138.7165249808
 51
145.2505981897
  0
ARC
  5
76
  8
0
  6
CONTINUOUS
 62
     7
 10
759.0472893478
 20
125.0261199537
 30
0.0
 40
27.90406480460629
 50
124.6743561279
 51
138.7164549155
  0
ARC
  5
77
  8
0
  6
CONTINUOUS
 62
     7
 10
766.6424030225
 20
114.0468762648
 30
0.0
 40
41.25432861145032
 50
114.1985846696
 51
124.6743478104
  0
ARC
  5
78
  8
0
  6
CONTINUOUS
 62
     7
 10
769.3762454234
 20
107.9634242022
 30
0.0
 40
47.92383258632006
 50
104.4797289478
 51
114.1985969525
  0
ARC
  5
79
  8
0
  6
CONTINUOUS
 62
     7
 10
771.8653794639
 20
98.3246025317
 30
0.0
 40
57.87886505576598
 50
96.0434178003
 51
104.4797320121
  0
ARC
  5
7A
  8
0
  6
CONTINUOUS
 62
     7
 10
779.2733450546
 20
28.3534089801
 30
0.0
 40
128.2411126124489
 50
90.088097364
 51
96.0434550151
  0
ARC
  5
7B
  8
0
  6
CONTINUOUS
 62
     7
 10
792.3970408817
 20
-8502.2250832973
 30
0.0
 40
8658.829699825943
 50
89.7963947988
 51
90.0881447505
  0
ARC
  5
7C
  8
0
  6
CONTINUOUS
 62
     7
 10
600.4820964236
 20
-62510.9251234731
 30
0.0
 40
62667.8707149706
 50
89.7521717475
 51
89.7964040887
  0
ARC
  5
7D
  8
0
  6
CONTINUOUS
 62
     7
 10
871.5369337525
 20
154.2526811705
 30
0.0
 40
2.106696549543877
 50
36.3042760408
 51
89.7520920421
  0
ARC
  5
7E
  8
0
  6
CONTINUOUS
 62
     7
 10
699.1896427496
 20
169.8707446875
 30
0.0
 40
19.53593146825443
 50
343.1022665434
 51
349.3748169183
  0
ARC
  5
7F
  8
0
  6
CONTINUOUS
 62
     7
 10
549.4101464955
 20
215.3707868915
 30
0.0
 40
176.0739502965778
 50
341.8571195043
 51
343.1022591336
  0
ARC
  5
80
  8
0
  6
CONTINUOUS
 62
     7
 10
531.9734199748
 20
221.0843912762
 30
0.0
 40
194.4229204807915
 50
340.5420934536
 51
341.8571317528
  0
ARC
  5
81
  8
0
  6
CONTINUOUS
 62
     7
 10
512.0691517296
 20
228.1162134654
 30
0.0
 40
215.532785891153
 50
339.3249625755
 51
340.5421426713
  0
ARC
  5
82
  8
0
  6
CONTINUOUS
 62
     7
 10
847.6651291461
 20
101.4722039212
 30
0.0
 40
143.1639735192659
 50
159.3249930852
 51
163.2663249405
  0
ARC
  5
83
  8
0
  6
CONTINUOUS
 62
     7
 10
824.5257929917
 20
108.4291648425
 30
0.0
 40
119.0014367541012
 50
163.2663252753
 51
167.7937071286
  0
ARC
  5
84
  8
0
  6
CONTINUOUS
 62
     7
 10
843.1106686359
 20
104.4087072129
 30
0.0
 40
138.016212120892
 50
167.7936549421
 51
171.9595159799
  0
ARC
  5
85
  8
0
  6
CONTINUOUS
 62
     7
 10
966.3473062717
 20
86.9998222958
 30
0.0
 40
262.476399047436
 50
171.9594511847
 51
174.5344443405
  0
ARC
  5
86
  8
0
  6
CONTINUOUS
 62
     7
 10
-1984.9290514652
 20
369.3845613056
 30
0.0
 40
2702.278781496545
 50
354.149194124
 51
354.5344505826
  0
ARC
  5
87
  8
0
  6
CONTINUOUS
 62
     7
 10
496.3192190889
 20
115.125223716
 30
0.0
 40
208.0372553249836
 50
351.6347610189
 51
354.1492572911
  0
ARC
  5
88
  8
0
  6
CONTINUOUS
 62
     7
 10
630.0710344118
 20
95.4574114516
 30
0.0
 40
72.84712646408342
 50
346.7490654387
 51
351.6347384705
  0
ARC
  5
89
  8
0
  6
CONTINUOUS
 62
     7
 10
642.8988061869
 20
92.4366637011
 30
0.0
 40
59.66848291907632
 50
341.0747228724
 51
346.7490538589
  0
ARC
  5
8A
  8
0
  6
CONTINUOUS
 62
     7
 10
592.0971383284
 20
109.8548313455
 30
0.0
 40
113.3732501309107
 50
335.5459194183
 51
341.0748060518
  0
ARC
  5
8B
  8
0
  6
CONTINUOUS
 62
     7
 10
649.6966295121
 20
83.6609253381
 30
0.0
 40
50.09748781589246
 50
325.3654680719
 51
335.5459563203
  0
ARC
  5
8C
  8
0
  6
CONTINUOUS
 62
     7
 10
665.028853573
 20
73.070303873
 30
0.0
 40
31.46315504893645
 50
312.3723247038
 51
325.3654449963
  0
ARC
  5
8D
  8
0
  6
CONTINUOUS
 62
     7
 10
676.9602088536
 20
59.9911406882
 30
0.0
 40
13.75943373265195
 50
288.2644283426
 51
312.3722688836
  0
ARC
  5
8E
  8
0
  6
CONTINUOUS
 62
     7
 10
675.6290128494
 20
64.0246739244
 30
0.0
 40
18.00695926748169
 50
271.3603803291
 51
288.2644583775
  0
ARC
  5
8F
  8
0
  6
CONTINUOUS
 62
     7
 10
674.634495066
 20
105.9014023022
 30
0.0
 40
59.89549523196318
 50
264.45424959
 51
271.3604251725
  0
ARC
  5
90
  8
0
  6
CONTINUOUS
 62
     7
 10
674.9951489137
 20
109.6160004071
 30
0.0
 40
63.6275603812448
 50
257.5950277095
 51
264.4542631133
  0
ARC
  5
91
  8
0
  6
CONTINUOUS
 62
     7
 10
669.2613147538
 20
83.5479528465
 30
0.0
 40
36.93636412124737
 50
247.2876430353
 51
257.5950739559
  0
ARC
  5
92
  8
0
  6
CONTINUOUS
 62
     7
 10
685.1424834645
 20
121.4902084243
 30
0.0
 40
78.06818000562757
 50
236.5960167165
 51
247.287667646
  0
ARC
  5
93
  8
0
  6
CONTINUOUS
 62
     7
 10
717.5254699832
 20
170.5941391432
 30
0.0
 40
136.8887021719835
 50
229.5746643707
 51
236.5960126597
  0
ARC
  5
94
  8
0
  6
CONTINUOUS
 62
     7
 10
712.7995993802
 20
165.0462416638
 30
0.0
 40
129.6008342122307
 50
222.4914979155
 51
229.5746670727
  0
ARC
  5
95
  8
0
  6
CONTINUOUS
 62
     7
 10
648.7610109473
 20
106.3831355909
 30
0.0
 40
42.75441331536137
 50
206.2998591407
 51
222.4914678367
  0
ARC
  5
96
  8
0
  6
CONTINUOUS
 62
     7
 10
691.0803014241
 20
127.2983436056
 30
0.0
 40
89.96000909329202
 50
203.0927893515
 51
206.2997685734
  0
ARC
  5
97
  8
0
  6
CONTINUOUS
 62
     7
 10
621.2510751699
 20
97.5240205231
 30
0.0
 40
14.04801297749675
 50
190.4466339881
 51
203.092713297
  0
ARC
  5
98
  8
0
  6
CONTINUOUS
 62
     7
 10
625.8020811357
 20
98.3631201873
 30
0.0
 40
18.67572769940481
 50
180.0870683921
 51
190.4466469053
  0
ARC
  5
99
  8
0
  6
CONTINUOUS
 62
     7
 10
831.6987385435
 20
98.6762315518
 30
0.0
 40
224.5726231845838
 50
178.4111393686
 51
180.0871256341
  0
LINE
  5
9A
  8
0
  6
CONTINUOUS
 62
     7
 10
607.212458
 20
104.903023
 30
0.0
 11
607.5
 21
115.269532
 31
0.0
  0
LINE
  5
9B
  8
0
  6
CONTINUOUS
 62
     7
 10
607.5
 20
115.269532
 30
0.0
 11
616.37744
 21
120.622167
 31
0.0
  0
ARC
  5
9C
  8
0
  6
CONTINUOUS
 62
     7
 10
553.5253722838
 20
224.8635116956
 30
0.0
 40
121.7236228517454
 50
301.0877748807
 51
307.8215283572
  0
ARC
  5
9D
  8
0
  6
CONTINUOUS
 62
     7
 10
559.765493534
 20
216.8252881926
 30
0.0
 40
111.5475651536477
 50
307.8214484132
 51
315.0108554634
  0
ARC
  5
9E
  8
0
  6
CONTINUOUS
 62
     7
 10
564.1250024921
 20
212.4676625452
 30
0.0
 40
105.3836200199795
 50
315.0107663755
 51
322.4094346751
  0
ARC
  5
9F
  8
0
  6
CONTINUOUS
 62
     7
 10
574.4403707353
 20
204.5264828911
 30
0.0
 40
92.3655880531038
 50
322.4094259768
 51
330.5770321431
  0
ARC
  5
A0
  8
0
  6
CONTINUOUS
 62
     7
 10
685.2274235126
 20
142.0426522234
 30
0.0
 40
34.82717965788536
 50
142.8392987402
 51
150.5770171778
  0
ARC
  5
A1
  8
0
  6
CONTINUOUS
 62
     7
 10
662.0250585933
 20
159.6291281469
 30
0.0
 40
5.713027201511299
 50
113.3959665411
 51
142.839239643
  0
ARC
  5
A2
  8
0
  6
CONTINUOUS
 62
     7
 10
665.5459379404
 20
151.4913013228
 30
0.0
 40
14.5798652396718
 50
98.5891688522
 51
113.3959930661
  0
ARC
  5
A3
  8
0
  6
CONTINUOUS
 62
     7
 10
755.1819496744
 20
-441.9548679401
 30
0.0
 40
614.7573143432315
 50
97.5883753073
 51
98.5892116216
  0
ARC
  5
A4
  8
0
  6
CONTINUOUS
 62
     7
 10
764.3543882042
 20
-510.8045742526
 30
0.0
 40
684.2153281924793
 50
96.765394181
 51
97.5883872204
  0
ARC
  5
A5
  8
0
  6
CONTINUOUS
 62
     7
 10
701.13743896
 20
22.0869854263
 30
0.0
 40
147.587154268727
 50
94.1970890509
 51
96.7654367331
  0
ARC
  5
A6
  8
0
  6
CONTINUOUS
 62
     7
 10
701.1622830763
 20
21.7484769996
 30
0.0
 40
147.9265731618836
 50
91.6326381143
 51
94.197090172
  0
ARC
  5
A7
  8
0
  6
CONTINUOUS
 62
     7
 10
716.5895432915
 20
-519.4937644491
 30
0.0
 40
689.3886348856736
 50
90.8140356695
 51
91.6326742854
  0
LINE
  5
A8
  8
0
  6
CONTINUOUS
 62
     7
 10
706.795313
 20
169.825293
 30
0.0
 11
719.090626
 21
170.0
 31
0.0
  0
LINE
  5
A9
  8
0
  6
CONTINUOUS
 62
     7
 10
719.090626
 20
170.0
 30
0.0
 11
718.390619
 21
166.268644
 31
0.0
  0
ARC
  5
AA
  8
0
  6
CONTINUOUS
 62
     7
 10
108537.2779657184
 20
-5818.3813168968
 30
0.0
 40
107983.9762751787
 50
176.8014331183
 51
176.8037249494
  0
ARC
  5
AB
  8
0
  6
CONTINUOUS
 62
     7
 10
269620.6323792781
 20
-14813.3516296234
 30
0.0
 40
269318.2769057586
 50
176.8038273797
 51
176.8049732953
  0
ARC
  5
AC
  8
0
  6
CONTINUOUS
 62
     7
 10
276729.3282080987
 20
-15209.7007096158
 30
0.0
 40
276438.0134715021
 50
176.8050705076
 51
176.8062164232
  0
ARC
  5
AD
  8
0
  6
CONTINUOUS
 62
     7
 10
150383.1968389219
 20
-8159.3866469659
 30
0.0
 40
149895.3256533171
 50
176.8063002351
 51
176.8081337
  0
LINE
  5
AE
  8
0
  6
CONTINUOUS
 62
     7
 10
720.407022
 20
186.75
 30
0.0
 11
719.80754
 21
176.0
 31
0.0
  0
LINE
  5
AF
  8
0
  6
CONTINUOUS
 62
     7
 10
719.80754
 20
176.0
 30
0.0
 11
716.15377
 21
175.995353
 31
0.0
  0
ARC
  5
B0
  8
0
  6
CONTINUOUS
 62
     7
 10
716.3303267979
 20
37.1254404866
 30
0.0
 40
138.8700247489477
 50
90.0728448209
 51
93.5508899742
  0
ARC
  5
B1
  8
0
  6
CONTINUOUS
 62
     7
 10
769.2796106519
 20
-816.1579735375
 30
0.0
 40
993.7947064076848
 50
93.5508596816
 51
94.3651438736
  0
ARC
  5
B2
  8
0
  6
CONTINUOUS
 62
     7
 10
768.4797142435
 20
-805.687426015
 30
0.0
 40
983.2936493525192
 50
94.3651067533
 51
95.1894748736
  0
ARC
  5
B3
  8
0
  6
CONTINUOUS
 62
     7
 10
693.1029302808
 20
24.2515823366
 30
0.0
 40
149.9387326789321
 50
95.1894232273
 51
98.4963061084
  0
ARC
  5
B4
  8
0
  6
CONTINUOUS
 62
     7
 10
620.6243375126
 20
509.4302802776
 30
0.0
 40
340.6237152779021
 50
277.8795972238
 51
278.4963275058
  0
ARC
  5
B5
  8
0
  6
CONTINUOUS
 62
     7
 10
642.6961986137
 20
349.9502598215
 30
0.0
 40
179.6235787029648
 50
276.8840129716
 51
277.8795781742
  0
ARC
  5
B6
  8
0
  6
CONTINUOUS
 62
     7
 10
577.3896426342
 20
890.8821745152
 30
0.0
 40
724.4834529716557
 50
276.6681022049
 51
276.8839926382
  0
ARC
  5
B7
  8
0
  6
CONTINUOUS
 62
     7
 10
661.4830852544
 20
171.5730823428
 30
0.0
 40
0.2754185135415095
 50
225.0000129943
 51
276.6682600939
  0
ARC
  5
B8
  8
0
  6
CONTINUOUS
 62
     7
 10
661.4390920933
 20
171.5290898274
 30
0.0
 40
0.2132032450641935
 50
163.0919890379
 51
225.0001394858
  0
ARC
  5
B9
  8
0
  6
CONTINUOUS
 62
     7
 10
777.0791640249
 20
136.3768108961
 30
0.0
 40
121.0780407719173
 50
162.3696194604
 51
163.0917730753
  0
ARC
  5
BA
  8
0
  6
CONTINUOUS
 62
     7
 10
711.8636796421
 20
157.1024276219
 30
0.0
 40
52.64843758771394
 50
160.4149438193
 51
162.3695992377
  0
ARC
  5
BB
  8
0
  6
CONTINUOUS
 62
     7
 10
755.3340855551
 20
141.6363097871
 30
0.0
 40
98.78819258378644
 50
159.1946771704
 51
160.4150657391
  0
ARC
  5
BC
  8
0
  6
CONTINUOUS
 62
     7
 10
630.2428617158
 20
189.1672783309
 30
0.0
 40
35.02887378790342
 50
339.1947203996
 51
343.7528007265
  0
ARC
  5
BD
  8
0
  6
CONTINUOUS
 62
     7
 10
515.8003333848
 20
222.51798793
 30
0.0
 40
154.2319027827903
 50
343.7528635461
 51
345.2693461057
  0
ARC
  5
BE
  8
0
  6
CONTINUOUS
 62
     7
 10
498.4341333639
 20
227.083858874
 30
0.0
 40
172.1882966479506
 50
345.2693455632
 51
346.7762028505
  0
ARC
  5
BF
  8
0
  6
CONTINUOUS
 62
     7
 10
523.9308617823
 20
221.0923969292
 30
0.0
 40
145.997061925854
 50
346.7762352652
 51
348.4815553734
  0
ARC
  5
C0
  8
0
  6
CONTINUOUS
 62
     7
 10
765.4062212668
 20
171.882856075
 30
0.0
 40
100.4414256309651
 50
165.6804650227
 51
168.4816307806
  0
ARC
  5
C1
  8
0
  6
CONTINUOUS
 62
     7
 10
721.5521587317
 20
183.0770833391
 30
0.0
 40
55.18118342134995
 50
161.2944779482
 51
165.680507288
  0
ARC
  5
C2
  8
0
  6
CONTINUOUS
 62
     7
 10
708.1087040626
 20
187.6288904327
 30
0.0
 40
40.9880364392158
 50
156.1950846172
 51
161.2944840277
  0
ARC
  5
C3
  8
0
  6
CONTINUOUS
 62
     7
 10
691.8689780434
 20
194.7931112305
 30
0.0
 40
23.23825444568288
 50
148.395750449
 51
156.1950483377
  0
LINE
  5
C4
  8
0
  6
CONTINUOUS
 62
     7
 10
672.077234
 20
206.971097
 30
0.0
 11
675.106999
 21
211.895092
 31
0.0
  0
LINE
  5
C5
  8
0
  6
CONTINUOUS
 62
     7
 10
675.106999
 20
211.895092
 30
0.0
 11
683.425936
 21
211.308016
 31
0.0
  0
ARC
  5
C6
  8
0
  6
CONTINUOUS
 62
     7
 10
688.1668496036
 20
278.4871403636
 30
0.0
 40
67.3462026550718
 50
265.9632587394
 51
272.3022219166
  0
ARC
  5
C7
  8
0
  6
CONTINUOUS
 62
     7
 10
684.5984381197
 20
367.2493124354
 30
0.0
 40
156.1800742999574
 50
272.3021876975
 51
275.6828518342
  0
ARC
  5
C8
  8
0
  6
CONTINUOUS
 62
     7
 10
684.85513279
 20
364.6699438442
 30
0.0
 40
153.5879642555028
 50
275.6828447402
 51
279.029138813
  0
ARC
  5
C9
  8
0
  6
CONTINUOUS
 62
     7
 10
702.0225045721
 20
256.6347438732
 30
0.0
 40
44.19727412752753
 50
279.0292015469
 51
287.4877163328
  0
ARC
  5
CA
  8
0
  6
CONTINUOUS
 62
     7
 10
737.0145169918
 20
145.5714976192
 30
0.0
 40
72.24793016041912
 50
103.7214926149
 51
107.4877780817
  0
ARC
  5
CB
  8
0
  6
CONTINUOUS
 62
     7
 10
720.2010469107
 20
214.430857058
 30
0.0
 40
1.365604024142938
 50
38.8196127321
 51
103.7214978502
  0
ARC
  5
CC
  8
0
  6
CONTINUOUS
 62
     7
 10
719.2991494945
 20
213.7052058305
 30
0.0
 40
2.523182813344852
 50
358.2414901728
 51
38.8195887853
  0
ARC
  5
CD
  8
0
  6
CONTINUOUS
 62
     7
 10
448.0605217858
 20
222.0323100433
 30
0.0
 40
273.8896026700803
 50
356.8013869731
 51
358.2415547303
  0
ARC
  5
CE
  8
0
  6
CONTINUOUS
 62
     7
 10
981.6831833078
 20
403.2432939833
 30
0.0
 40
175.0843746435548
 50
233.0196595251
 51
234.0131621185
  0
ARC
  5
CF
  8
0
  6
CONTINUOUS
 62
     7
 10
949.8410929222
 20
359.3954809076
 30
0.0
 40
120.8944361713727
 50
234.0132299025
 51
235.3246013921
  0
ARC
  5
D0
  8
0
  6
CONTINUOUS
 62
     7
 10
959.2639865013
 20
373.0165134719
 30
0.0
 40
137.4571488572645
 50
235.3246378653
 51
236.2890347338
  0
ARC
  5
D1
  8
0
  6
CONTINUOUS
 62
     7
 10
885.1727407387
 20
261.967428614
 30
0.0
 40
3.960287671619881
 50
236.2890751052
 51
248.7701809707
  0
ARC
  5
D2
  8
0
  6
CONTINUOUS
 62
     7
 10
883.0919491532
 20
256.6110972281
 30
0.0
 40
1.786013707325669
 50
40.6371112137
 51
68.7701848333
  0
ARC
  5
D3
  8
0
  6
CONTINUOUS
 62
     7
 10
809.6028176
 20
193.5407031317
 30
0.0
 40
98.62880935020995
 50
39.0562207958
 51
40.6371008704
  0
ARC
  5
D4
  8
0
  6
CONTINUOUS
 62
     7
 10
824.421291666
 20
205.5646438638
 30
0.0
 40
79.54577174161555
 50
36.6991093734
 51
39.0561746339
  0
ARC
  5
D5
  8
0
  6
CONTINUOUS
 62
     7
 10
787.9326903034
 20
178.3678410863
 30
0.0
 40
125.0549368704056
 50
35.0196560978
 51
36.6990799259
  0
ARC
  5
D6
  8
0
  6
CONTINUOUS
 62
     7
 10
953.6124998486
 20
294.4627128415
 30
0.0
 40
77.25131251112283
 50
215.0195914838
 51
218.1768475562
  0
ARC
  5
D7
  8
0
  6
CONTINUOUS
 62
     7
 10
1016.786781936
 20
344.1344575128
 30
0.0
 40
157.6146880993779
 50
218.1767931291
 51
220.0287815935
  0
ARC
  5
D8
  8
0
  6
CONTINUOUS
 62
     7
 10
1016.9926777848
 20
344.3073311173
 30
0.0
 40
157.8835344882445
 50
220.0287621832
 51
221.8800631432
  0
ARC
  5
D9
  8
0
  6
CONTINUOUS
 62
     7
 10
957.9558564379
 20
291.373726058
 30
0.0
 40
78.59095716024865
 50
221.8800827487
 51
224.9999889785
  0
ARC
  5
DA
  8
0
  6
CONTINUOUS
 62
     7
 10
852.4663464313
 20
185.8842336127
 30
0.0
 40
70.59372616140725
 50
41.3505695212
 51
45.0000021915
  0
ARC
  5
DB
  8
0
  6
CONTINUOUS
 62
     7
 10
869.4099480393
 20
200.7960621515
 30
0.0
 40
48.02276548580242
 50
36.4795630628
 51
41.3505750197
  0
ARC
  5
DC
  8
0
  6
CONTINUOUS
 62
     7
 10
876.421380913
 20
205.9803620788
 30
0.0
 40
39.3028367775302
 50
31.0924816874
 51
36.4795844191
  0
ARC
  5
DD
  8
0
  6
CONTINUOUS
 62
     7
 10
887.6663918867
 20
212.7617929732
 30
0.0
 40
26.17126882944001
 50
23.786272585
 51
31.0924461661
  0
ARC
  5
DE
  8
0
  6
CONTINUOUS
 62
     7
 10
994.9252143355
 20
260.037881768
 30
0.0
 40
91.04427435841126
 50
203.7862755527
 51
207.8508703113
  0
ARC
  5
DF
  8
0
  6
CONTINUOUS
 62
     7
 10
1025.9845430746
 20
276.4488596706
 30
0.0
 40
126.1726403529533
 50
207.8508675796
 51
211.0335581115
  0
ARC
  5
E0
  8
0
  6
CONTINUOUS
 62
     7
 10
1028.8341464282
 20
278.1633919775
 30
0.0
 40
129.4982771795976
 50
211.0335753581
 51
214.1798327212
  0
ARC
  5
E1
  8
0
  6
CONTINUOUS
 62
     7
 10
1009.6338008359
 20
265.1247623861
 30
0.0
 40
106.2892459097324
 50
214.1798481467
 51
217.8283643169
  0
ARC
  5
E2
  8
0
  6
CONTINUOUS
 62
     7
 10
880.3536370558
 20
164.7422535067
 30
0.0
 40
57.38729130907525
 50
35.0478120804
 51
37.8283544161
  0
ARC
  5
E3
  8
0
  6
CONTINUOUS
 62
     7
 10
894.3902791001
 20
174.5882545817
 30
0.0
 40
40.24170712397878
 50
31.4199496961
 51
35.0478445832
  0
ARC
  5
E4
  8
0
  6
CONTINUOUS
 62
     7
 10
895.3299126099
 20
175.1623076065
 30
0.0
 40
39.14059495613682
 50
28.3412275279
 51
31.4198883404
  0
ARC
  5
E5
  8
0
  6
CONTINUOUS
 62
     7
 10
928.1559039372
 20
192.8677622202
 30
0.0
 40
1.844096062777158
 50
0.0000552981
 51
28.3412442675
  0
ARC
  5
E6
  8
0
  6
CONTINUOUS
 62
     7
 10
924.5727164204
 20
192.867759736
 30
0.0
 40
5.427283579624229
 50
316.1894026729
 51
0.0
  0
ARC
  5
E7
  8
0
  6
CONTINUOUS
 62
     7
 10
859.2819868992
 20
255.5022989398
 30
0.0
 40
95.90360569033302
 50
310.7783373638
 51
316.18949097
  0
ARC
  5
E8
  8
0
  6
CONTINUOUS
 62
     7
 10
861.5620627594
 20
252.8587189995
 30
0.0
 40
92.41257993465742
 50
304.402073077
 51
310.7783643626
  0
ARC
  5
E9
  8
0
  6
CONTINUOUS
 62
     7
 10
873.9398679495
 20
234.7828902547
 30
0.0
 40
70.50491812120873
 50
296.591742718
 51
304.4020286433
  0
ARC
  5
EA
  8
0
  6
CONTINUOUS
 62
     7
 10
883.4027970464
 20
215.8792093051
 30
0.0
 40
49.36499899811698
 50
290.548128978
 51
296.5916616778
  0
ARC
  5
EB
  8
0
  6
CONTINUOUS
 62
     7
 10
829.8979093374
 20
358.6196628805
 30
0.0
 40
201.8038723068535
 50
288.4254189272
 51
290.5480522715
  0
ARC
  5
EC
  8
0
  6
CONTINUOUS
 62
     7
 10
830.054148002
 20
358.1505053951
 30
0.0
 40
201.3093834160441
 50
286.2869896411
 51
288.425435254
  0
ARC
  5
ED
  8
0
  6
CONTINUOUS
 62
     7
 10
871.1847766952
 20
217.3758684383
 30
0.0
 40
54.64913990403409
 50
280.6454708999
 51
286.2870486709
  0
ARC
  5
EE
  8
0
  6
CONTINUOUS
 62
     7
 10
878.3022093688
 20
179.5104939069
 30
0.0
 40
16.12065127207073
 50
273.5700420151
 51
280.6454263788
  0
ARC
  5
EF
  8
0
  6
CONTINUOUS
 62
     7
 10
879.2220291958
 20
164.7674032361
 30
0.0
 40
1.348894740024858
 50
230.0547407601
 51
273.5699531935
  0
ARC
  5
F0
  8
0
  6
CONTINUOUS
 62
     7
 10
879.6680638345
 20
165.2999971614
 30
0.0
 40
2.043591211997077
 50
197.8548943173
 51
230.0547043784
  0
ARC
  5
F1
  8
0
  6
CONTINUOUS
 62
     7
 10
922.5775244416
 20
179.122043988
 30
0.0
 40
47.12430535969973
 50
194.5527809514
 51
197.8548519875
  0
ARC
  5
F2
  8
0
  6
CONTINUOUS
 62
     7
 10
809.4600374472
 20
149.756623041
 30
0.0
 40
69.74268660688517
 50
14.552820489
 51
20.4660367132
  0
ARC
  5
F3
  8
0
  6
CONTINUOUS
 62
     7
 10
757.2484321332
 20
130.2707431743
 30
0.0
 40
125.4719539952582
 50
20.4660489911
 51
24.2756382355
  0
ARC
  5
F4
  8
0
  6
CONTINUOUS
 62
     7
 10
572.412353922
 20
46.9090379347
 30
0.0
 40
328.2367184611495
 50
24.2755763178
 51
26.4085220135
  0
ARC
  5
F5
  8
0
  6
CONTINUOUS
 62
     7
 10
-1824.9694869828
 20
-1143.6050063638
 30
0.0
 40
3004.944282012322
 50
26.4085029431
 51
26.8272200339
  0
ARC
  5
F6
  8
0
  6
CONTINUOUS
 62
     7
 10
4691.8749800127
 20
2152.1800015115
 30
0.0
 40
4297.894934699916
 50
206.6505562172
 51
206.8272563662
  0
ARC
  5
F7
  8
0
  6
CONTINUOUS
 62
     7
 10
2851.5521896221
 20
1228.5843521713
 30
0.0
 40
2238.813368489336
 50
206.362732253
 51
206.6505860979
  0
POLYLINE
  5
F8
  8
0
  6
CONTINUOUS
 62
     7
 66
     1
 10
0.0
 20
0.0
 30
0.0
  0
VERTEX
  5
3E9
  8
0
  6
CONTINUOUS
 62
     7
 10
841.1164822711
 20
243.4363258809
 30
0.0
  0
VERTEX
  5
3EA
  8
0
  6
CONTINUOUS
 62
     7
 10
843.3450309856
 20
238.9350112468
 30
0.0
  0
VERTEX
  5
3EB
  8
0
  6
CONTINUOUS
 62
     7
 10
845.5747949702
 20
234.4342984914
 30
0.0
  0
SEQEND
  5
3EC
  8
0
  6
CONTINUOUS
 62
     7
  0
ARC
  5
F9
  8
0
  6
CONTINUOUS
 62
     7
 10
842.0037353175
 20
243.8754456128
 30
0.0
 40
0.9912362434613372
 50
178.7930331868
 51
206.3317519536
  0
ARC
  5
FA
  8
0
  6
CONTINUOUS
 62
     7
 10
841.4616678276
 20
243.8868670838
 30
0.0
 40
0.4490484405288188
 50
127.1760619019
 51
178.7931396517
  0
ARC
  5
FB
  8
0
  6
CONTINUOUS
 62
     7
 10
891.7520558396
 20
177.5738046587
 30
0.0
 40
83.67491806402691
 50
125.9037092861
 51
127.1758917076
  0
ARC
  5
FC
  8
0
  6
CONTINUOUS
 62
     7
 10
872.3346922744
 20
204.3941233178
 30
0.0
 40
50.56353783311096
 50
123.3836725247
 51
125.9036685281
  0
ARC
  5
FD
  8
0
  6
CONTINUOUS
 62
     7
 10
894.2278470769
 20
171.1707977349
 30
0.0
 40
90.3517218830756
 50
121.7519106023
 51
123.3836668295
  0
ARC
  5
FE
  8
0
  6
CONTINUOUS
 62
     7
 10
828.9043534715
 20
276.7245484442
 30
0.0
 40
33.78027683449875
 50
301.7518859609
 51
307.4335463066
  0
ARC
  5
FF
  8
0
  6
CONTINUOUS
 62
     7
 10
766.199408381
 20
358.6399490862
 30
0.0
 40
136.9405550482371
 50
307.4335003829
 51
309.441322311
  0
ARC
  5
100
  8
0
  6
CONTINUOUS
 62
     7
 10
756.4043989761
 20
370.5470525305
 30
0.0
 40
152.3587690068978
 50
309.4413264344
 51
311.4285234488
  0
ARC
  5
101
  8
0
  6
CONTINUOUS
 62
     7
 10
774.7112183249
 20
349.8025682579
 30
0.0
 40
124.6915815394917
 50
311.4286150037
 51
313.7380151163
  0
ARC
  5
102
  8
0
  6
CONTINUOUS
 62
     7
 10
1310.3952383793
 20
-210.0130146927
 30
0.0
 40
650.1315313426284
 50
133.3349812073
 51
133.7381138962
  0
ARC
  5
103
  8
0
  6
CONTINUOUS
 62
     7
 10
1100.8024683857
 20
12.1299753655
 30
0.0
 40
344.7192898305224
 50
132.6869024232
 51
133.3350305533
  0
ARC
  5
104
  8
0
  6
CONTINUOUS
 62
     7
 10
1976.335061935
 20
-937.109827721
 30
0.0
 40
1636.080403590198
 50
132.5666068556
 51
132.6869279815
  0
ARC
  5
105
  8
0
  6
CONTINUOUS
 62
     7
 10
869.9083521582
 20
267.5285429277
 30
0.0
 40
0.4356780624753565
 50
96.006664607
 51
132.5666262364
  0
ARC
  5
106
  8
0
  6
CONTINUOUS
 62
     7
 10
869.902158468
 20
267.5874196039
 30
0.0
 40
0.3764765017091506
 50
55.1192860218
 51
96.0068798395
  0
ARC
  5
107
  8
0
  6
CONTINUOUS
 62
     7
 10
635.3598302727
 20
-68.8610192272
 30
0.0
 40
410.5077429362173
 50
54.8116112786
 51
55.1191748384
  0
ARC
  5
108
  8
0
  6
CONTINUOUS
 62
     7
 10
795.5381988593
 20
158.3039444795
 30
0.0
 40
132.5490580585608
 50
53.7133915864
 51
54.8116286818
  0
ARC
  5
109
  8
0
  6
CONTINUOUS
 62
     7
 10
729.0921379914
 20
67.8042937339
 30
0.0
 40
244.8222329042766
 50
53.0196528772
 51
53.7133880567
  0
LINE
  5
10A
  8
0
  6
CONTINUOUS
 62
     7
 10
208.834441
 20
795.279703
 30
0.0
 11
213.168882
 21
794.5
 31
0.0
  0
LINE
  5
10B
  8
0
  6
CONTINUOUS
 62
     7
 10
213.168882
 20
794.5
 30
0.0
 11
213.542557
 21
774.5
 31
0.0
  0
ARC
  5
10C
  8
0
  6
CONTINUOUS
 62
     7
 10
-478.4660882305
 20
761.5710433006
 30
0.0
 40
692.1294120286034
 50
0.4114460514
 51
1.0703457004
  0
ARC
  5
10D
  8
0
  6
CONTINUOUS
 62
     7
 10
-295.6889964833
 20
762.8843276888
 30
0.0
 40
509.3476022587765
 50
359.582183777
 51
0.4113646801
  0
ARC
  5
10E
  8
0
  6
CONTINUOUS
 62
     7
 10
-319.884076941
 20
763.0610182389
 30
0.0
 40
533.5433278698046
 50
358.9184444342
 51
359.5821568886
  0
ARC
  5
10F
  8
0
  6
CONTINUOUS
 62
     7
 10
190.809246467
 20
753.4196685939
 30
0.0
 40
22.75900332911021
 50
352.3706236292
 51
358.9184366274
  0
LINE
  5
110
  8
0
  6
CONTINUOUS
 62
     7
 10
213.366778
 20
750.398079
 30
0.0
 11
212.817324
 21
746.296157
 31
0.0
  0
LINE
  5
111
  8
0
  6
CONTINUOUS
 62
     7
 10
212.817324
 20
746.296157
 30
0.0
 11
201.658662
 21
745.691581
 31
0.0
  0
ARC
  5
112
  8
0
  6
CONTINUOUS
 62
     7
 10
207.2768855748
 20
641.9976745423
 30
0.0
 40
103.8459949761637
 50
93.1013014873
 51
95.9980218368
  0
ARC
  5
113
  8
0
  6
CONTINUOUS
 62
     7
 10
209.7309857364
 20
618.64259003
 30
0.0
 40
127.3296612178502
 50
95.9981100486
 51
98.4841909963
  0
ARC
  5
114
  8
0
  6
CONTINUOUS
 62
     7
 10
208.8519460232
 20
624.5364566228
 30
0.0
 40
121.3706030531313
 50
98.4842573278
 51
101.0207525077
  0
ARC
  5
115
  8
0
  6
CONTINUOUS
 62
     7
 10
200.2803481548
 20
668.5488545801
 30
0.0
 40
76.53129592248331
 50
101.0208189462
 51
104.6040341856
  0
ARC
  5
116
  8
0
  6
CONTINUOUS
 62
     7
 10
145.0999693659
 20
880.3280810019
 30
0.0
 40
142.318686821665
 50
282.3070472404
 51
284.6040727145
  0
ARC
  5
117
  8
0
  6
CONTINUOUS
 62
     7
 10
168.6862697474
 20
772.2155606275
 30
0.0
 40
31.66322772728254
 50
275.2982414078
 51
282.3069964314
  0
ARC
  5
118
  8
0
  6
CONTINUOUS
 62
     7
 10
168.991442451
 20
768.92506785
 30
0.0
 40
28.35861381682026
 50
267.7731482328
 51
275.2981915511
  0
ARC
  5
119
  8
0
  6
CONTINUOUS
 62
     7
 10
171.7116858381
 20
838.8802399231
 30
0.0
 40
98.3666549540032
 50
264.7921005237
 51
267.7731463919
  0
ARC
  5
11A
  8
0
  6
CONTINUOUS
 62
     7
 10
153.3384561071
 20
637.2998079884
 30
0.0
 40
104.0493674101224
 50
84.7921276701
 51
110.5700181242
  0
ARC
  5
11B
  8
0
  6
CONTINUOUS
 62
     7
 10
154.4100924083
 20
634.4439852263
 30
0.0
 40
107.0996342842653
 50
110.5699721919
 51
135.7955514206
  0
ARC
  5
11C
  8
0
  6
CONTINUOUS
 62
     7
 10
154.9170989862
 20
633.9507276551
 30
0.0
 40
107.8069946533867
 50
135.7954986083
 51
160.9257515673
  0
ARC
  5
11D
  8
0
  6
CONTINUOUS
 62
     7
 10
153.3753597356
 20
634.4837028851
 30
0.0
 40
106.1757305733416
 50
160.9256883529
 51
186.3448366847
  0
ARC
  5
11E
  8
0
  6
CONTINUOUS
 62
     7
 10
155.1233915484
 20
634.6779569294
 30
0.0
 40
107.9345227268908
 50
186.3447759196
 51
202.4483583645
  0
ARC
  5
11F
  8
0
  6
CONTINUOUS
 62
     7
 10
153.2705088812
 20
633.9123486392
 30
0.0
 40
105.9296959943593
 50
202.4483208738
 51
218.7799407317
  0
ARC
  5
120
  8
0
  6
CONTINUOUS
 62
     7
 10
152.887198959
 20
633.604245424
 30
0.0
 40
105.4379093775294
 50
218.7798835384
 51
235.152546704
  0
ARC
  5
121
  8
0
  6
CONTINUOUS
 62
     7
 10
153.1636641969
 20
634.0011068942
 30
0.0
 40
105.9215745911262
 50
235.1524794091
 51
251.4690497912
  0
ARC
  5
122
  8
0
  6
CONTINUOUS
 62
     7
 10
149.3850063578
 20
622.7280371973
 30
0.0
 40
94.03206848472865
 50
251.4690318756
 51
259.5716320115
  0
ARC
  5
123
  8
0
  6
CONTINUOUS
 62
     7
 10
154.0995495498
 20
648.3440381655
 30
0.0
 40
120.078304740867
 50
259.5716245176
 51
266.3170562283
  0
ARC
  5
124
  8
0
  6
CONTINUOUS
 62
     7
 10
154.0054361266
 20
646.8814414567
 30
0.0
 40
118.6126832113125
 50
266.317041162
 51
273.0997971898
  0
ARC
  5
125
  8
0
  6
CONTINUOUS
 62
     7
 10
155.6827733797
 20
615.9071452018
 30
0.0
 40
87.59300415516168
 50
273.0998368411
 51
281.6132801989
  0
ARC
  5
126
  8
0
  6
CONTINUOUS
 62
     7
 10
180.6604400942
 20
494.3684375491
 30
0.0
 40
36.48576635931303
 50
96.4531683546
 51
101.6132708694
  0
ARC
  5
127
  8
0
  6
CONTINUOUS
 62
     7
 10
179.7472108297
 20
502.4424346114
 30
0.0
 40
28.36028691176654
 50
90.2202412495
 51
96.4531724501
  0
ARC
  5
128
  8
0
  6
CONTINUOUS
 62
     7
 10
179.7762282562
 20
494.9020103074
 30
0.0
 40
35.90076704872158
 50
84.7846304611
 51
90.2202929311
  0
ARC
  5
129
  8
0
  6
CONTINUOUS
 62
     7
 10
174.808878599
 20
440.4808687785
 30
0.0
 40
90.54813851271237
 50
82.0607397963
 51
84.7846820655
  0
ARC
  5
12A
  8
0
  6
CONTINUOUS
 62
     7
 10
222.9771139519
 20
785.8749748653
 30
0.0
 40
258.1885349482532
 50
262.0608295457
 51
262.8783222607
  0
ARC
  5
12B
  8
0
  6
CONTINUOUS
 62
     7
 10
247.567167747
 20
982.6864616422
 30
0.0
 40
456.530240277532
 50
262.8782892335
 51
263.4118265685
  0
ARC
  5
12C
  8
0
  6
CONTINUOUS
 62
     7
 10
245.9842735822
 20
968.9768633297
 30
0.0
 40
442.7295649469552
 50
263.4117632099
 51
263.9482799091
  0
ARC
  5
12D
  8
0
  6
CONTINUOUS
 62
     7
 10
218.9423088993
 20
713.9043495407
 30
0.0
 40
186.227605608359
 50
263.9482637316
 51
264.9729346248
  0
LINE
  5
12E
  8
0
  6
CONTINUOUS
 62
     7
 10
202.62387
 20
528.393084
 30
0.0
 11
209.747739
 21
527.766436
 31
0.0
  0
LINE
  5
12F
  8
0
  6
CONTINUOUS
 62
     7
 10
209.747739
 20
527.766436
 30
0.0
 11
210.378054
 21
521.133218
 31
0.0
  0
ARC
  5
130
  8
0
  6
CONTINUOUS
 62
     7
 10
339.5427401924
 20
533.4069566999
 30
0.0
 40
129.7465252747048
 50
185.4281724634
 51
186.7654407806
  0
ARC
  5
131
  8
0
  6
CONTINUOUS
 62
     7
 10
470.7880098633
 20
548.9765984591
 30
0.0
 40
261.9120826468555
 50
186.7654134511
 51
187.5560920714
  0
ARC
  5
132
  8
0
  6
CONTINUOUS
 62
     7
 10
470.3168395412
 20
548.9139016363
 30
0.0
 40
261.4367592559707
 50
187.5560493275
 51
188.3469571282
  0
ARC
  5
133
  8
0
  6
CONTINUOUS
 62
     7
 10
337.5152971386
 20
529.4291971636
 30
0.0
 40
127.2134253200257
 50
188.3470076498
 51
189.7026099836
  0
ARC
  5
134
  8
0
  6
CONTINUOUS
 62
     7
 10
166.2444624064
 20
500.1453371144
 30
0.0
 40
46.54285021915445
 50
5.041173778
 51
9.7025738787
  0
ARC
  5
135
  8
0
  6
CONTINUOUS
 62
     7
 10
184.8997407865
 20
501.7909828875
 30
0.0
 40
27.81512848237617
 50
358.1867245136
 51
5.0411513788
  0
ARC
  5
136
  8
0
  6
CONTINUOUS
 62
     7
 10
175.3347962472
 20
502.0937396933
 30
0.0
 40
37.38486336484998
 50
352.4607099817
 51
358.1868043181
  0
ARC
  5
137
  8
0
  6
CONTINUOUS
 62
     7
 10
79.0009439605
 20
514.8435186025
 30
0.0
 40
134.5587691144349
 50
350.2530675878
 51
352.4607202795
  0
ARC
  5
138
  8
0
  6
CONTINUOUS
 62
     7
 10
356.8547428338
 20
467.1147955218
 30
0.0
 40
147.3645618732646
 50
170.2530585374
 51
171.7961251541
  0
ARC
  5
139
  8
0
  6
CONTINUOUS
 62
     7
 10
365.541769694
 20
465.8624090748
 30
0.0
 40
156.1414011381685
 50
171.7961371196
 51
173.2736602114
  0
ARC
  5
13A
  8
0
  6
CONTINUOUS
 62
     7
 10
348.249209467
 20
467.9018149782
 30
0.0
 40
138.7289970641217
 50
173.2736344303
 51
174.7413030549
  0
ARC
  5
13B
  8
0
  6
CONTINUOUS
 62
     7
 10
234.7367417964
 20
478.349491483
 30
0.0
 40
24.7367417964235
 50
174.7412342473
 51
180.0000636567
  0
ARC
  5
13C
  8
0
  6
CONTINUOUS
 62
     7
 10
183.2015392832
 20
478.3494488602
 30
0.0
 40
26.79846071678831
 50
354.8298509183
 51
0.0000323692
  0
ARC
  5
13D
  8
0
  6
CONTINUOUS
 62
     7
 10
206.0051819977
 20
476.2861274536
 30
0.0
 40
3.901661458473223
 50
333.3891424002
 51
354.8299357964
  0
ARC
  5
13E
  8
0
  6
CONTINUOUS
 62
     7
 10
206.9275291685
 20
475.8240273276
 30
0.0
 40
2.870031277701749
 50
307.1047818624
 51
333.3892215123
  0
ARC
  5
13F
  8
0
  6
CONTINUOUS
 62
     7
 10
202.0986785457
 20
482.2077791141
 30
0.0
 40
10.87441040473913
 50
297.3443597084
 51
307.104863754
  0
ARC
  5
140
  8
0
  6
CONTINUOUS
 62
     7
 10
191.6339662008
 20
502.4442335348
 30
0.0
 40
33.65651504808952
 50
287.1156853751
 51
297.3444354523
  0
ARC
  5
141
  8
0
  6
CONTINUOUS
 62
     7
 10
161.0219801189
 20
601.8527589563
 30
0.0
 40
137.6716515347887
 50
283.5247347485
 51
287.1157403051
  0
ARC
  5
142
  8
0
  6
CONTINUOUS
 62
     7
 10
157.6780230894
 20
615.7549912216
 30
0.0
 40
151.9703966046455
 50
279.9598416894
 51
283.5247267379
  0
ARC
  5
143
  8
0
  6
CONTINUOUS
 62
     7
 10
163.6472382017
 20
581.7626096993
 30
0.0
 40
117.4578839373677
 50
275.6354384681
 51
279.9598398101
  0
ARC
  5
144
  8
0
  6
CONTINUOUS
 62
     7
 10
157.0468781801
 20
648.6506888097
 30
0.0
 40
184.6708282224607
 50
269.7845667825
 51
275.6354862525
  0
ARC
  5
145
  8
0
  6
CONTINUOUS
 62
     7
 10
159.4119873608
 20
1277.7132421276
 30
0.0
 40
813.7378276178006
 50
267.8390913394
 51
269.7845800967
  0
ARC
  5
146
  8
0
  6
CONTINUOUS
 62
     7
 10
173.810466849
 20
1659.3009555194
 30
0.0
 40
1195.597093870631
 50
266.5231323892
 51
267.8390873905
  0
ARC
  5
147
  8
0
  6
CONTINUOUS
 62
     7
 10
103.3379198162
 20
499.3997064243
 30
0.0
 40
33.55695362688631
 50
249.1832669967
 51
266.5231018304
  0
ARC
  5
148
  8
0
  6
CONTINUOUS
 62
     7
 10
93.7564762653
 20
474.1985153071
 30
0.0
 40
6.595794633967874
 50
238.7183698432
 51
249.1831551386
  0
ARC
  5
149
  8
0
  6
CONTINUOUS
 62
     7
 10
106.7236918414
 20
495.5412926093
 30
0.0
 40
31.56903676960767
 50
235.4420021046
 51
238.7184099184
  0
ARC
  5
14A
  8
0
  6
CONTINUOUS
 62
     7
 10
109.1466685429
 20
499.0591679964
 30
0.0
 40
35.84060127624965
 50
232.1981827278
 51
235.4420531238
  0
ARC
  5
14B
  8
0
  6
CONTINUOUS
 62
     7
 10
107.1686635896
 20
496.509331925
 30
0.0
 40
32.61350233363844
 50
228.7164990007
 51
232.1982102385
  0
ARC
  5
14C
  8
0
  6
CONTINUOUS
 62
     7
 10
104.0657217529
 20
492.9752731069
 30
0.0
 40
27.91054371464711
 50
219.6558810588
 51
228.7164958567
  0
ARC
  5
14D
  8
0
  6
CONTINUOUS
 62
     7
 10
267.7571412063
 20
628.6614558361
 30
0.0
 40
240.5266790061114
 50
217.7988024667
 51
219.6558326296
  0
ARC
  5
14E
  8
0
  6
CONTINUOUS
 62
     7
 10
675.5641866455
 20
944.9752548287
 30
0.0
 40
756.6284187270209
 50
216.8080429062
 51
217.7987953537
  0
ARC
  5
14F
  8
0
  6
CONTINUOUS
 62
     7
 10
9256.9280242038
 20
7366.5546058044
 30
0.0
 40
11474.67332782374
 50
216.6719882595
 51
216.8081230156
  0
ARC
  5
150
  8
0
  6
CONTINUOUS
 62
     7
 10
202.0426883451
 20
624.1351092609
 30
0.0
 40
185.2460122811767
 50
211.1080806558
 51
216.6720117735
  0
ARC
  5
151
  8
0
  6
CONTINUOUS
 62
     7
 10
88.7645266925
 20
555.7795838888
 30
0.0
 40
52.94174267402042
 50
196.9728485341
 51
211.1081011171
  0
ARC
  5
152
  8
0
  6
CONTINUOUS
 62
     7
 10
104.3269830745
 20
560.5294229368
 30
0.0
 40
69.21291410157194
 50
185.122492382
 51
196.9728339581
  0
ARC
  5
153
  8
0
  6
CONTINUOUS
 62
     7
 10
473.5678079636
 20
593.6290125997
 30
0.0
 40
439.9343318812198
 50
182.1010669802
 51
185.1224421604
  0
ARC
  5
154
  8
0
  6
CONTINUOUS
 62
     7
 10
-877.8532341218
 20
544.0492313106
 30
0.0
 40
912.3958747265292
 50
2.1010808377
 51
2.8032957139
  0
ARC
  5
155
  8
0
  6
CONTINUOUS
 62
     7
 10
-1608.210316177
 20
508.2859152607
 30
0.0
 40
1643.628041745145
 50
2.8033230083
 51
3.2552715313
  0
ARC
  5
156
  8
0
  6
CONTINUOUS
 62
     7
 10
-1564.7197971715
 20
510.759597618
 30
0.0
 40
1600.06722968013
 50
3.2552680482
 51
3.7095083934
  0
ARC
  5
157
  8
0
  6
CONTINUOUS
 62
     7
 10
-653.8619486479
 20
569.8141221706
 30
0.0
 40
687.2970192289682
 50
3.7094920391
 51
4.5636535652
  0
ARC
  5
158
  8
0
  6
CONTINUOUS
 62
     7
 10
533.5862151987
 20
664.595998438
 30
0.0
 40
503.9278738502159
 50
182.0622394237
 51
184.5636738225
  0
ARC
  5
159
  8
0
  6
CONTINUOUS
 62
     7
 10
674.8501301732
 20
669.6835749438
 30
0.0
 40
645.283372887293
 50
179.9841425153
 51
182.0623180692
  0
ARC
  5
15A
  8
0
  6
CONTINUOUS
 62
     7
 10
624.5405805043
 20
669.6986642036
 30
0.0
 40
594.9738209700928
 50
177.9484746428
 51
179.9842547353
  0
ARC
  5
15B
  8
0
  6
CONTINUOUS
 62
     7
 10
140.5193558177
 20
687.0369992808
 30
0.0
 40
110.6421538139074
 50
170.8726958998
 51
177.948538193
  0
ARC
  5
15C
  8
0
  6
CONTINUOUS
 62
     7
 10
160.6302370859
 20
683.8060634345
 30
0.0
 40
131.0109164619637
 50
163.7364660638
 51
170.872754551
  0
ARC
  5
15D
  8
0
  6
CONTINUOUS
 62
     7
 10
134.7758463844
 20
691.348691738
 30
0.0
 40
104.0787654106681
 50
155.2562795371
 51
163.7365369993
  0
ARC
  5
15E
  8
0
  6
CONTINUOUS
 62
     7
 10
122.2084116828
 20
697.1406072754
 30
0.0
 40
90.24089344399493
 50
146.141615699
 51
155.2562327158
  0
ARC
  5
15F
  8
0
  6
CONTINUOUS
 62
     7
 10
101.9794062465
 20
710.7125172022
 30
0.0
 40
65.88089754924152
 50
134.6025368333
 51
146.1415431214
  0
ARC
  5
160
  8
0
  6
CONTINUOUS
 62
     7
 10
136.4947481226
 20
675.7149358392
 30
0.0
 40
115.0351397475106
 50
127.7105514773
 51
134.602530579
  0
ARC
  5
161
  8
0
  6
CONTINUOUS
 62
     7
 10
137.3001932767
 20
674.673115141
 30
0.0
 40
116.3520043040341
 50
120.8771626531
 51
127.7105234682
  0
ARC
  5
162
  8
0
  6
CONTINUOUS
 62
     7
 10
146.1589905306
 20
659.8577699051
 30
0.0
 40
133.6138913168989
 50
114.5354567216
 51
120.8771679919
  0
ARC
  5
163
  8
0
  6
CONTINUOUS
 62
     7
 10
177.8631195578
 20
590.4038860387
 30
0.0
 40
209.9617385784107
 50
110.0154676504
 51
114.535518501
  0
ARC
  5
164
  8
0
  6
CONTINUOUS
 62
     7
 10
159.4709928886
 20
640.8937045113
 30
0.0
 40
156.2263490031904
 50
104.1302283508
 51
110.0155027561
  0
ARC
  5
165
  8
0
  6
CONTINUOUS
 62
     7
 10
150.6532998544
 20
675.9207953638
 30
0.0
 40
120.1064264671855
 50
96.9626428209
 51
104.1302988285
  0
ARC
  5
166
  8
0
  6
CONTINUOUS
 62
     7
 10
157.4777116534
 20
620.0402015415
 30
0.0
 40
176.4021932914566
 50
91.2681943059
 51
96.9626810022
  0
ARC
  5
167
  8
0
  6
CONTINUOUS
 62
     7
 10
167.8413867867
 20
151.8616079865
 30
0.0
 40
644.6954787710298
 50
89.097140013
 51
91.2681267521
  0
ARC
  5
168
  8
0
  6
CONTINUOUS
 62
     7
 10
161.3649954165
 20
-259.0813238008
 30
0.0
 40
1055.689440808213
 50
88.5289817843
 51
89.0971255701
  0
ARC
  5
169
  8
0
  6
CONTINUOUS
 62
     7
 10
169.8522962828
 20
71.3837770204
 30
0.0
 40
725.1153687227196
 50
87.7761999752
 51
88.5290638099
  0
ARC
  5
16A
  8
0
  6
CONTINUOUS
 62
     7
 10
165.0677397394
 20
-51.8470439513
 30
0.0
 40
848.4390372466469
 50
87.2372135025
 51
87.7762512022
  0
ARC
  5
16B
  8
0
  6
CONTINUOUS
 62
     7
 10
204.889300175
 20
773.3483082815
 30
0.0
 40
22.28340661634196
 50
79.8023785576
 51
87.23721988
  0
ARC
  5
16C
  8
0
  6
CONTINUOUS
 62
     7
 10
647.7963966965
 20
1014.0093122233
 30
0.0
 40
141.8129744430748
 50
100.2960245002
 51
103.2695086018
  0
ARC
  5
16D
  8
0
  6
CONTINUOUS
 62
     7
 10
638.5760647916
 20
1053.1068834681
 30
0.0
 40
101.6429035235927
 50
103.2694952205
 51
107.0861871749
  0
ARC
  5
16E
  8
0
  6
CONTINUOUS
 62
     7
 10
636.5588872325
 20
1059.6694582691
 30
0.0
 40
94.77730862416774
 50
107.0861885385
 51
111.0485989722
  0
ARC
  5
16F
  8
0
  6
CONTINUOUS
 62
     7
 10
639.8702269695
 20
1051.0654381597
 30
0.0
 40
103.9965348860432
 50
111.0486965223
 51
114.7446414188
  0
ARC
  5
170
  8
0
  6
CONTINUOUS
 62
     7
 10
640.2745653145
 20
1050.1884381305
 30
0.0
 40
104.9622566541791
 50
114.7447084652
 51
129.0975299515
  0
ARC
  5
171
  8
0
  6
CONTINUOUS
 62
     7
 10
641.9142356402
 20
1048.1705853092
 30
0.0
 40
107.5623044968693
 50
129.0975093886
 51
143.1893821077
  0
ARC
  5
172
  8
0
  6
CONTINUOUS
 62
     7
 10
640.9634463177
 20
1048.8821203199
 30
0.0
 40
106.3747513793222
 50
143.1893729991
 51
157.3634382851
  0
ARC
  5
173
  8
0
  6
CONTINUOUS
 62
     7
 10
635.084762828
 20
1051.333649935
 30
0.0
 40
100.0053780175277
 50
157.3634739102
 51
172.2093246517
  0
ARC
  5
174
  8
0
  6
CONTINUOUS
 62
     7
 10
345.423865766
 20
1090.964175839
 30
0.0
 40
192.354013605524
 50
349.9757934437
 51
352.2093413966
  0
ARC
  5
175
  8
0
  6
CONTINUOUS
 62
     7
 10
516.1634638771
 20
1060.7838061982
 30
0.0
 40
18.96755198059109
 50
337.7393961349
 51
349.9757599772
  0
ARC
  5
176
  8
0
  6
CONTINUOUS
 62
     7
 10
529.7160017681
 20
1055.2363951552
 30
0.0
 40
4.323609459324191
 50
307.1081994393
 51
337.7393125121
  0
ARC
  5
177
  8
0
  6
CONTINUOUS
 62
     7
 10
531.0148724068
 20
1053.5194899045
 30
0.0
 40
2.170744257791777
 50
255.9107081214
 51
307.1082180458
  0
ARC
  5
178
  8
0
  6
CONTINUOUS
 62
     7
 10
518.0610701995
 20
1001.9073728304
 30
0.0
 40
51.04214535085066
 50
75.910720688
 51
81.7162912411
  0
ARC
  5
179
  8
0
  6
CONTINUOUS
 62
     7
 10
504.4525312887
 20
908.4369606275
 30
0.0
 40
145.4980095872335
 50
81.7163606368
 51
84.373848963
  0
ARC
  5
17A
  8
0
  6
CONTINUOUS
 62
     7
 10
502.7672517735
 20
891.3298064777
 30
0.0
 40
162.6879743967076
 50
84.3738402398
 51
86.9483750872
  0
ARC
  5
17B
  8
0
  6
CONTINUOUS
 62
     7
 10
504.1686535535
 20
917.6191475972
 30
0.0
 40
136.3613076226849
 50
86.9483256859
 51
89.8872088942
  0
ARC
  5
17C
  8
0
  6
CONTINUOUS
 62
     7
 10
505.0342191093
 20
1357.1874892984
 30
0.0
 40
303.2078862816726
 50
268.6945052344
 51
269.8871634144
  0
ARC
  5
17D
  8
0
  6
CONTINUOUS
 62
     7
 10
498.4505819444
 20
1068.2927937697
 30
0.0
 40
14.23818305492242
 50
257.6883509737
 51
268.6944230321
  0
ARC
  5
17E
  8
0
  6
CONTINUOUS
 62
     7
 10
496.5036617214
 20
1059.3721111311
 30
0.0
 40
5.107516206721084
 50
235.4871536291
 51
257.6883165148
  0
ARC
  5
17F
  8
0
  6
CONTINUOUS
 62
     7
 10
500.3636400819
 20
1064.9857208295
 30
0.0
 40
11.92015496054065
 50
223.7019641915
 51
235.4871620989
  0
ARC
  5
180
  8
0
  6
CONTINUOUS
 62
     7
 10
506.6544638508
 20
1070.997785593
 30
0.0
 40
20.62184367082593
 50
211.327593276
 51
223.7019850353
  0
ARC
  5
181
  8
0
  6
CONTINUOUS
 62
     7
 10
513.1319697072
 20
1074.9404722446
 30
0.0
 40
28.20490770539829
 50
201.5422011625
 51
211.3276407701
  0
ARC
  5
182
  8
0
  6
CONTINUOUS
 62
     7
 10
513.5846922
 20
1075.1192088661
 30
0.0
 40
28.69163600234279
 50
191.8343498332
 51
201.5422367969
  0
ARC
  5
183
  8
0
  6
CONTINUOUS
 62
     7
 10
507.657994412
 20
1073.8773476853
 30
0.0
 40
22.6362280175492
 50
180.2381916074
 51
191.8343478357
  0
ARC
  5
184
  8
0
  6
CONTINUOUS
 62
     7
 10
504.6750983569
 20
1073.8649548158
 30
0.0
 40
19.65330621858895
 50
166.6372886924
 51
180.2382142892
  0
ARC
  5
185
  8
0
  6
CONTINUOUS
 62
     7
 10
514.353819778
 20
1071.5658308104
 30
0.0
 40
29.60135223470277
 50
156.6309031102
 51
166.6373210796
  0
ARC
  5
186
  8
0
  6
CONTINUOUS
 62
     7
 10
524.5802688517
 20
1067.1470030496
 30
0.0
 40
40.74165292349464
 50
148.1934507467
 51
156.630909322
  0
ARC
  5
187
  8
0
  6
CONTINUOUS
 62
     7
 10
558.4303342474
 20
1046.15379214
 30
0.0
 40
80.57307056820534
 50
143.1279996645
 51
148.1934966521
  0
ARC
  5
188
  8
0
  6
CONTINUOUS
 62
     7
 10
454.3533370043
 20
1124.2174681708
 30
0.0
 40
49.52673293126196
 50
323.128036725
 51
329.0836234045
  0
ARC
  5
189
  8
0
  6
CONTINUOUS
 62
     7
 10
478.5154905197
 20
1109.7473571084
 30
0.0
 40
21.36303685528753
 50
329.0835751637
 51
340.2480998322
  0
ARC
  5
18A
  8
0
  6
CONTINUOUS
 62
     7
 10
474.9743964992
 20
1111.0188850802
 30
0.0
 40
25.12550017671504
 50
340.2480725103
 51
350.3434713556
  0
ARC
  5
18B
  8
0
  6
CONTINUOUS
 62
     7
 10
414.6846379109
 20
1121.2772808595
 30
0.0
 40
86.28177274619429
 50
350.3435027879
 51
354.3723561257
  0
ARC
  5
18C
  8
0
  6
CONTINUOUS
 62
     7
 10
463.7888059651
 20
1116.4386394177
 30
0.0
 40
36.93978483228113
 50
354.3723795122
 51
7.9794712758
  0
ARC
  5
18D
  8
0
  6
CONTINUOUS
 62
     7
 10
473.8476967891
 20
1117.8486418293
 30
0.0
 40
26.78255137977658
 50
7.9794870835
 51
25.2949392347
  0
ARC
  5
18E
  8
0
  6
CONTINUOUS
 62
     7
 10
469.7044262623
 20
1115.8905852293
 30
0.0
 40
31.36520086524206
 50
25.29492158
 51
41.0823914475
  0
ARC
  5
18F
  8
0
  6
CONTINUOUS
 62
     7
 10
444.7559552809
 20
1094.1401838693
 30
0.0
 40
64.46363230284959
 50
41.0823657057
 51
50.2928570448
  0
ARC
  5
190
  8
0
  6
CONTINUOUS
 62
     7
 10
442.0333345222
 20
1090.8614954519
 30
0.0
 40
68.72537625686516
 50
50.2929143594
 51
54.1565756632
  0
ARC
  5
191
  8
0
  6
CONTINUOUS
 62
     7
 10
477.5812057817
 20
1140.0711652538
 30
0.0
 40
8.019175971483662
 50
54.156640711
 51
72.9327456392
  0
ARC
  5
192
  8
0
  6
CONTINUOUS
 62
     7
 10
479.3384511526
 20
1145.7948169197
 30
0.0
 40
2.031847711978742
 50
72.932754845
 51
117.9743393581
  0
ARC
  5
193
  8
0
  6
CONTINUOUS
 62
     7
 10
479.4652325767
 20
1145.55611525
 30
0.0
 40
2.302129077628195
 50
117.9743084016
 51
159.0063853785
  0
ARC
  5
194
  8
0
  6
CONTINUOUS
 62
     7
 10
478.520009748
 20
1145.9188295397
 30
0.0
 40
1.289702363347487
 50
159.0063065256
 51
208.7714966903
  0
ARC
  5
195
  8
0
  6
CONTINUOUS
 62
     7
 10
487.330665569
 20
1150.7568183577
 30
0.0
 40
11.34125904873548
 50
208.7714791107
 51
218.8380567191
  0
ARC
  5
196
  8
0
  6
CONTINUOUS
 62
     7
 10
497.9997337169
 20
1159.3466052906
 30
0.0
 40
25.03846513965811
 50
218.8379890138
 51
225.6995141958
  0
ARC
  5
197
  8
0
  6
CONTINUOUS
 62
     7
 10
561.6630238128
 20
1224.5837137716
 30
0.0
 40
116.1916045743695
 50
225.6995203558
 51
227.8966315976
  0
ARC
  5
198
  8
0
  6
CONTINUOUS
 62
     7
 10
433.0417318646
 20
1082.2525559856
 30
0.0
 40
75.64581414036991
 50
41.8501092383
 51
47.8966192463
  0
ARC
  5
199
  8
0
  6
CONTINUOUS
 62
     7
 10
472.3524747277
 20
1117.4623355203
 30
0.0
 40
22.87211728933758
 50
27.1119711558
 51
41.8500974643
  0
ARC
  5
19A
  8
0
  6
CONTINUOUS
 62
     7
 10
476.4545715313
 20
1119.5625467532
 30
0.0
 40
18.26363756076992
 50
10.1853814806
 51
27.112025283
  0
ARC
  5
19B
  8
0
  6
CONTINUOUS
 62
     7
 10
459.2032182189
 20
1116.4630585289
 30
0.0
 40
35.79121635425106
 50
359.9539239575
 51
10.1854187559
  0
ARC
  5
19C
  8
0
  6
CONTINUOUS
 62
     7
 10
431.5471743086
 20
1116.4853532492
 30
0.0
 40
63.44726925090362
 50
354.3248945893
 51
359.9538749081
  0
ARC
  5
19D
  8
0
  6
CONTINUOUS
 62
     7
 10
469.4965270952
 20
1112.7141774297
 30
0.0
 40
25.31099853671416
 50
343.1431749408
 51
354.3248475223
  0
ARC
  5
19E
  8
0
  6
CONTINUOUS
 62
     7
 10
472.6720898505
 20
1111.7519776057
 30
0.0
 40
21.99286241621419
 50
330.982235714
 51
343.1431831927
  0
ARC
  5
19F
  8
0
  6
CONTINUOUS
 62
     7
 10
458.2954320979
 20
1119.7268999233
 30
0.0
 40
38.4332904552417
 50
322.9757960671
 51
330.9822581364
  0
ARC
  5
1A0
  8
0
  6
CONTINUOUS
 62
     7
 10
532.1772905423
 20
1064.0040209863
 30
0.0
 40
54.10625916665686
 50
142.975832876
 51
149.6145562892
  0
ARC
  5
1A1
  8
0
  6
CONTINUOUS
 62
     7
 10
558.6912716512
 20
1048.4574728304
 30
0.0
 40
84.84200958537019
 50
149.6145905907
 51
154.3538801793
  0
ARC
  5
1A2
  8
0
  6
CONTINUOUS
 62
     7
 10
558.2600437268
 20
1048.6645692261
 30
0.0
 40
84.36363061745317
 50
154.3539166889
 51
158.6906895009
  0
ARC
  5
1A3
  8
0
  6
CONTINUOUS
 62
     7
 10
488.7038910217
 20
1075.7963972092
 30
0.0
 40
9.703102432550622
 50
158.6906647721
 51
179.9833258181
  0
ARC
  5
1A4
  8
0
  6
CONTINUOUS
 62
     7
 10
503.827279509
 20
1075.7919876178
 30
0.0
 40
24.82649156274641
 50
179.9833064501
 51
189.9490072264
  0
ARC
  5
1A5
  8
0
  6
CONTINUOUS
 62
     7
 10
520.4387489896
 20
1078.7058182358
 30
0.0
 40
41.6915835333001
 50
189.9490365965
 51
196.7082073613
  0
ARC
  5
1A6
  8
0
  6
CONTINUOUS
 62
     7
 10
522.8174176632
 20
1079.4197591962
 30
0.0
 40
44.17508435878085
 50
196.7081262914
 51
203.3037991874
  0
ARC
  5
1A7
  8
0
  6
CONTINUOUS
 62
     7
 10
514.9584185543
 20
1076.0345042909
 30
0.0
 40
35.61799269348728
 50
203.3037735154
 51
211.0549983228
  0
LINE
  5
1A8
  8
0
  6
CONTINUOUS
 62
     7
 10
484.445463
 20
1057.660584
 30
0.0
 11
487.760881
 21
1052.154788
 31
0.0
  0
LINE
  5
1A9
  8
0
  6
CONTINUOUS
 62
     7
 10
487.760881
 20
1052.154788
 30
0.0
 11
483.13044
 21
1051.545853
 31
0.0
  0
ARC
  5
1AA
  8
0
  6
CONTINUOUS
 62
     7
 10
480.7282063956
 20
1069.8129414598
 30
0.0
 40
18.42436558173803
 50
271.1612650392
 51
277.4917549179
  0
ARC
  5
1AB
  8
0
  6
CONTINUOUS
 62
     7
 10
480.524429636
 20
1079.8664296272
 30
0.0
 40
28.47991873903695
 50
266.5933051362
 51
271.1612364312
  0
ARC
  5
1AC
  8
0
  6
CONTINUOUS
 62
     7
 10
480.427507653
 20
1078.2387793545
 30
0.0
 40
26.84938530481545
 50
261.9583160335
 51
266.5933709155
  0
ARC
  5
1AD
  8
0
  6
CONTINUOUS
 62
     7
 10
478.1497180917
 20
1062.1166061139
 30
0.0
 40
10.56710059763173
 50
252.6583802125
 51
261.9583360895
  0
ARC
  5
1AE
  8
0
  6
CONTINUOUS
 62
     7
 10
471.2373013516
 20
1039.9800683106
 30
0.0
 40
12.62358311601628
 50
72.6583410591
 51
82.2616771356
  0
ARC
  5
1AF
  8
0
  6
CONTINUOUS
 62
     7
 10
454.1065819507
 20
913.9139578216
 30
0.0
 40
139.8482888967928
 50
82.2616597892
 51
83.9080829858
  0
ARC
  5
1B0
  8
0
  6
CONTINUOUS
 62
     7
 10
452.8202147052
 20
901.8625310047
 30
0.0
 40
151.9681745806112
 50
83.9080227022
 51
85.6924064025
  0
ARC
  5
1B1
  8
0
  6
CONTINUOUS
 62
     7
 10
450.7700052683
 20
874.6481014988
 30
0.0
 40
179.2597214767538
 50
85.6923047436
 51
87.2688305456
  0
LINE
  5
1B2
  8
0
  6
CONTINUOUS
 62
     7
 10
459.311704
 20
1053.704202
 30
0.0
 11
447.123407
 21
1054.285644
 31
0.0
  0
LINE
  5
1B3
  8
0
  6
CONTINUOUS
 62
     7
 10
447.123407
 20
1054.285644
 30
0.0
 11
444.902261
 21
1059.392822
 31
0.0
  0
ARC
  5
1B4
  8
0
  6
CONTINUOUS
 62
     7
 10
466.0685853627
 20
1068.5982073133
 30
0.0
 40
23.08142989054955
 50
196.5468709017
 51
203.5045655253
  0
ARC
  5
1B5
  8
0
  6
CONTINUOUS
 62
     7
 10
482.4862437382
 20
1073.4759204588
 30
0.0
 40
40.2083558279067
 50
191.9553004431
 51
196.5468281744
  0
ARC
  5
1B6
  8
0
  6
CONTINUOUS
 62
     7
 10
487.8052306506
 20
1074.602109844
 30
0.0
 40
45.64525975412997
 50
187.6177669051
 51
191.9552270204
  0
ARC
  5
1B7
  8
0
  6
CONTINUOUS
 62
     7
 10
490.5465202803
 20
1074.9687823374
 30
0.0
 40
48.41096356143449
 50
183.4675334577
 51
187.6178151728
  0
ARC
  5
1B8
  8
0
  6
CONTINUOUS
 62
     7
 10
522.7897377199
 20
1076.9225806063
 30
0.0
 40
80.71332258564573
 50
180.0775151659
 51
183.4675737603
  0
ARC
  5
1B9
  8
0
  6
CONTINUOUS
 62
     7
 10
454.3728165559
 20
1076.8300103681
 30
0.0
 40
12.29633879650752
 50
166.4694666547
 51
180.0774719228
  0
ARC
  5
1BA
  8
0
  6
CONTINUOUS
 62
     7
 10
457.6421004377
 20
1076.0432729757
 30
0.0
 40
15.65895278327751
 50
154.9759211016
 51
166.4694350103
  0
ARC
  5
1BB
  8
0
  6
CONTINUOUS
 62
     7
 10
601.861062214
 20
1008.7187599021
 30
0.0
 40
174.8183037383228
 50
153.0161336166
 51
154.9758306959
  0
ARC
  5
1BC
  8
0
  6
CONTINUOUS
 62
     7
 10
329.9787460422
 20
1147.1534338947
 30
0.0
 40
130.2786526712199
 50
333.0160809491
 51
335.6064274238
  0
ARC
  5
1BD
  8
0
  6
CONTINUOUS
 62
     7
 10
430.1486182634
 20
1101.7278935171
 30
0.0
 40
20.29009408720765
 50
335.6064780834
 51
345.8404888737
  0
ARC
  5
1BE
  8
0
  6
CONTINUOUS
 62
     7
 10
428.4269889323
 20
1102.1622014793
 30
0.0
 40
22.0656590560381
 50
345.8405819056
 51
355.5024852765
  0
ARC
  5
1BF
  8
0
  6
CONTINUOUS
 62
     7
 10
280.0906769942
 20
1113.8299022207
 30
0.0
 40
170.8601370449347
 50
355.5025341139
 51
357.6402922373
  0
ARC
  5
1C0
  8
0
  6
CONTINUOUS
 62
     7
 10
220.0179914774
 20
1116.305712613
 30
0.0
 40
230.9838194189095
 50
357.6402087396
 51
359.2435476759
  0
ARC
  5
1C1
  8
0
  6
CONTINUOUS
 62
     7
 10
432.0719906712
 20
1113.5059177808
 30
0.0
 40
18.91133788212972
 50
359.2434612819
 51
9.2638327508
  0
ARC
  5
1C2
  8
0
  6
CONTINUOUS
 62
     7
 10
438.0386490966
 20
1114.4791259085
 30
0.0
 40
12.8658315488741
 50
9.2638445352
 51
22.3542810203
  0
ARC
  5
1C3
  8
0
  6
CONTINUOUS
 62
     7
 10
388.0105618606
 20
1093.9056238675
 30
0.0
 40
66.95907048616033
 50
22.3543590558
 51
26.2109176983
  0
ARC
  5
1C4
  8
0
  6
CONTINUOUS
 62
     7
 10
417.1973535432
 20
1108.2742282535
 30
0.0
 40
34.42715383916396
 50
26.2108973209
 51
40.5534459338
  0
ARC
  5
1C5
  8
0
  6
CONTINUOUS
 62
     7
 10
411.4145359669
 20
1103.3259281627
 30
0.0
 40
42.03810994917092
 50
40.553415627
 51
52.9010708889
  0
ARC
  5
1C6
  8
0
  6
CONTINUOUS
 62
     7
 10
407.3935890474
 20
1098.0089870333
 30
0.0
 40
48.70428404688409
 50
52.9011345599
 51
64.3246935951
  0
ARC
  5
1C7
  8
0
  6
CONTINUOUS
 62
     7
 10
400.0632000874
 20
1082.7605384387
 30
0.0
 40
65.62320206316309
 50
64.3247734123
 51
73.4602130485
  0
ARC
  5
1C8
  8
0
  6
CONTINUOUS
 62
     7
 10
397.3697603993
 20
1073.6904221144
 30
0.0
 40
75.08478900618127
 50
73.4602888515
 51
75.7511270014
  0
ARC
  5
1C9
  8
0
  6
CONTINUOUS
 62
     7
 10
414.3186099676
 20
1140.4321786029
 30
0.0
 40
6.22460050186237
 50
75.7511289833
 51
89.942773873
  0
ARC
  5
1CA
  8
0
  6
CONTINUOUS
 62
     7
 10
414.3224562406
 20
1144.2817686401
 30
0.0
 40
2.375008543155616
 50
89.9428067204
 51
116.6216288735
  0
ARC
  5
1CB
  8
0
  6
CONTINUOUS
 62
     7
 10
415.0088438715
 20
1142.9123761254
 30
0.0
 40
3.906793070803189
 50
116.6216321572
 51
134.9999792275
  0
ARC
  5
1CC
  8
0
  6
CONTINUOUS
 62
     7
 10
414.5516221164
 20
1143.369598261
 30
0.0
 40
3.260183594618298
 50
134.9999798356
 51
164.6197402141
  0
ARC
  5
1CD
  8
0
  6
CONTINUOUS
 62
     7
 10
412.6476423899
 20
1143.8933357459
 30
0.0
 40
1.285483680227117
 50
164.6197306336
 51
223.763514167
  0
ARC
  5
1CE
  8
0
  6
CONTINUOUS
 62
     7
 10
415.309132455
 20
1146.4423580089
 30
0.0
 40
4.970730464883445
 50
223.7634849628
 51
247.9361473386
  0
ARC
  5
1CF
  8
0
  6
CONTINUOUS
 62
     7
 10
435.6756786738
 20
1196.689797621
 30
0.0
 40
59.18882147202288
 50
247.9360622555
 51
251.8741864953
  0
ARC
  5
1D0
  8
0
  6
CONTINUOUS
 62
     7
 10
395.4942671187
 20
1073.9421152405
 30
0.0
 40
69.96821226731987
 50
64.1723574946
 51
71.8741349921
  0
ARC
  5
1D1
  8
0
  6
CONTINUOUS
 62
     7
 10
404.9344759359
 20
1093.4459894651
 30
0.0
 40
48.29983317995701
 50
54.0047382667
 51
64.1724175367
  0
ARC
  5
1D2
  8
0
  6
CONTINUOUS
 62
     7
 10
409.9770535381
 20
1100.3876696392
 30
0.0
 40
39.71994317401769
 50
42.7439918617
 51
54.0047718566
  0
ARC
  5
1D3
  8
0
  6
CONTINUOUS
 62
     7
 10
417.9232183739
 20
1107.7314824676
 30
0.0
 40
28.89990978882286
 50
28.4518971748
 51
42.7439937284
  0
ARC
  5
1D4
  8
0
  6
CONTINUOUS
 62
     7
 10
428.0246580404
 20
1113.205142484
 30
0.0
 40
17.4107828719587
 50
19.4203387379
 51
28.4518926026
  0
ARC
  5
1D5
  8
0
  6
CONTINUOUS
 62
     7
 10
430.9526371788
 20
1114.2374153952
 30
0.0
 40
14.306165472383
 50
8.9557810925
 51
19.4203376823
  0
ARC
  5
1D6
  8
0
  6
CONTINUOUS
 62
     7
 10
419.1836478007
 20
1112.3826993619
 30
0.0
 40
26.22040411967799
 50
1.7487461838
 51
8.9557829314
  0
ARC
  5
1D7
  8
0
  6
CONTINUOUS
 62
     7
 10
296.1957102749
 20
1108.6278877751
 30
0.0
 40
149.2656453397571
 50
359.7589838872
 51
1.748701726
  0
ARC
  5
1D8
  8
0
  6
CONTINUOUS
 62
     7
 10
294.8443787731
 20
1108.6337440917
 30
0.0
 40
150.6169895205633
 50
357.4655595937
 51
359.7589185058
  0
ARC
  5
1D9
  8
0
  6
CONTINUOUS
 62
     7
 10
428.4385379965
 20
1102.7204576823
 30
0.0
 40
16.89202425695195
 50
346.0007859992
 51
357.4654952188
  0
ARC
  5
1DA
  8
0
  6
CONTINUOUS
 62
     7
 10
428.2681709722
 20
1102.7629428052
 30
0.0
 40
17.06760873382901
 50
334.6190300751
 51
346.0007523338
  0
ARC
  5
1DB
  8
0
  6
CONTINUOUS
 62
     7
 10
303.0157076346
 20
1162.1864579503
 30
0.0
 40
155.7014203539288
 50
332.3789839621
 51
334.618948431
  0
ARC
  5
1DC
  8
0
  6
CONTINUOUS
 62
     7
 10
582.3532941909
 20
1016.02148407
 30
0.0
 40
159.5662228519333
 50
152.3788809702
 51
154.5118266659
  0
ARC
  5
1DD
  8
0
  6
CONTINUOUS
 62
     7
 10
454.3420325966
 20
1077.0472772311
 30
0.0
 40
17.75285773460377
 50
154.5117832278
 51
165.2354498067
  0
ARC
  5
1DE
  8
0
  6
CONTINUOUS
 62
     7
 10
451.4013306559
 20
1077.8222902842
 30
0.0
 40
14.71174393594174
 50
165.2354205792
 51
177.4388757881
  0
ARC
  5
1DF
  8
0
  6
CONTINUOUS
 62
     7
 10
523.8684324456
 20
1074.5807912965
 30
0.0
 40
87.25130664122673
 50
177.4388385784
 51
180.7097471195
  0
ARC
  5
1E0
  8
0
  6
CONTINUOUS
 62
     7
 10
500.6963012371
 20
1074.2937420583
 30
0.0
 40
64.0773975620902
 50
180.7097546846
 51
184.2269810239
  0
ARC
  5
1E1
  8
0
  6
CONTINUOUS
 62
     7
 10
475.7521415179
 20
1072.450152055
 30
0.0
 40
39.06520197285835
 50
184.2269879487
 51
189.3224931733
  0
ARC
  5
1E2
  8
0
  6
CONTINUOUS
 62
     7
 10
469.2379112813
 20
1071.3807900125
 30
0.0
 40
32.46378312887612
 50
189.3225108892
 51
194.9450779467
  0
ARC
  5
1E3
  8
0
  6
CONTINUOUS
 62
     7
 10
464.8231542215
 20
1070.2023988581
 30
0.0
 40
27.8944630908158
 50
194.945087686
 51
201.2451193489
  0
ARC
  5
1E4
  8
0
  6
CONTINUOUS
 62
     7
 10
389.858565153
 20
1041.0576472448
 30
0.0
 40
52.53629073382962
 50
18.7810053693
 51
21.2450873037
  0
ARC
  5
1E5
  8
0
  6
CONTINUOUS
 62
     7
 10
409.5266469419
 20
1047.7459779643
 30
0.0
 40
31.76209498366869
 50
15.1887778503
 51
18.7809290412
  0
ARC
  5
1E6
  8
0
  6
CONTINUOUS
 62
     7
 10
404.8040229561
 20
1046.4639273697
 30
0.0
 40
36.65564492573063
 50
12.6416439046
 51
15.1886802112
  0
ARC
  5
1E7
  8
0
  6
CONTINUOUS
 62
     7
 10
439.903111359
 20
1054.3362925094
 30
0.0
 40
0.6845434746318732
 50
328.2825544025
 51
12.6416814753
  0
ARC
  5
1E8
  8
0
  6
CONTINUOUS
 62
     7
 10
439.872784633
 20
1054.3550368812
 30
0.0
 40
0.7201954280391697
 50
286.5541733642
 51
328.2824565766
  0
ARC
  5
1E9
  8
0
  6
CONTINUOUS
 62
     7
 10
431.2513881168
 20
1083.3595358896
 30
0.0
 40
30.97890393673761
 50
283.7707124278
 51
286.5542337051
  0
ARC
  5
1EA
  8
0
  6
CONTINUOUS
 62
     7
 10
431.9022485807
 20
1080.7037070692
 30
0.0
 40
28.24448515655186
 50
280.0361134868
 51
283.7707801524
  0
ARC
  5
1EB
  8
0
  6
CONTINUOUS
 62
     7
 10
428.8769772787
 20
1097.7978004087
 30
0.0
 40
45.60421711157257
 50
277.4276772558
 51
280.0361268679
  0
ARC
  5
1EC
  8
0
  6
CONTINUOUS
 62
     7
 10
438.3662861185
 20
1025.0095715093
 30
0.0
 40
27.79996021212651
 50
97.4277019829
 51
103.1196692203
  0
ARC
  5
1ED
  8
0
  6
CONTINUOUS
 62
     7
 10
463.5898612575
 20
916.7858004622
 30
0.0
 40
138.9242751141427
 50
103.1196480342
 51
104.8467393177
  0
ARC
  5
1EE
  8
0
  6
CONTINUOUS
 62
     7
 10
468.0129168399
 20
900.0999294734
 30
0.0
 40
156.1864218905989
 50
104.8467015124
 51
106.5717302648
  0
ARC
  5
1EF
  8
0
  6
CONTINUOUS
 62
     7
 10
463.6304294908
 20
914.8270796253
 30
0.0
 40
140.8210339371525
 50
106.5717130311
 51
108.4360765704
  0
LINE
  5
1F0
  8
0
  6
CONTINUOUS
 62
     7
 10
419.096279
 20
1048.420766
 30
0.0
 11
408.692558
 21
1044.952636
 31
0.0
  0
LINE
  5
1F1
  8
0
  6
CONTINUOUS
 62
     7
 10
408.692558
 20
1044.952636
 30
0.0
 11
400.596279
 21
1048.377979
 31
0.0
  0
ARC
  5
1F2
  8
0
  6
CONTINUOUS
 62
     7
 10
277.2373550944
 20
756.8010948046
 30
0.0
 40
316.5983314931712
 50
67.0679874143
 51
67.7090109239
  0
ARC
  5
1F3
  8
0
  6
CONTINUOUS
 62
     7
 10
298.5335891144
 20
808.7491891577
 30
0.0
 40
260.4544619234811
 50
67.7090742936
 51
68.4511666363
  0
ARC
  5
1F4
  8
0
  6
CONTINUOUS
 62
     7
 10
303.5426507662
 20
821.4328703471
 30
0.0
 40
246.817509659796
 50
68.4512389314
 51
69.1142638422
  0
ARC
  5
1F5
  8
0
  6
CONTINUOUS
 62
     7
 10
384.8515850789
 20
1034.5190798269
 30
0.0
 40
18.74542572678212
 50
69.1142667758
 51
73.4838009511
  0
ARC
  5
1F6
  8
0
  6
CONTINUOUS
 62
     7
 10
391.6499472484
 20
1057.4461438526
 30
0.0
 40
5.168335855752405
 50
236.9587779481
 51
253.4837481723
  0
ARC
  5
1F7
  8
0
  6
CONTINUOUS
 62
     7
 10
447.8619148194
 20
1143.8687426432
 30
0.0
 40
108.2636843440457
 50
235.1473369929
 51
236.9587626368
  0
ARC
  5
1F8
  8
0
  6
CONTINUOUS
 62
     7
 10
447.411785716
 20
1143.2223418675
 30
0.0
 40
107.4759977487128
 50
232.9621365693
 51
235.1473313783
  0
ARC
  5
1F9
  8
0
  6
CONTINUOUS
 62
     7
 10
470.7962120144
 20
1174.2117470951
 30
0.0
 40
146.2983447883266
 50
231.2279064788
 51
232.9621020339
  0
ARC
  5
1FA
  8
0
  6
CONTINUOUS
 62
     7
 10
305.9737357505
 20
969.0093759183
 30
0.0
 40
116.9020765988268
 50
51.2278968127
 51
53.6026072927
  0
ARC
  5
1FB
  8
0
  6
CONTINUOUS
 62
     7
 10
271.4035759303
 20
922.1151673825
 30
0.0
 40
175.1615199894632
 50
53.6025911533
 51
55.3564953152
  0
ARC
  5
1FC
  8
0
  6
CONTINUOUS
 62
     7
 10
277.8739332786
 20
931.4794639798
 30
0.0
 40
163.7792717509322
 50
55.3564556652
 51
57.1305267467
  0
ARC
  5
1FD
  8
0
  6
CONTINUOUS
 62
     7
 10
336.1873714149
 20
1021.7238151713
 30
0.0
 40
56.33393686272046
 50
57.1304669903
 51
61.0628633412
  0
ARC
  5
1FE
  8
0
  6
CONTINUOUS
 62
     7
 10
334.0297502514
 20
1017.8213903191
 30
0.0
 40
60.79311266210204
 50
61.0628092786
 51
67.593905527
  0
ARC
  5
1FF
  8
0
  6
CONTINUOUS
 62
     7
 10
242.8283004552
 20
796.6171605832
 30
0.0
 40
300.0607780453774
 50
67.5938847096
 51
69.5934566761
  0
ARC
  5
200
  8
0
  6
CONTINUOUS
 62
     7
 10
189.0760946394
 20
652.1314241024
 30
0.0
 40
454.2211739854375
 50
69.5934970508
 51
70.9151814404
  0
ARC
  5
201
  8
0
  6
CONTINUOUS
 62
     7
 10
333.9426790812
 20
1070.8398957948
 30
0.0
 40
11.16010420524123
 50
70.9152387146
 51
90.0000004167
  0
ARC
  5
202
  8
0
  6
CONTINUOUS
 62
     7
 10
333.9426803008
 20
1083.7060040041
 30
0.0
 40
1.706004004078336
 50
241.3053950716
 51
269.999956313
  0
ARC
  5
203
  8
0
  6
CONTINUOUS
 62
     7
 10
374.884800618
 20
1158.5050300423
 30
0.0
 40
86.97705133163542
 50
239.6023645908
 51
241.3053929946
  0
ARC
  5
204
  8
0
  6
CONTINUOUS
 62
     7
 10
367.2304273257
 20
1145.4573920799
 30
0.0
 40
71.84991389952127
 50
237.1197852101
 51
239.602428815
  0
ARC
  5
205
  8
0
  6
CONTINUOUS
 62
     7
 10
389.2227492906
 20
1179.478206534
 30
0.0
 40
112.3601353446453
 50
235.3439103081
 51
237.1198147446
  0
ARC
  5
206
  8
0
  6
CONTINUOUS
 62
     7
 10
272.7847274697
 20
1011.0445479134
 30
0.0
 40
92.40243516545576
 50
55.3439607249
 51
57.8403536944
  0
ARC
  5
207
  8
0
  6
CONTINUOUS
 62
     7
 10
224.530162955
 20
934.29727951
 30
0.0
 40
183.059184521772
 50
57.8404369115
 51
59.3372105746
  0
ARC
  5
208
  8
0
  6
CONTINUOUS
 62
     7
 10
225.0199611927
 20
935.1231221407
 30
0.0
 40
182.0990187330261
 50
59.3372576442
 51
60.8356355206
  0
ARC
  5
209
  8
0
  6
CONTINUOUS
 62
     7
 10
271.100225553
 20
1017.6944366233
 30
0.0
 40
87.53997506780644
 50
60.8356868469
 51
63.4271790908
  0
ARC
  5
20A
  8
0
  6
CONTINUOUS
 62
     7
 10
276.5836386806
 20
1028.6575213967
 30
0.0
 40
75.28203693463286
 50
63.4271874432
 51
69.0011966651
  0
ARC
  5
20B
  8
0
  6
CONTINUOUS
 62
     7
 10
241.6463869455
 20
937.6368267293
 30
0.0
 40
172.777567173307
 50
69.0012394673
 51
71.9969505614
  0
ARC
  5
20C
  8
0
  6
CONTINUOUS
 62
     7
 10
235.7361141748
 20
919.4499713583
 30
0.0
 40
191.9006692362007
 50
71.996968994
 51
74.5414845974
  0
ARC
  5
20D
  8
0
  6
CONTINUOUS
 62
     7
 10
282.5265069293
 20
1088.6463056636
 30
0.0
 40
16.35369433636612
 50
74.5414750403
 51
89.9999962488
  0
ARC
  5
20E
  8
0
  6
CONTINUOUS
 62
     7
 10
282.5265094248
 20
1109.0065843839
 30
0.0
 40
4.006584383910676
 50
252.4935783228
 51
269.9999796243
  0
ARC
  5
20F
  8
0
  6
CONTINUOUS
 62
     7
 10
290.4797227756
 20
1134.2210020385
 30
0.0
 40
30.44557945293672
 50
248.5675416993
 51
252.493522809
  0
ARC
  5
210
  8
0
  6
CONTINUOUS
 62
     7
 10
292.1729045196
 20
1138.5342167779
 30
0.0
 40
35.07922659166648
 50
244.5821711619
 51
248.5674930176
  0
ARC
  5
211
  8
0
  6
CONTINUOUS
 62
     7
 10
293.8867160857
 20
1142.1405564784
 30
0.0
 40
39.07207471292797
 50
240.90636246
 51
244.5821444582
  0
ARC
  5
212
  8
0
  6
CONTINUOUS
 62
     7
 10
81.953582774
 20
761.2726711119
 30
0.0
 40
396.7902878499496
 50
60.9063396703
 51
62.2901305208
  0
ARC
  5
213
  8
0
  6
CONTINUOUS
 62
     7
 10
170.9177485074
 20
930.6535304862
 30
0.0
 40
205.467267000382
 50
62.2901315675
 51
64.5546162619
  0
ARC
  5
214
  8
0
  6
CONTINUOUS
 62
     7
 10
195.7815093088
 20
982.9099093772
 30
0.0
 40
147.5972770576687
 50
64.5545686043
 51
67.222827083
  0
ARC
  5
215
  8
0
  6
CONTINUOUS
 62
     7
 10
224.8927857733
 20
1052.240266975
 30
0.0
 40
72.40309575329454
 50
67.2228087468
 51
71.7687471597
  0
ARC
  5
216
  8
0
  6
CONTINUOUS
 62
     7
 10
259.2322582745
 20
1156.492758452
 30
0.0
 40
37.35929011190841
 50
245.7229638256
 51
251.7687867626
  0
ARC
  5
217
  8
0
  6
CONTINUOUS
 62
     7
 10
261.9266855366
 20
1162.4667778617
 30
0.0
 40
43.91282703293045
 50
240.3673180175
 51
245.723039906
  0
ARC
  5
218
  8
0
  6
CONTINUOUS
 62
     7
 10
267.461812522
 20
1172.1974590019
 30
0.0
 40
55.10763771450786
 50
235.6284986275
 51
240.3673300458
  0
ARC
  5
219
  8
0
  6
CONTINUOUS
 62
     7
 10
293.6613248661
 20
1210.5016902944
 30
0.0
 40
101.5148417024567
 50
232.6288767258
 51
235.6284832664
  0
ARC
  5
21A
  8
0
  6
CONTINUOUS
 62
     7
 10
168.5021689752
 20
1046.6292668748
 30
0.0
 40
104.6864809430486
 50
52.6288566042
 51
63.5402636274
  0
ARC
  5
21B
  8
0
  6
CONTINUOUS
 62
     7
 10
166.3642203746
 20
1042.3339808322
 30
0.0
 40
109.4844290862605
 50
63.5401861217
 51
74.09096325
  0
ARC
  5
21C
  8
0
  6
CONTINUOUS
 62
     7
 10
166.9634799861
 20
1044.4365331881
 30
0.0
 40
107.2981449120552
 50
74.0909495265
 51
84.7496696383
  0
ARC
  5
21D
  8
0
  6
CONTINUOUS
 62
     7
 10
168.081850178
 20
1056.6061079652
 30
0.0
 40
95.07728969907362
 50
84.7497132038
 51
96.4201621955
  0
ARC
  5
21E
  8
0
  6
CONTINUOUS
 62
     7
 10
171.6593143867
 20
1024.8142261335
 30
0.0
 40
127.0698200859828
 50
96.4202090785
 51
105.0707407147
  0
ARC
  5
21F
  8
0
  6
CONTINUOUS
 62
     7
 10
163.205662288
 20
1056.2088079313
 30
0.0
 40
94.55699184759146
 50
105.070775265
 51
115.8667041965
  0
ARC
  5
220
  8
0
  6
CONTINUOUS
 62
     7
 10
162.8888016193
 20
1056.8624092825
 30
0.0
 40
93.8306342165132
 50
115.8667271915
 51
126.7088480213
  0
ARC
  5
221
  8
0
  6
CONTINUOUS
 62
     7
 10
180.4157044478
 20
1033.3558164259
 30
0.0
 40
123.1521660742413
 50
126.7088409295
 51
135.5513772662
  0
ARC
  5
222
  8
0
  6
CONTINUOUS
 62
     7
 10
177.0590641664
 20
1036.648479904
 30
0.0
 40
118.4501806682078
 50
135.5513819659
 51
142.9308188879
  0
ARC
  5
223
  8
0
  6
CONTINUOUS
 62
     7
 10
160.4117488236
 20
1049.2248191062
 30
0.0
 40
97.58639827304171
 50
142.9308863392
 51
151.464241063
  0
ARC
  5
224
  8
0
  6
CONTINUOUS
 62
     7
 10
161.0966555097
 20
1048.8525486079
 30
0.0
 40
98.36593818456981
 50
151.4643214799
 51
159.9610575003
  0
ARC
  5
225
  8
0
  6
CONTINUOUS
 62
     7
 10
183.8299206552
 20
1040.5608510882
 30
0.0
 40
122.5641528280681
 50
159.96107365
 51
167.1660497881
  0
ARC
  5
226
  8
0
  6
CONTINUOUS
 62
     7
 10
125.426810484
 20
1053.8660805049
 30
0.0
 40
62.66463356869362
 50
167.1660237502
 51
176.2559280125
  0
ARC
  5
227
  8
0
  6
CONTINUOUS
 62
     7
 10
229.8086031509
 20
1047.0354986404
 30
0.0
 40
167.2696788053097
 50
176.2559677547
 51
180.6238982312
  0
ARC
  5
228
  8
0
  6
CONTINUOUS
 62
     7
 10
230.2469755759
 20
1047.0403381831
 30
0.0
 40
167.7080779383971
 50
180.6239207379
 51
184.9941422127
  0
ARC
  5
229
  8
0
  6
CONTINUOUS
 62
     7
 10
128.539953844
 20
1038.1525808388
 30
0.0
 40
65.61346250648049
 50
184.9941215705
 51
193.8014160123
  0
ARC
  5
22A
  8
0
  6
CONTINUOUS
 62
     7
 10
328.5035114921
 20
1087.2737385484
 30
0.0
 40
271.5219677266631
 50
193.8014481896
 51
198.1952668967
  0
ARC
  5
22B
  8
0
  6
CONTINUOUS
 62
     7
 10
193.0123341406
 20
1042.7389087452
 30
0.0
 40
128.8993530903359
 50
198.1952670754
 51
205.8659107133
  0
ARC
  5
22C
  8
0
  6
CONTINUOUS
 62
     7
 10
168.2688177732
 20
1030.742177533
 30
0.0
 40
101.4009320086193
 50
205.8658534028
 51
214.6415670912
  0
ARC
  5
22D
  8
0
  6
CONTINUOUS
 62
     7
 10
169.3840527252
 20
1031.5126053833
 30
0.0
 40
102.7564053804978
 50
214.6415139077
 51
223.3302643815
  0
ARC
  5
22E
  8
0
  6
CONTINUOUS
 62
     7
 10
191.7613028219
 20
1052.6220143252
 30
0.0
 40
133.5191826893757
 50
223.3302105923
 51
227.0183652849
  0
ARC
  5
22F
  8
0
  6
CONTINUOUS
 62
     7
 10
162.4282303774
 20
1021.1458598191
 30
0.0
 40
90.49387105160869
 50
227.0183377193
 51
231.9546369669
  0
ARC
  5
230
  8
0
  6
CONTINUOUS
 62
     7
 10
164.5216633352
 20
1023.8209555435
 30
0.0
 40
93.89072234119902
 50
231.9546339773
 51
236.7892221541
  0
ARC
  5
231
  8
0
  6
CONTINUOUS
 62
     7
 10
197.9389603708
 20
1074.8671089093
 30
0.0
 40
154.9024057682746
 50
236.7892486054
 51
240.1119418138
  0
ARC
  5
232
  8
0
  6
CONTINUOUS
 62
     7
 10
52.3991094469
 20
821.6435980948
 30
0.0
 40
137.1660701687823
 50
58.5764035969
 51
60.1119075119
  0
ARC
  5
233
  8
0
  6
CONTINUOUS
 62
     7
 10
84.551731814
 20
874.2692645169
 30
0.0
 40
75.4955594570411
 50
56.1753545656
 51
58.5764182431
  0
ARC
  5
234
  8
0
  6
CONTINUOUS
 62
     7
 10
51.5048443937
 20
824.95011551
 30
0.0
 40
134.8628503411534
 50
55.048518106
 51
56.175402416
  0
ARC
  5
235
  8
0
  6
CONTINUOUS
 62
     7
 10
128.4507866221
 20
935.0386028685
 30
0.0
 40
0.5492133779299102
 50
0.0000137179
 51
55.0485683485
  0
ARC
  5
236
  8
0
  6
CONTINUOUS
 62
     7
 10
131.5468013241
 20
935.038604034
 30
0.0
 40
2.546801324102432
 50
180.0000232613
 51
225.329656399
  0
ARC
  5
237
  8
0
  6
CONTINUOUS
 62
     7
 10
713.6750512694
 20
1523.9035718873
 30
0.0
 40
830.5777486619978
 50
225.3296188016
 51
226.0957751111
  0
ARC
  5
238
  8
0
  6
CONTINUOUS
 62
     7
 10
341.5271109202
 20
1137.2415013379
 30
0.0
 40
293.9199002077013
 50
226.0957465118
 51
228.1743803942
  0
ARC
  5
239
  8
0
  6
CONTINUOUS
 62
     7
 10
189.3944115269
 20
967.2434496484
 30
0.0
 40
65.78902592074635
 50
228.1744212586
 51
234.4888805252
  0
ARC
  5
23A
  8
0
  6
CONTINUOUS
 62
     7
 10
189.5572060104
 20
967.4716949292
 30
0.0
 40
66.06937917654142
 50
234.4889356816
 51
237.7334934891
  0
ARC
  5
23B
  8
0
  6
CONTINUOUS
 62
     7
 10
238.4659861661
 20
1044.9382102035
 30
0.0
 40
157.6834052045248
 50
237.7335422885
 51
239.427403871
  0
ARC
  5
23C
  8
0
  6
CONTINUOUS
 62
     7
 10
241.1577907093
 20
1049.4947576253
 30
0.0
 40
162.9756576650121
 50
239.4274006479
 51
241.1107203793
  0
ARC
  5
23D
  8
0
  6
CONTINUOUS
 62
     7
 10
207.5495212432
 20
988.5865215117
 30
0.0
 40
93.41037176047132
 50
241.1107119754
 51
243.6643937695
  0
ARC
  5
23E
  8
0
  6
CONTINUOUS
 62
     7
 10
135.7910408494
 20
843.620941435
 30
0.0
 40
68.34345018943175
 50
59.7691892954
 51
63.664468808
  0
ARC
  5
23F
  8
0
  6
CONTINUOUS
 62
     7
 10
145.2449185966
 20
859.8442072934
 30
0.0
 40
49.56659849460507
 50
54.8134471903
 51
59.7692179313
  0
ARC
  5
240
  8
0
  6
CONTINUOUS
 62
     7
 10
147.8550788822
 20
863.5462384705
 30
0.0
 40
45.03692173433077
 50
49.6001656206
 51
54.813411391
  0
ARC
  5
241
  8
0
  6
CONTINUOUS
 62
     7
 10
148.3500714688
 20
864.1279072057
 30
0.0
 40
44.27314416385594
 50
44.3195325414
 51
49.600122838
  0
ARC
  5
242
  8
0
  6
CONTINUOUS
 62
     7
 10
264.1459978765
 20
977.2055474517
 30
0.0
 40
117.5763207602575
 50
224.3195446435
 51
230.0389968127
  0
ARC
  5
243
  8
0
  6
CONTINUOUS
 62
     7
 10
251.9574048589
 20
962.6595927585
 30
0.0
 40
98.59879200424051
 50
230.038974173
 51
236.5654904778
  0
ARC
  5
244
  8
0
  6
CONTINUOUS
 62
     7
 10
251.8045910427
 20
962.4279346586
 30
0.0
 40
98.3212716903757
 50
236.5654239369
 51
243.101787114
  0
ARC
  5
245
  8
0
  6
CONTINUOUS
 62
     7
 10
259.8572290087
 20
978.3014729537
 30
0.0
 40
116.1205468498515
 50
243.1017189543
 51
248.8713306994
  0
ARC
  5
246
  8
0
  6
CONTINUOUS
 62
     7
 10
192.8678135722
 20
804.9525242051
 30
0.0
 40
69.72196661998308
 50
65.3282514463
 51
68.8713693339
  0
ARC
  5
247
  8
0
  6
CONTINUOUS
 62
     7
 10
203.9386680361
 20
829.0535629246
 30
0.0
 40
43.19982707727893
 50
60.2570394115
 51
65.3282631753
  0
ARC
  5
248
  8
0
  6
CONTINUOUS
 62
     7
 10
208.7062680141
 20
837.3975138804
 30
0.0
 40
33.58985688468366
 50
54.5043750843
 51
60.2570379931
  0
ARC
  5
249
  8
0
  6
CONTINUOUS
 62
     7
 10
216.6720843585
 20
848.5669318756
 30
0.0
 40
19.87088723015547
 50
45.980943005
 51
54.5044564951
  0
ARC
  5
24A
  8
0
  6
CONTINUOUS
 62
     7
 10
203.4938637123
 20
834.9295365039
 30
0.0
 40
38.83523523685462
 50
40.8595438722
 51
45.9809339244
  0
ARC
  5
24B
  8
0
  6
CONTINUOUS
 62
     7
 10
228.1850542122
 20
856.2873700122
 30
0.0
 40
6.189049334332712
 50
20.9588706723
 51
40.8595511936
  0
ARC
  5
24C
  8
0
  6
CONTINUOUS
 62
     7
 10
225.8259854265
 20
855.3834235945
 30
0.0
 40
8.714791082035877
 50
5.3011491068
 51
20.9588265509
  0
ARC
  5
24D
  8
0
  6
CONTINUOUS
 62
     7
 10
122.5425273254
 20
845.8001056855
 30
0.0
 40
112.4418979512575
 50
2.8908744338
 51
5.301104426
  0
ARC
  5
24E
  8
0
  6
CONTINUOUS
 62
     7
 10
132.9897449469
 20
846.3276647028
 30
0.0
 40
101.9813685886131
 50
0.1731226029
 51
2.8908778001
  0
ARC
  5
24F
  8
0
  6
CONTINUOUS
 62
     7
 10
225.5645489178
 20
846.6073815461
 30
0.0
 40
9.406142033304635
 50
344.5613229833
 51
0.1731486739
  0
ARC
  5
250
  8
0
  6
CONTINUOUS
 62
     7
 10
225.6414428214
 20
846.5861469312
 30
0.0
 40
9.326369975088346
 50
328.8543654182
 51
344.5613149889
  0
ARC
  5
251
  8
0
  6
CONTINUOUS
 62
     7
 10
148.6520492645
 20
893.1127895391
 30
0.0
 40
99.28244365898534
 50
326.0843655522
 51
328.8543670104
  0
ARC
  5
252
  8
0
  6
CONTINUOUS
 62
     7
 10
310.1728379225
 20
784.5112685313
 30
0.0
 40
95.35376965685248
 50
146.0843319891
 51
151.5390059221
  0
ARC
  5
253
  8
0
  6
CONTINUOUS
 62
     7
 10
314.6688258386
 20
782.0739722767
 30
0.0
 40
100.4678991390965
 50
151.5389379192
 51
156.7840235615
  0
ARC
  5
254
  8
0
  6
CONTINUOUS
 62
     7
 10
334.5989188901
 20
773.5252651485
 30
0.0
 40
122.1540468514227
 50
156.7839893612
 51
161.4992249593
  0
ARC
  5
255
  8
0
  6
CONTINUOUS
 62
     7
 10
428.7650638838
 20
742.0163842274
 30
0.0
 40
221.4519443108663
 50
161.499246268
 51
164.519704875
  0
ARC
  5
256
  8
0
  6
CONTINUOUS
 62
     7
 10
214.3157313783
 20
801.4090311435
 30
0.0
 40
1.069970834032893
 50
302.6213976221
 51
344.5196777604
  0
ARC
  5
257
  8
0
  6
CONTINUOUS
 62
     7
 10
213.7000582072
 20
802.370940785
 30
0.0
 40
2.212040714638877
 50
278.2653968895
 51
302.6213978784
  0
ARC
  5
258
  8
0
  6
CONTINUOUS
 62
     7
 10
213.0664002901
 20
806.732965652
 30
0.0
 40
6.619850068019542
 50
265.6492283149
 51
278.2653757383
  0
ARC
  5
259
  8
0
  6
CONTINUOUS
 62
     7
 10
215.7715185692
 20
842.2882290568
 30
0.0
 40
42.27787049385182
 50
262.4436000664
 51
265.6492044587
  0
ARC
  5
25A
  8
0
  6
CONTINUOUS
 62
     7
 10
166.5270837146
 20
471.0659675482
 30
0.0
 40
332.1964033938106
 50
82.4435492742
 51
85.0625399385
  0
ARC
  5
25B
  8
0
  6
CONTINUOUS
 62
     7
 10
174.9317254338
 20
568.3550696168
 30
0.0
 40
234.5449447067004
 50
85.062526462
 51
88.4622086354
  0
ARC
  5
25C
  8
0
  6
CONTINUOUS
 62
     7
 10
174.781735355
 20
562.7599929716
 30
0.0
 40
240.14203141707
 50
88.462259956
 51
91.81749026
  0
ARC
  5
25D
  8
0
  6
CONTINUOUS
 62
     7
 10
178.7799757414
 20
436.7585021041
 30
0.0
 40
366.2069417887276
 50
91.8174874623
 51
94.2632368508
  0
ARC
  5
25E
  8
0
  6
CONTINUOUS
 62
     7
 10
179.1710242143
 20
431.5093226761
 30
0.0
 40
371.4706670392908
 50
94.2631980346
 51
96.3562692575
  0
ARC
  5
25F
  8
0
  6
CONTINUOUS
 62
     7
 10
155.034697995
 20
648.1814601189
 30
0.0
 40
153.4583339309255
 50
96.3562349876
 51
100.4077704038
  0
ARC
  5
260
  8
0
  6
CONTINUOUS
 62
     7
 10
149.7002882502
 20
677.2233005239
 30
0.0
 40
123.9306448678223
 50
100.4076961953
 51
104.9923511881
  0
ARC
  5
261
  8
0
  6
CONTINUOUS
 62
     7
 10
159.4596451829
 20
640.7806714558
 30
0.0
 40
161.6574292670985
 50
104.9922820265
 51
108.7487152734
  0
ARC
  5
262
  8
0
  6
CONTINUOUS
 62
     7
 10
174.397999543
 20
596.7696153611
 30
0.0
 40
208.1346009699778
 50
108.7486408465
 51
113.9133246984
  0
ARC
  5
263
  8
0
  6
CONTINUOUS
 62
     7
 10
146.6456373015
 20
659.356664735
 30
0.0
 40
139.6705055675626
 50
113.9132555962
 51
120.8773614292
  0
ARC
  5
264
  8
0
  6
CONTINUOUS
 62
     7
 10
137.6804629848
 20
674.3496041611
 30
0.0
 40
122.2016022491152
 50
120.87730946
 51
128.3565652529
  0
ARC
  5
265
  8
0
  6
CONTINUOUS
 62
     7
 10
133.4114051289
 20
679.7441053379
 30
0.0
 40
115.3222492331103
 50
128.356532773
 51
136.1679632834
  0
ARC
  5
266
  8
0
  6
CONTINUOUS
 62
     7
 10
101.9030835646
 20
709.9933645582
 30
0.0
 40
71.64397075081189
 50
136.1679792798
 51
147.6507486247
  0
ARC
  5
267
  8
0
  6
CONTINUOUS
 62
     7
 10
121.1822945832
 20
697.7823209898
 30
0.0
 40
94.46496026767079
 50
147.6507362027
 51
156.9836399432
  0
ARC
  5
268
  8
0
  6
CONTINUOUS
 62
     7
 10
136.1531132944
 20
691.4224386568
 30
0.0
 40
110.7306762422691
 50
156.9835917163
 51
165.5828590064
  0
ARC
  5
269
  8
0
  6
CONTINUOUS
 62
     7
 10
174.5450484748
 20
681.5527722716
 30
0.0
 40
150.3709461890141
 50
165.5828408743
 51
172.4194074001
  0
ARC
  5
26A
  8
0
  6
CONTINUOUS
 62
     7
 10
159.284166697
 20
683.5838481838
 30
0.0
 40
134.9754993950048
 50
172.4194497065
 51
178.1771514651
  0
ARC
  5
26B
  8
0
  6
CONTINUOUS
 62
     7
 10
639.5283180324
 20
668.3009493992
 30
0.0
 40
615.4627644571563
 50
178.1772525171
 51
180.0445952395
  0
ARC
  5
26C
  8
0
  6
CONTINUOUS
 62
     7
 10
642.0108384289
 20
668.3033747644
 30
0.0
 40
617.9452859895995
 50
180.0446409629
 51
181.9713380458
  0
ARC
  5
26D
  8
0
  6
CONTINUOUS
 62
     7
 10
277.7980581872
 20
655.7673651951
 30
0.0
 40
253.5168282269883
 50
181.9713755791
 51
185.7200186889
  0
ARC
  5
26E
  8
0
  6
CONTINUOUS
 62
     7
 10
-199.2773457316
 20
607.9804038102
 30
0.0
 40
225.9459280979518
 50
3.7447768271
 51
5.7200572099
  0
ARC
  5
26F
  8
0
  6
CONTINUOUS
 62
     7
 10
-1050.3776274655
 20
552.2750107963
 30
0.0
 40
1078.867249427302
 50
3.125256825
 51
3.7447372844
  0
ARC
  5
270
  8
0
  6
CONTINUOUS
 62
     7
 10
-1177.2291309784
 20
545.3496348083
 30
0.0
 40
1205.907655501872
 50
2.506428839
 51
3.1252217541
  0
ARC
  5
271
  8
0
  6
CONTINUOUS
 62
     7
 10
-1026.3122597282
 20
551.9559687774
 30
0.0
 40
1054.846258459363
 50
1.8223086727
 51
2.5064182483
  0
ARC
  5
272
  8
0
  6
CONTINUOUS
 62
     7
 10
657.5293007982
 20
605.5283743947
 30
0.0
 40
629.847305248982
 50
181.8222429366
 51
184.4396295285
  0
ARC
  5
273
  8
0
  6
CONTINUOUS
 62
     7
 10
111.4596716608
 20
563.1306190582
 30
0.0
 40
82.1342329896107
 50
184.4396064629
 51
196.1873173244
  0
ARC
  5
274
  8
0
  6
CONTINUOUS
 62
     7
 10
89.3625132818
 20
556.7161509374
 30
0.0
 40
59.12489119777001
 50
196.18736016
 51
210.811820993
  0
ARC
  5
275
  8
0
  6
CONTINUOUS
 62
     7
 10
226.9369445029
 20
638.7655219818
 30
0.0
 40
219.3086088927601
 50
210.8118379895
 51
216.3272106678
  0
ARC
  5
276
  8
0
  6
CONTINUOUS
 62
     7
 10
1791.2567406261
 20
1789.0176585687
 30
0.0
 40
2161.00281815058
 50
216.3272279629
 51
216.9256237244
  0
ARC
  5
277
  8
0
  6
CONTINUOUS
 62
     7
 10
501.6451682622
 20
819.84742898
 30
0.0
 40
547.8106592632353
 50
216.9255981958
 51
218.5855424928
  0
ARC
  5
278
  8
0
  6
CONTINUOUS
 62
     7
 10
345.0831440556
 20
694.9301203527
 30
0.0
 40
347.5208656682712
 50
218.5855225644
 51
220.4482819279
  0
ARC
  5
279
  8
0
  6
CONTINUOUS
 62
     7
 10
97.6441133837
 20
483.9832033582
 30
0.0
 40
22.36755461428933
 50
220.4482861252
 51
234.2389835582
  0
ARC
  5
27A
  8
0
  6
CONTINUOUS
 62
     7
 10
95.1455673047
 20
480.5138938317
 30
0.0
 40
18.09217847881844
 50
234.2389519507
 51
252.8028725937
  0
ARC
  5
27B
  8
0
  6
CONTINUOUS
 62
     7
 10
106.2764285614
 20
516.4780489545
 30
0.0
 40
55.73944300117492
 50
252.80280247
 51
260.8273478681
  0
ARC
  5
27C
  8
0
  6
CONTINUOUS
 62
     7
 10
117.9433567368
 20
588.7302339838
 30
0.0
 40
128.9275257370194
 50
260.8273406796
 51
265.8605385308
  0
ARC
  5
27D
  8
0
  6
CONTINUOUS
 62
     7
 10
162.9257593344
 20
1210.278579349
 30
0.0
 40
752.1014678827851
 50
265.860617417
 51
267.2258451027
  0
ARC
  5
27E
  8
0
  6
CONTINUOUS
 62
     7
 10
149.0881364771
 20
924.7053311135
 30
0.0
 40
466.1931610533755
 50
267.2258307632
 51
270.5434830012
  0
ARC
  5
27F
  8
0
  6
CONTINUOUS
 62
     7
 10
151.0263356584
 20
720.3998065813
 30
0.0
 40
261.8784431048729
 50
270.5434420566
 51
275.6526914536
  0
ARC
  5
280
  8
0
  6
CONTINUOUS
 62
     7
 10
158.5823632439
 20
644.0580213498
 30
0.0
 40
185.1636353743331
 50
275.6527647998
 51
281.5478875711
  0
ARC
  5
281
  8
0
  6
CONTINUOUS
 62
     7
 10
186.1742017904
 20
509.0173744827
 30
0.0
 40
47.33299342321317
 50
281.5479466995
 51
297.8004412218
  0
ARC
  5
282
  8
0
  6
CONTINUOUS
 62
     7
 10
210.8593576688
 20
462.1987080757
 30
0.0
 40
5.594735083409373
 50
109.9021375267
 51
117.8005553587
  0
ARC
  5
283
  8
0
  6
CONTINUOUS
 62
     7
 10
209.5288498472
 20
465.8737671094
 30
0.0
 40
1.68624305135254
 50
90.6055005176
 51
109.9021391217
  0
ARC
  5
284
  8
0
  6
CONTINUOUS
 62
     7
 10
209.5170922565
 20
466.9862692196
 30
0.0
 40
0.5736788122279187
 50
53.5463895015
 51
90.6054749936
  0
ARC
  5
285
  8
0
  6
CONTINUOUS
 62
     7
 10
209.6499888361
 20
467.1661739612
 30
0.0
 40
0.3500111639137867
 50
0.000006358
 51
53.5463043703
  0
ARC
  5
286
  8
0
  6
CONTINUOUS
 62
     7
 10
214.1917052651
 20
467.1661715762
 30
0.0
 40
4.191705265090292
 50
179.9999668694
 51
188.812753582
  0
ARC
  5
287
  8
0
  6
CONTINUOUS
 62
     7
 10
752.096828693
 20
550.5604904911
 30
0.0
 40
548.5229777796326
 50
188.8127122044
 51
189.0881901796
  0
ARC
  5
288
  8
0
  6
CONTINUOUS
 62
     7
 10
538.5019875207
 20
516.3931807066
 30
0.0
 40
332.2126423046454
 50
189.0881708451
 51
189.6246875443
  0
ARC
  5
289
  8
0
  6
CONTINUOUS
 62
     7
 10
746.8370385897
 20
551.7222520942
 30
0.0
 40
543.5219813999247
 50
189.6246348658
 51
189.9956820097
  0
ARC
  5
28A
  8
0
  6
CONTINUOUS
 62
     7
 10
90.085519533
 20
435.9702696272
 30
0.0
 40
123.3521290799599
 50
7.4461264069
 51
9.9956834162
  0
ARC
  5
28B
  8
0
  6
CONTINUOUS
 62
     7
 10
185.5325161601
 20
448.4447952303
 30
0.0
 40
27.09339984384474
 50
359.5937610068
 51
7.446167406
  0
ARC
  5
28C
  8
0
  6
CONTINUOUS
 62
     7
 10
180.8535808115
 20
448.4779616006
 30
0.0
 40
31.77245273995732
 50
352.5341911323
 51
359.5937768943
  0
ARC
  5
28D
  8
0
  6
CONTINUOUS
 62
     7
 10
5.9862885639
 20
471.3937085628
 30
0.0
 40
208.1348675477594
 50
350.7729035364
 51
352.5341411268
  0
ARC
  5
28E
  8
0
  6
CONTINUOUS
 62
     7
 10
298.2915090304
 20
423.9087348534
 30
0.0
 40
88.00220314780324
 50
170.7729140201
 51
176.7307909829
  0
ARC
  5
28F
  8
0
  6
CONTINUOUS
 62
     7
 10
352.8668002365
 20
420.791434392
 30
0.0
 40
142.666450809324
 50
176.7308172251
 51
180.8794951842
  0
ARC
  5
290
  8
0
  6
CONTINUOUS
 62
     7
 10
348.0539538116
 20
420.7176833265
 30
0.0
 40
137.8530393463661
 50
180.8795501852
 51
185.0701547739
  0
ARC
  5
291
  8
0
  6
CONTINUOUS
 62
     7
 10
276.0020715135
 20
414.3251686277
 30
0.0
 40
65.51813776462359
 50
185.0702555154
 51
192.3798633491
  0
ARC
  5
292
  8
0
  6
CONTINUOUS
 62
     7
 10
185.1738581994
 20
394.3887646577
 30
0.0
 40
27.47231624589884
 50
5.7869145139
 51
12.3798394887
  0
ARC
  5
293
  8
0
  6
CONTINUOUS
 62
     7
 10
190.5436049913
 20
394.9329958084
 30
0.0
 40
22.07506063286374
 50
358.0188980584
 51
5.7868340621
  0
ARC
  5
294
  8
0
  6
CONTINUOUS
 62
     7
 10
176.7349664497
 20
395.4106565865
 30
0.0
 40
35.89195819309182
 50
352.232088488
 51
358.0188780432
  0
ARC
  5
295
  8
0
  6
CONTINUOUS
 62
     7
 10
52.7843764621
 20
412.3188495204
 30
0.0
 40
160.9904623670131
 50
350.3327364125
 51
352.2321626046
  0
ARC
  5
296
  8
0
  6
CONTINUOUS
 62
     7
 10
295.8892197502
 20
370.9070823923
 30
0.0
 40
85.61630819454717
 50
170.3327102508
 51
173.5241080572
  0
ARC
  5
297
  8
0
  6
CONTINUOUS
 62
     7
 10
325.2236885409
 20
367.5773404378
 30
0.0
 40
115.1391508882667
 50
173.5241061019
 51
176.0798502878
  0
ARC
  5
298
  8
0
  6
CONTINUOUS
 62
     7
 10
325.6589931304
 20
367.5476066829
 30
0.0
 40
115.5754697769811
 50
176.0798978358
 51
178.6315172377
  0
ARC
  5
299
  8
0
  6
CONTINUOUS
 62
     7
 10
297.7375127535
 20
368.2147093936
 30
0.0
 40
87.64602129594454
 50
178.6315724174
 51
181.7711847199
  0
LINE
  5
29A
  8
0
  6
CONTINUOUS
 62
     7
 10
210.133366
 20
365.505739
 30
0.0
 11
210.442783
 21
355.5
 31
0.0
  0
LINE
  5
29B
  8
0
  6
CONTINUOUS
 62
     7
 10
210.442783
 20
355.5
 30
0.0
 11
205.220758
 21
345.0
 31
0.0
  0
ARC
  5
29C
  8
0
  6
CONTINUOUS
 62
     7
 10
287.9023362421
 20
303.8795121848
 30
0.0
 40
92.34250320821877
 50
153.5572085392
 51
156.8031411698
  0
ARC
  5
29D
  8
0
  6
CONTINUOUS
 62
     7
 10
354.6284008679
 20
275.2849535855
 30
0.0
 40
164.9373823797609
 50
156.8031217427
 51
158.9055886863
  0
ARC
  5
29E
  8
0
  6
CONTINUOUS
 62
     7
 10
350.4752909536
 20
276.887024075
 30
0.0
 40
160.4859835195465
 50
158.905583405
 51
161.0195085348
  0
ARC
  5
29F
  8
0
  6
CONTINUOUS
 62
     7
 10
264.5593795475
 20
306.437607047
 30
0.0
 40
69.63015934341894
 50
161.0195708557
 51
164.9652559012
  0
ARC
  5
2A0
  8
0
  6
CONTINUOUS
 62
     7
 10
303.5634660663
 20
295.9612428127
 30
0.0
 40
110.0167037948984
 50
164.9653079823
 51
168.3111437866
  0
ARC
  5
2A1
  8
0
  6
CONTINUOUS
 62
     7
 10
245.3473476429
 20
308.0054325187
 30
0.0
 40
50.56774291284512
 50
168.3111649356
 51
174.2942349361
  0
ARC
  5
2A2
  8
0
  6
CONTINUOUS
 62
     7
 10
282.5093210368
 20
304.2923691053
 30
0.0
 40
87.91475225007207
 50
174.2942162305
 51
178.471074414
  0
ARC
  5
2A3
  8
0
  6
CONTINUOUS
 62
     7
 10
910.6926579599
 20
287.5251974573
 30
0.0
 40
716.3218200278038
 50
178.4710540984
 51
179.3621135715
  0
ARC
  5
2A4
  8
0
  6
CONTINUOUS
 62
     7
 10
-352.831811384
 20
301.5932794345
 30
0.0
 40
547.2809639045192
 50
358.2979814106
 51
359.3620709814
  0
ARC
  5
2A5
  8
0
  6
CONTINUOUS
 62
     7
 10
61.2803174419
 20
289.2882210209
 30
0.0
 40
132.9860572218244
 50
355.253417524
 51
358.2979361455
  0
ARC
  5
2A6
  8
0
  6
CONTINUOUS
 62
     7
 10
110.5211284076
 20
285.1996248327
 30
0.0
 40
83.57579428643294
 50
351.2348453164
 51
355.2533885925
  0
ARC
  5
2A7
  8
0
  6
CONTINUOUS
 62
     7
 10
98.2691861504
 20
287.0888438419
 30
0.0
 40
95.97253730705015
 50
347.6121334689
 51
351.2347584632
  0
ARC
  5
2A8
  8
0
  6
CONTINUOUS
 62
     7
 10
305.4482045113
 20
241.5835400411
 30
0.0
 40
116.1450676270922
 50
167.6121165095
 51
170.5814760084
  0
ARC
  5
2A9
  8
0
  6
CONTINUOUS
 62
     7
 10
243.1867557739
 20
251.9115738589
 30
0.0
 40
53.03281619025506
 50
170.5815139726
 51
175.9175368349
  0
ARC
  5
2AA
  8
0
  6
CONTINUOUS
 62
     7
 10
261.6326288892
 20
250.5950899363
 30
0.0
 40
71.525608432171
 50
175.9175831686
 51
180.3393518751
  0
ARC
  5
2AB
  8
0
  6
CONTINUOUS
 62
     7
 10
517.7103936907
 20
252.112231169
 30
0.0
 40
327.6078673709642
 50
180.3394260593
 51
181.7688226322
  0
ARC
  5
2AC
  8
0
  6
CONTINUOUS
 62
     7
 10
329.7845747275
 20
246.3087865345
 30
0.0
 40
139.592460016663
 50
181.7688240641
 51
188.5199803865
  0
ARC
  5
2AD
  8
0
  6
CONTINUOUS
 62
     7
 10
279.0446826306
 20
238.7075367622
 30
0.0
 40
88.28636244427184
 50
188.5199600142
 51
198.0356715865
  0
ARC
  5
2AE
  8
0
  6
CONTINUOUS
 62
     7
 10
278.2630792684
 20
238.4530328096
 30
0.0
 40
87.46436726326722
 50
198.0356668978
 51
207.6021689934
  0
ARC
  5
2AF
  8
0
  6
CONTINUOUS
 62
     7
 10
320.0248489689
 20
260.2875347177
 30
0.0
 40
134.589635242243
 50
207.6021551333
 51
214.5284804687
  0
ARC
  5
2B0
  8
0
  6
CONTINUOUS
 62
     7
 10
184.390121621
 20
166.9690744494
 30
0.0
 40
30.04667390483825
 50
28.0289752579
 51
34.5284697894
  0
ARC
  5
2B1
  8
0
  6
CONTINUOUS
 62
     7
 10
165.7873296516
 20
157.0657220646
 30
0.0
 40
51.12130931133997
 50
23.663566675
 51
28.0289770522
  0
ARC
  5
2B2
  8
0
  6
CONTINUOUS
 62
     7
 10
158.3527563199
 20
153.8077688472
 30
0.0
 40
59.23839867818123
 50
19.5859485587
 51
23.6636026333
  0
ARC
  5
2B3
  8
0
  6
CONTINUOUS
 62
     7
 10
149.4436140207
 20
150.6378363539
 30
0.0
 40
68.69468169635616
 50
15.9369673463
 51
19.5859417665
  0
ARC
  5
2B4
  8
0
  6
CONTINUOUS
 62
     7
 10
322.8729305758
 20
200.1614656429
 30
0.0
 40
111.6669486431544
 50
195.9369624022
 51
208.4023014271
  0
ARC
  5
2B5
  8
0
  6
CONTINUOUS
 62
     7
 10
317.5154152358
 20
197.2644561493
 30
0.0
 40
105.5763300685548
 50
208.4023331066
 51
221.4032205919
  0
ARC
  5
2B6
  8
0
  6
CONTINUOUS
 62
     7
 10
316.5941480399
 20
196.4521536674
 30
0.0
 40
104.3480920751794
 50
221.4032188806
 51
234.48497477
  0
ARC
  5
2B7
  8
0
  6
CONTINUOUS
 62
     7
 10
317.6530591957
 20
197.9360351744
 30
0.0
 40
106.1710559129633
 50
234.4850268069
 51
247.3979605132
  0
ARC
  5
2B8
  8
0
  6
CONTINUOUS
 62
     7
 10
258.4110320459
 20
55.6303869355
 30
0.0
 40
47.97340652904744
 50
62.2475231868
 51
67.3980048803
  0
ARC
  5
2B9
  8
0
  6
CONTINUOUS
 62
     7
 10
256.8240879338
 20
52.6143289615
 30
0.0
 40
51.38148477277644
 50
57.3554825504
 51
62.2475697899
  0
ARC
  5
2BA
  8
0
  6
CONTINUOUS
 62
     7
 10
252.8070945183
 20
46.3437469949
 30
0.0
 40
58.82839247306469
 50
52.8025072278
 51
57.355547518
  0
ARC
  5
2BB
  8
0
  6
CONTINUOUS
 62
     7
 10
234.9806089137
 20
22.8560452232
 30
0.0
 40
88.31492708677492
 50
49.4445430629
 51
52.8025229744
  0
ARC
  5
2BC
  8
0
  6
CONTINUOUS
 62
     7
 10
363.303194608
 20
172.8083441114
 30
0.0
 40
109.0486408307236
 50
229.4445417771
 51
240.8925623999
  0
ARC
  5
2BD
  8
0
  6
CONTINUOUS
 62
     7
 10
361.3259915226
 20
169.2572580042
 30
0.0
 40
104.9842165695235
 50
240.8926053602
 51
252.6714030849
  0
ARC
  5
2BE
  8
0
  6
CONTINUOUS
 62
     7
 10
361.2072425355
 20
168.8773131902
 30
0.0
 40
104.5861470447411
 50
252.6715083544
 51
264.4738495178
  0
ARC
  5
2BF
  8
0
  6
CONTINUOUS
 62
     7
 10
361.46207331
 20
171.5126300667
 30
0.0
 40
107.2337561067969
 50
264.4739215133
 51
276.0570476821
  0
ARC
  5
2C0
  8
0
  6
CONTINUOUS
 62
     7
 10
403.8566817686
 20
-228.0179411364
 30
0.0
 40
294.5397872633851
 50
94.7058027823
 51
96.0570507888
  0
ARC
  5
2C1
  8
0
  6
CONTINUOUS
 62
     7
 10
382.5892577018
 20
30.3424474075
 30
0.0
 40
35.3055424287691
 50
88.264031978
 51
94.7058183893
  0
ARC
  5
2C2
  8
0
  6
CONTINUOUS
 62
     7
 10
383.0249747149
 20
44.7192779036
 30
0.0
 40
20.92211083445886
 50
79.1887431788
 51
88.2640027459
  0
ARC
  5
2C3
  8
0
  6
CONTINUOUS
 62
     7
 10
377.3050028288
 20
14.7665322415
 30
0.0
 40
51.41612747820857
 50
74.5524542765
 51
79.1886546054
  0
ARC
  5
2C4
  8
0
  6
CONTINUOUS
 62
     7
 10
402.6267858733
 20
106.3995493511
 30
0.0
 40
43.65123033271391
 50
254.552432328
 51
266.694868114
  0
ARC
  5
2C5
  8
0
  6
CONTINUOUS
 62
     7
 10
414.0519154497
 20
304.2436027632
 30
0.0
 40
241.8248992606382
 50
266.6949311111
 51
270.1138604065
  0
ARC
  5
2C6
  8
0
  6
CONTINUOUS
 62
     7
 10
414.056192275
 20
302.0956504729
 30
0.0
 40
239.6769427125373
 50
270.1138584164
 51
273.5783848675
  0
ARC
  5
2C7
  8
0
  6
CONTINUOUS
 62
     7
 10
425.9466751786
 20
111.9582178912
 30
0.0
 40
49.16807978904399
 50
273.5783125705
 51
284.7922228892
  0
ARC
  5
2C8
  8
0
  6
CONTINUOUS
 62
     7
 10
449.2848742151
 20
23.5780017065
 30
0.0
 40
42.24162509575248
 50
98.5775761594
 51
104.7921862285
  0
ARC
  5
2C9
  8
0
  6
CONTINUOUS
 62
     7
 10
453.3524161945
 20
-3.3892081531
 30
0.0
 40
69.51386932614241
 50
94.2982508116
 51
98.5775189847
  0
ARC
  5
2CA
  8
0
  6
CONTINUOUS
 62
     7
 10
458.420203071
 20
-70.8183911165
 30
0.0
 40
137.1332243875614
 50
91.4062722649
 51
94.2981805364
  0
ARC
  5
2CB
  8
0
  6
CONTINUOUS
 62
     7
 10
471.5916310035
 20
-607.3430353196
 30
0.0
 40
673.8195204219212
 50
90.5179866281
 51
91.4062959452
  0
ARC
  5
2CC
  8
0
  6
CONTINUOUS
 62
     7
 10
462.1608066193
 20
435.8116354899
 30
0.0
 40
369.3777800347957
 50
270.5179637326
 51
272.7377619963
  0
ARC
  5
2CD
  8
0
  6
CONTINUOUS
 62
     7
 10
476.1969683744
 20
142.2881099419
 30
0.0
 40
75.51884468166628
 50
272.737720697
 51
279.9404072675
  0
ARC
  5
2CE
  8
0
  6
CONTINUOUS
 62
     7
 10
478.8002658245
 20
127.4335893507
 30
0.0
 40
60.43793159231149
 50
279.9404332654
 51
288.249262777
  0
ARC
  5
2CF
  8
0
  6
CONTINUOUS
 62
     7
 10
443.0459998273
 20
235.8663216435
 30
0.0
 40
174.6133447489648
 50
288.2492815049
 51
292.0151087292
  0
ARC
  5
2D0
  8
0
  6
CONTINUOUS
 62
     7
 10
527.1945570894
 20
27.7491779238
 30
0.0
 40
49.87212293077329
 50
107.3586719209
 51
112.0150320762
  0
ARC
  5
2D1
  8
0
  6
CONTINUOUS
 62
     7
 10
524.4711617027
 20
36.4613324051
 30
0.0
 40
40.74422513703022
 50
101.9400926668
 51
107.3585760397
  0
ARC
  5
2D2
  8
0
  6
CONTINUOUS
 62
     7
 10
525.8101378706
 20
30.129533584
 30
0.0
 40
47.21605126949371
 50
96.9534309064
 51
101.9401268133
  0
ARC
  5
2D3
  8
0
  6
CONTINUOUS
 62
     7
 10
531.0710898847
 20
-13.0062520562
 30
0.0
 40
90.67147232237069
 50
93.8934112724
 51
96.9535115817
  0
ARC
  5
2D4
  8
0
  6
CONTINUOUS
 62
     7
 10
516.0613662556
 20
207.53624436
 30
0.0
 40
130.3812013301305
 50
273.8934654329
 51
279.2995798181
  0
ARC
  5
2D5
  8
0
  6
CONTINUOUS
 62
     7
 10
520.1510408083
 20
182.5607840123
 30
0.0
 40
105.0731184805139
 50
279.2995937324
 51
285.6552744478
  0
ARC
  5
2D6
  8
0
  6
CONTINUOUS
 62
     7
 10
521.3366906374
 20
178.3304295782
 30
0.0
 40
100.6797525564231
 50
285.6552124142
 51
292.1560809385
  0
ARC
  5
2D7
  8
0
  6
CONTINUOUS
 62
     7
 10
518.738381287
 20
184.7113321887
 30
0.0
 40
107.5693918506489
 50
292.15608843
 51
298.342071572
  0
ARC
  5
2D8
  8
0
  6
CONTINUOUS
 62
     7
 10
510.2796459753
 20
200.3933405887
 30
0.0
 40
125.3872365724847
 50
298.3420652597
 51
301.4074358395
  0
ARC
  5
2D9
  8
0
  6
CONTINUOUS
 62
     7
 10
538.6474078253
 20
153.9332327515
 30
0.0
 40
70.95129685792723
 50
301.4073572058
 51
306.1024331888
  0
ARC
  5
2DA
  8
0
  6
CONTINUOUS
 62
     7
 10
523.5839840749
 20
174.5886008902
 30
0.0
 40
96.5159397857044
 50
306.1023979755
 51
309.9898875084
  0
ARC
  5
2DB
  8
0
  6
CONTINUOUS
 62
     7
 10
343.638957474
 20
389.1154180805
 30
0.0
 40
376.5194538568958
 50
309.9899068701
 51
311.402802893
  0
ARC
  5
2DC
  8
0
  6
CONTINUOUS
 62
     7
 10
703.6325577864
 20
-19.1768837679
 30
0.0
 40
167.8131613835986
 50
130.1397917027
 51
131.40280708
  0
ARC
  5
2DD
  8
0
  6
CONTINUOUS
 62
     7
 10
657.9151006307
 20
35.0379016858
 30
0.0
 40
96.8954002050591
 50
128.2341869411
 51
130.1398006509
  0
ARC
  5
2DE
  8
0
  6
CONTINUOUS
 62
     7
 10
702.4703101807
 20
-21.5122586927
 30
0.0
 40
168.8890619877532
 50
127.3119481354
 51
128.2341760247
  0
ARC
  5
2DF
  8
0
  6
CONTINUOUS
 62
     7
 10
600.6488170308
 20
112.0897481215
 30
0.0
 40
0.909561178691686
 50
89.9534502764
 51
127.3118402597
  0
ARC
  5
2E0
  8
0
  6
CONTINUOUS
 62
     7
 10
600.6492778437
 20
112.6565929123
 30
0.0
 40
0.3427162006180357
 50
6.5865809071
 51
89.9534974297
  0
ARC
  5
2E1
  8
0
  6
CONTINUOUS
 62
     7
 10
510.4580067499
 20
102.2425656358
 30
0.0
 40
91.13322972280808
 50
4.9584582184
 51
6.5865477012
  0
ARC
  5
2E2
  8
0
  6
CONTINUOUS
 62
     7
 10
542.7498446048
 20
105.0441748463
 30
0.0
 40
58.72008723076433
 50
1.8648739519
 51
4.958428966
  0
ARC
  5
2E3
  8
0
  6
CONTINUOUS
 62
     7
 10
486.0071395052
 20
103.1966895077
 30
0.0
 40
115.4928604947969
 50
0.0000324906
 51
1.8648543658
  0
ARC
  5
2E4
  8
0
  6
CONTINUOUS
 62
     7
 10
766.8330677123
 20
103.1967901036
 30
0.0
 40
165.3330677122939
 50
180.0000121651
 51
182.1086665305
  0
ARC
  5
2E5
  8
0
  6
CONTINUOUS
 62
     7
 10
621.0236144342
 20
97.8281099474
 30
0.0
 40
19.42481094844663
 50
182.1086506736
 51
192.3060649745
  0
ARC
  5
2E6
  8
0
  6
CONTINUOUS
 62
     7
 10
618.7026132227
 20
97.3217630445
 30
0.0
 40
17.0492196937804
 50
192.3059683547
 51
203.4618046995
  0
ARC
  5
2E7
  8
0
  6
CONTINUOUS
 62
     7
 10
702.6755754185
 20
133.7675597749
 30
0.0
 40
108.5902185918254
 50
203.461735519
 51
206.3018565057
  0
ARC
  5
2E8
  8
0
  6
CONTINUOUS
 62
     7
 10
652.790700835
 20
109.1108533853
 30
0.0
 40
52.94442915369154
 50
206.3018036213
 51
215.321229609
  0
ARC
  5
2E9
  8
0
  6
CONTINUOUS
 62
     7
 10
666.5797429331
 20
118.8816412969
 30
0.0
 40
69.84431017088366
 50
215.3211823045
 51
222.6491060965
  0
ARC
  5
2EA
  8
0
  6
CONTINUOUS
 62
     7
 10
680.7136478401
 20
131.9008271877
 30
0.0
 40
89.06061754717132
 50
222.6491155124
 51
229.0902149175
  0
ARC
  5
2EB
  8
0
  6
CONTINUOUS
 62
     7
 10
725.8024115609
 20
183.9346282893
 30
0.0
 40
157.912001490712
 50
229.0901834837
 51
233.2851410944
  0
ARC
  5
2EC
  8
0
  6
CONTINUOUS
 62
     7
 10
707.9878539839
 20
160.0474415046
 30
0.0
 40
128.1134083334969
 50
233.2851263327
 51
240.746982709
  0
ARC
  5
2ED
  8
0
  6
CONTINUOUS
 62
     7
 10
680.5243467928
 20
111.0140297719
 30
0.0
 40
71.91269932220882
 50
240.7470418478
 51
252.2448992892
  0
ARC
  5
2EE
  8
0
  6
CONTINUOUS
 62
     7
 10
674.3074439375
 20
91.5984756527
 30
0.0
 40
51.52609531693725
 50
252.2449303894
 51
265.9545603261
  0
ARC
  5
2EF
  8
0
  6
CONTINUOUS
 62
     7
 10
672.7562327221
 20
69.6648838596
 30
0.0
 40
29.53771872428456
 50
265.9545296015
 51
286.7494995975
  0
ARC
  5
2F0
  8
0
  6
CONTINUOUS
 62
     7
 10
672.5726348276
 20
70.2749503796
 30
0.0
 40
30.17481318011221
 50
286.7494896392
 51
295.7631949127
  0
ARC
  5
2F1
  8
0
  6
CONTINUOUS
 62
     7
 10
677.4577859033
 20
60.1529620137
 30
0.0
 40
18.93562506388924
 50
295.7631682657
 51
308.542450638
  0
ARC
  5
2F2
  8
0
  6
CONTINUOUS
 62
     7
 10
675.4640529492
 20
62.6556384823
 30
0.0
 40
22.13536889718694
 50
308.5424201957
 51
320.1932104175
  0
ARC
  5
2F3
  8
0
  6
CONTINUOUS
 62
     7
 10
651.797498279
 20
82.3786332785
 30
0.0
 40
52.94287339999494
 50
320.1931995594
 51
326.2660472049
  0
ARC
  5
2F4
  8
0
  6
CONTINUOUS
 62
     7
 10
644.2229474815
 20
87.4367918299
 30
0.0
 40
62.05104488015616
 50
326.2659907287
 51
336.4066794432
  0
ARC
  5
2F5
  8
0
  6
CONTINUOUS
 62
     7
 10
620.9671097917
 20
97.5937599995
 30
0.0
 40
87.42816033976227
 50
336.4066968912
 51
344.2492599662
  0
ARC
  5
2F6
  8
0
  6
CONTINUOUS
 62
     7
 10
601.1783513346
 20
103.1749851497
 30
0.0
 40
107.9889248062836
 50
344.2492895135
 51
351.2809413518
  0
ARC
  5
2F7
  8
0
  6
CONTINUOUS
 62
     7
 10
542.75884428
 20
112.1342278524
 30
0.0
 40
167.0914360414631
 50
351.2809706854
 51
356.3510490944
  0
ARC
  5
2F8
  8
0
  6
CONTINUOUS
 62
     7
 10
995.6018293569
 20
83.2554509386
 30
0.0
 40
286.671445747466
 50
173.3601758785
 51
176.351074948
  0
ARC
  5
2F9
  8
0
  6
CONTINUOUS
 62
     7
 10
877.0742537158
 20
97.0530911711
 30
0.0
 40
167.3434898304044
 50
168.8843533147
 51
173.3601888588
  0
ARC
  5
2FA
  8
0
  6
CONTINUOUS
 62
     7
 10
848.6311629053
 20
102.6413695073
 30
0.0
 40
138.3566260882857
 50
163.9273961332
 51
168.8843122539
  0
ARC
  5
2FB
  8
0
  6
CONTINUOUS
 62
     7
 10
834.3032668366
 20
106.7692475523
 30
0.0
 40
123.4459593409248
 50
158.5278191092
 51
163.9272908769
  0
ARC
  5
2FC
  8
0
  6
CONTINUOUS
 62
     7
 10
586.0083940786
 20
204.4360731263
 30
0.0
 40
143.3669950965049
 50
338.5277783838
 51
342.5699202216
  0
ARC
  5
2FD
  8
0
  6
CONTINUOUS
 62
     7
 10
674.8087815869
 20
176.5564581517
 30
0.0
 40
50.29292914495329
 50
342.569979073
 51
351.4006155958
  0
ARC
  5
2FE
  8
0
  6
CONTINUOUS
 62
     7
 10
622.1351104464
 20
184.5219523954
 30
0.0
 40
103.5654805196
 50
351.4006542519
 51
356.8008131874
  0
ARC
  5
2FF
  8
0
  6
CONTINUOUS
 62
     7
 10
-828.4072804386
 20
265.5994333533
 30
0.0
 40
1556.372000904476
 50
356.8008050104
 51
357.5474809671
  0
LINE
  5
300
  8
0
  6
CONTINUOUS
 62
     7
 10
726.539124
 20
199.0
 30
0.0
 11
727.245831
 21
215.5
 31
0.0
  0
LINE
  5
301
  8
0
  6
CONTINUOUS
 62
     7
 10
727.245831
 20
215.5
 30
0.0
 11
742.872916
 21
215.596764
 31
0.0
  0
ARC
  5
302
  8
0
  6
CONTINUOUS
 62
     7
 10
740.3559151015
 20
622.0316575593
 30
0.0
 40
406.4426872218119
 50
270.354821122
 51
271.6210449652
  0
ARC
  5
303
  8
0
  6
CONTINUOUS
 62
     7
 10
749.8599224333
 20
286.198917484
 30
0.0
 40
70.47549319572363
 50
271.6211267902
 51
276.2509126138
  0
ARC
  5
304
  8
0
  6
CONTINUOUS
 62
     7
 10
752.2162189168
 20
264.6864889547
 30
0.0
 40
48.83440462913654
 50
276.2509643691
 51
282.1064645124
  0
ARC
  5
305
  8
0
  6
CONTINUOUS
 62
     7
 10
738.0255081082
 20
330.8439590721
 30
0.0
 40
116.4967067300518
 50
282.1064503472
 51
285.164488376
  0
ARC
  5
306
  8
0
  6
CONTINUOUS
 62
     7
 10
746.8181994681
 20
298.4025265459
 30
0.0
 40
82.8848343382673
 50
285.1643970549
 51
288.4758626428
  0
ARC
  5
307
  8
0
  6
CONTINUOUS
 62
     7
 10
713.3034764135
 20
398.7080613844
 30
0.0
 40
188.6413328651593
 50
288.4758456686
 51
290.2666461057
  0
ARC
  5
308
  8
0
  6
CONTINUOUS
 62
     7
 10
711.7073055133
 20
403.0300335445
 30
0.0
 40
193.2486319466173
 50
290.266725229
 51
292.049046406
  0
ARC
  5
309
  8
0
  6
CONTINUOUS
 62
     7
 10
744.2931715273
 20
322.5752472199
 30
0.0
 40
106.445341073452
 50
292.0491056303
 51
294.8344601019
  0
ARC
  5
30A
  8
0
  6
CONTINUOUS
 62
     7
 10
836.3317592792
 20
123.6997215233
 30
0.0
 40
112.6951991204042
 50
111.9744049691
 51
114.8344618035
  0
ARC
  5
30B
  8
0
  6
CONTINUOUS
 62
     7
 10
827.1886287715
 20
146.3587541175
 30
0.0
 40
88.26103055289349
 50
108.5391715101
 51
111.9743691687
  0
ARC
  5
30C
  8
0
  6
CONTINUOUS
 62
     7
 10
824.0327191934
 20
155.769223674
 30
0.0
 40
78.33547250639111
 50
104.8910755026
 51
108.5391334227
  0
ARC
  5
30D
  8
0
  6
CONTINUOUS
 62
     7
 10
819.9835546969
 20
170.9965561211
 30
0.0
 40
62.57896951319092
 50
100.5739839451
 51
104.8910540337
  0
ARC
  5
30E
  8
0
  6
CONTINUOUS
 62
     7
 10
795.8429561463
 20
300.3153175915
 30
0.0
 40
68.97372170450558
 50
280.5740009003
 51
284.082520327
  0
ARC
  5
30F
  8
0
  6
CONTINUOUS
 62
     7
 10
774.9799073119
 20
383.4819384527
 30
0.0
 40
154.7172557589662
 50
284.0825234189
 51
286.0005121559
  0
ARC
  5
310
  8
0
  6
CONTINUOUS
 62
     7
 10
774.0507471194
 20
386.7222716655
 30
0.0
 40
158.0881752169672
 50
286.0005045782
 51
287.9102432983
  0
ARC
  5
311
  8
0
  6
CONTINUOUS
 62
     7
 10
796.1779097755
 20
318.2569064412
 30
0.0
 40
86.13598579583801
 50
287.9102848688
 51
290.9190571589
  0
ARC
  5
312
  8
0
  6
CONTINUOUS
 62
     7
 10
914.3888620731
 20
9.0013912397
 30
0.0
 40
244.9422571100707
 50
109.671140932
 51
110.9190306774
  0
ARC
  5
313
  8
0
  6
CONTINUOUS
 62
     7
 10
839.1888447858
 20
219.3606576013
 30
0.0
 40
21.54560640960808
 50
102.2575601789
 51
109.6711098301
  0
ARC
  5
314
  8
0
  6
CONTINUOUS
 62
     7
 10
835.6885771826
 20
235.4716841855
 30
0.0
 40
5.058731299609633
 50
84.8626395557
 51
102.2576188178
  0
ARC
  5
315
  8
0
  6
CONTINUOUS
 62
     7
 10
836.0683240471
 20
239.695566068
 30
0.0
 40
0.8178132576782581
 50
18.2771805789
 51
84.8625776928
  0
ARC
  5
316
  8
0
  6
CONTINUOUS
 62
     7
 10
844.688272992
 20
242.5425223486
 30
0.0
 40
8.260109405369349
 50
198.2771069678
 51
206.4570732873
  0
ARC
  5
317
  8
0
  6
CONTINUOUS
 62
     7
 10
9155.4238697065
 20
4378.3396529005
 30
0.0
 40
9291.2092131966
 50
206.4570104907
 51
206.5172856494
  0
ARC
  5
318
  8
0
  6
CONTINUOUS
 62
     7
 10
3364.3615320891
 20
1488.8365233652
 30
0.0
 40
2819.298264047299
 50
206.5172090837
 51
206.7447878451
  0
ARC
  5
319
  8
0
  6
CONTINUOUS
 62
     7
 10
5410.8442296158
 20
2520.1142519713
 30
0.0
 40
5110.940728480745
 50
206.7447776853
 51
206.8905381287
  0
ARC
  5
31A
  8
0
  6
CONTINUOUS
 62
     7
 10
-429.5415060085
 20
-441.6710523548
 30
0.0
 40
1437.515404823464
 50
26.0231245203
 51
26.8905784797
  0
ARC
  5
31B
  8
0
  6
CONTINUOUS
 62
     7
 10
613.8598419396
 20
67.7508337145
 30
0.0
 40
276.3965345496408
 50
23.0801817092
 51
26.0231895344
  0
ARC
  5
31C
  8
0
  6
CONTINUOUS
 62
     7
 10
699.5393952752
 20
104.2611453078
 30
0.0
 40
183.2622835331014
 50
20.0425638868
 51
23.0802082252
  0
ARC
  5
31D
  8
0
  6
CONTINUOUS
 62
     7
 10
867.0456063414
 20
165.3693864066
 30
0.0
 40
4.957634474381534
 50
339.0064234174
 51
20.0424948526
  0
ARC
  5
31E
  8
0
  6
CONTINUOUS
 62
     7
 10
870.3586545257
 20
164.0980536565
 30
0.0
 40
1.409032604183001
 50
272.978883552
 51
339.0063794807
  0
ARC
  5
31F
  8
0
  6
CONTINUOUS
 62
     7
 10
846.520723628
 20
622.1845385871
 30
0.0
 40
460.1153380170605
 50
271.861386126
 51
272.9788741534
  0
ARC
  5
320
  8
0
  6
CONTINUOUS
 62
     7
 10
841.403488145
 20
779.6573603951
 30
0.0
 40
617.6712827065918
 50
270.5155980411
 51
271.8613458432
  0
ARC
  5
321
  8
0
  6
CONTINUOUS
 62
     7
 10
753.6254155679
 20
10534.5485657888
 30
0.0
 40
10372.95740967844
 50
270.3434405358
 51
270.5155570251
  0
ARC
  5
322
  8
0
  6
CONTINUOUS
 62
     7
 10
901.9581211409
 20
-14210.9179700134
 30
0.0
 40
14372.95370036259
 50
90.3434502706
 51
90.4853146026
  0
ARC
  5
323
  8
0
  6
CONTINUOUS
 62
     7
 10
783.6453801538
 20
-243.3013786849
 30
0.0
 40
404.836033796886
 50
90.4853879494
 51
92.3504389925
  0
ARC
  5
324
  8
0
  6
CONTINUOUS
 62
     7
 10
770.4340617741
 20
78.564405783
 30
0.0
 40
82.69922723100808
 50
92.350412067
 51
97.5455617052
  0
ARC
  5
325
  8
0
  6
CONTINUOUS
 62
     7
 10
763.5354431439
 20
130.6441860756
 30
0.0
 40
30.16452960809124
 50
97.545468826
 51
108.5725770496
  0
ARC
  5
326
  8
0
  6
CONTINUOUS
 62
     7
 10
770.4084348665
 20
110.1891612305
 30
0.0
 40
51.74336314084576
 50
108.5725902469
 51
116.4174424696
  0
ARC
  5
327
  8
0
  6
CONTINUOUS
 62
     7
 10
773.2927888129
 20
104.3833115808
 30
0.0
 40
58.22621651224859
 50
116.4175321982
 51
123.5977809305
  0
ARC
  5
328
  8
0
  6
CONTINUOUS
 62
     7
 10
769.2337591721
 20
110.4932797064
 30
0.0
 40
50.89086157090537
 50
123.5978581906
 51
131.14304783
  0
ARC
  5
329
  8
0
  6
CONTINUOUS
 62
     7
 10
748.6167079109
 20
134.0912408358
 30
0.0
 40
19.55515394896008
 50
131.143058821
 51
146.5527569369
  0
ARC
  5
32A
  8
0
  6
CONTINUOUS
 62
     7
 10
746.0711489489
 20
135.7727443899
 30
0.0
 40
16.50436312823683
 50
146.55276717
 51
173.2951189692
  0
ARC
  5
32B
  8
0
  6
CONTINUOUS
 62
     7
 10
755.146712924
 20
134.7058393776
 30
0.0
 40
25.64242352263261
 50
173.2951468244
 51
192.5203290116
  0
ARC
  5
32C
  8
0
  6
CONTINUOUS
 62
     7
 10
759.4452668759
 20
135.660441496
 30
0.0
 40
30.04569858568618
 50
192.5203949172
 51
210.1928885124
  0
ARC
  5
32D
  8
0
  6
CONTINUOUS
 62
     7
 10
760.5305703907
 20
136.2919653412
 30
0.0
 40
31.3013681620298
 50
210.192955658
 51
227.3311088667
  0
ARC
  5
32E
  8
0
  6
CONTINUOUS
 62
     7
 10
779.4342179274
 20
156.8000644552
 30
0.0
 40
59.19276503386994
 50
227.3311626416
 51
238.0955342268
  0
ARC
  5
32F
  8
0
  6
CONTINUOUS
 62
     7
 10
842.3547254995
 20
257.8685026728
 30
0.0
 40
178.2466161973782
 50
238.0955300587
 51
242.8274889184
  0
ARC
  5
330
  8
0
  6
CONTINUOUS
 62
     7
 10
844.6965910482
 20
262.4302422111
 30
0.0
 40
183.374364419371
 50
242.8274289191
 51
247.5644276559
  0
ARC
  5
331
  8
0
  6
CONTINUOUS
 62
     7
 10
808.9354928219
 20
175.819894095
 30
0.0
 40
89.67159739970862
 50
247.5644070734
 51
255.6537311691
  0
ARC
  5
332
  8
0
  6
CONTINUOUS
 62
     7
 10
808.0853739704
 20
172.4957624899
 30
0.0
 40
86.2404819852411
 50
255.6536983103
 51
266.0242551274
  0
ARC
  5
333
  8
0
  6
CONTINUOUS
 62
     7
 10
834.9845544595
 20
559.522608069
 30
0.0
 40
474.2009762496373
 50
266.0242232936
 51
268.9601276108
  0
ARC
  5
334
  8
0
  6
CONTINUOUS
 62
     7
 10
835.5262774915
 20
589.3866042416
 30
0.0
 40
504.0698853547412
 50
268.9601667097
 51
271.6946499074
  0
ARC
  5
335
  8
0
  6
CONTINUOUS
 62
     7
 10
848.8077524153
 20
140.4723964095
 30
0.0
 40
54.95924913060674
 50
271.6946840632
 51
285.6422543981
  0
ARC
  5
336
  8
0
  6
CONTINUOUS
 62
     7
 10
858.8434655672
 20
104.6305228775
 30
0.0
 40
17.73888593048787
 50
285.6423066329
 51
317.1099771477
  0
ARC
  5
337
  8
0
  6
CONTINUOUS
 62
     7
 10
854.8121682231
 20
108.3753124566
 30
0.0
 40
23.24114067457924
 50
317.1100044814
 51
342.8123092927
  0
ARC
  5
338
  8
0
  6
CONTINUOUS
 62
     7
 10
822.6453450734
 20
118.3249901735
 30
0.0
 40
56.91161139015492
 50
342.8123526139
 51
357.7202788619
  0
ARC
  5
339
  8
0
  6
CONTINUOUS
 62
     7
 10
565.4730346295
 20
128.5627615568
 30
0.0
 40
314.2876188616574
 50
357.7203095228
 51
1.9276388638
  0
LINE
  5
33A
  8
0
  6
CONTINUOUS
 62
     7
 10
879.5828
 20
139.134548
 30
0.0
 11
878.955636
 21
157.769095
 31
0.0
  0
LINE
  5
33B
  8
0
  6
CONTINUOUS
 62
     7
 10
878.955636
 20
157.769095
 30
0.0
 11
882.727818
 21
158.472742
 31
0.0
  0
ARC
  5
33C
  8
0
  6
CONTINUOUS
 62
     7
 10
867.7904164948
 20
238.5510840008
 30
0.0
 40
81.45960238871932
 50
280.5662250037
 51
289.1533626573
  0
ARC
  5
33D
  8
0
  6
CONTINUOUS
 62
     7
 10
857.9545832456
 20
266.870151703
 30
0.0
 40
111.4381482377964
 50
289.1533284447
 51
295.9427249575
  0
ARC
  5
33E
  8
0
  6
CONTINUOUS
 62
     7
 10
860.9583811327
 20
260.6958989033
 30
0.0
 40
104.5719848709913
 50
295.9427002721
 51
302.8955864816
  0
ARC
  5
33F
  8
0
  6
CONTINUOUS
 62
     7
 10
889.5939869527
 20
216.4244837306
 30
0.0
 40
51.84669566301477
 50
302.8956048858
 51
314.6476587909
  0
ARC
  5
340
  8
0
  6
CONTINUOUS
 62
     7
 10
1023.4212205389
 20
80.9412626761
 30
0.0
 40
138.5881531348322
 50
133.4025664811
 51
134.6477061104
  0
ARC
  5
341
  8
0
  6
CONTINUOUS
 62
     7
 10
982.3537402238
 20
124.3649558797
 30
0.0
 40
78.82064464676003
 50
131.5026554032
 51
133.4025399301
  0
ARC
  5
342
  8
0
  6
CONTINUOUS
 62
     7
 10
1026.6184418067
 20
74.3372058595
 30
0.0
 40
145.6198929830242
 50
130.6332954126
 51
131.5025828106
  0
ARC
  5
343
  8
0
  6
CONTINUOUS
 62
     7
 10
932.2014450809
 20
184.3659377328
 30
0.0
 40
0.6340622672034175
 50
90.0000073144
 51
130.633177739
  0
ARC
  5
344
  8
0
  6
CONTINUOUS
 62
     7
 10
932.2014456151
 20
184.6420476141
 30
0.0
 40
0.3579523859125002
 50
30.2174468007
 51
90.0000984489
  0
ARC
  5
345
  8
0
  6
CONTINUOUS
 62
     7
 10
920.2031273531
 20
177.6539840806
 30
0.0
 40
14.24293251061213
 50
26.0034161934
 51
30.2173896015
  0
ARC
  5
346
  8
0
  6
CONTINUOUS
 62
     7
 10
919.6874874108
 20
177.4024689569
 30
0.0
 40
14.81664359407006
 50
20.8954809491
 51
26.0033559306
  0
ARC
  5
347
  8
0
  6
CONTINUOUS
 62
     7
 10
909.1904408808
 20
173.3950075827
 30
0.0
 40
26.05264521916002
 50
17.5479954127
 51
20.8954351568
  0
ARC
  5
348
  8
0
  6
CONTINUOUS
 62
     7
 10
979.4482483334
 20
195.6118691854
 30
0.0
 40
47.63418160572235
 50
197.5479250672
 51
208.836140533
  0
ARC
  5
349
  8
0
  6
CONTINUOUS
 62
     7
 10
1071.5351315774
 20
246.3123931212
 30
0.0
 40
152.7557169490333
 50
208.8360301934
 51
213.5734871007
  0
ARC
  5
34A
  8
0
  6
CONTINUOUS
 62
     7
 10
1074.7987084953
 20
248.4784259565
 30
0.0
 40
156.6726842114315
 50
213.5734546983
 51
218.330612898
  0
ARC
  5
34B
  8
0
  6
CONTINUOUS
 62
     7
 10
1009.3273957772
 20
196.7154618458
 30
0.0
 40
73.21073334432515
 50
218.3306043495
 51
226.7337318411
  0
ARC
  5
34C
  8
0
  6
CONTINUOUS
 62
     7
 10
1034.6963412444
 20
223.6681342466
 30
0.0
 40
110.2246488850763
 50
226.7337415758
 51
235.0265493053
  0
ARC
  5
34D
  8
0
  6
CONTINUOUS
 62
     7
 10
1031.6926844396
 20
219.3744530734
 30
0.0
 40
104.9846439040459
 50
235.026617711
 51
243.6279447459
  0
ARC
  5
34E
  8
0
  6
CONTINUOUS
 62
     7
 10
1032.1069712662
 20
220.210434613
 30
0.0
 40
105.9176490918526
 50
243.6280367968
 51
252.189770716
  0
ARC
  5
34F
  8
0
  6
CONTINUOUS
 62
     7
 10
1034.8143345832
 20
228.6376576328
 30
0.0
 40
114.7690842272216
 50
252.1897620336
 51
260.251389388
  0
ARC
  5
350
  8
0
  6
CONTINUOUS
 62
     7
 10
1032.5764278532
 20
215.6112905827
 30
0.0
 40
101.551880852679
 50
260.2513297234
 51
274.236575013
  0
ARC
  5
351
  8
0
  6
CONTINUOUS
 62
     7
 10
1032.2737504041
 20
219.6971918054
 30
0.0
 40
105.6489776833989
 50
274.236577813
 51
287.8130669252
  0
ARC
  5
352
  8
0
  6
CONTINUOUS
 62
     7
 10
1032.0274807631
 20
220.4635205655
 30
0.0
 40
106.4539053220285
 50
287.813085164
 51
301.3356758912
  0
ARC
  5
353
  8
0
  6
CONTINUOUS
 62
     7
 10
1032.7922142201
 20
219.2076578483
 30
0.0
 40
104.9835283569776
 50
301.3356360376
 51
315.0000493701
  0
ARC
  5
354
  8
0
  6
CONTINUOUS
 62
     7
 10
1032.5238117876
 20
219.4762080871
 30
0.0
 40
105.3632112320747
 50
314.9999923578
 51
335.4264531084
  0
ARC
  5
355
  8
0
  6
CONTINUOUS
 62
     7
 10
1032.5279815682
 20
219.474422296
 30
0.0
 40
105.3586764751576
 50
335.4263932885
 51
355.8535361411
  0
ARC
  5
356
  8
0
  6
CONTINUOUS
 62
     7
 10
1031.6469186771
 20
219.5384725202
 30
0.0
 40
106.2420643959558
 50
355.8534411283
 51
16.1859957181
  0
ARC
  5
357
  8
0
  6
CONTINUOUS
 62
     7
 10
1029.386755099
 20
218.8825125958
 30
0.0
 40
108.5954922823423
 50
16.1859555481
 51
36.187169287
  0
ARC
  5
358
  8
0
  6
CONTINUOUS
 62
     7
 10
1155.4096924406
 20
311.0740179083
 30
0.0
 40
47.54884603317016
 50
211.5115555337
 51
216.1871590924
  0
ARC
  5
359
  8
0
  6
CONTINUOUS
 62
     7
 10
1156.4967130654
 20
311.7404437682
 30
0.0
 40
48.82389005810536
 50
206.9278140725
 51
211.5115526996
  0
ARC
  5
35A
  8
0
  6
CONTINUOUS
 62
     7
 10
1154.5765351861
 20
310.7650681454
 30
0.0
 40
46.67018611089114
 50
202.2439180097
 51
206.9277687211
  0
ARC
  5
35B
  8
0
  6
CONTINUOUS
 62
     7
 10
1146.006290809
 20
307.2599476421
 30
0.0
 40
37.41086872645664
 50
196.7152562955
 51
202.2439138792
  0
ARC
  5
35C
  8
0
  6
CONTINUOUS
 62
     7
 10
1022.1558697156
 20
270.066999927
 30
0.0
 40
91.90363999074067
 50
16.7153109541
 51
23.1243499335
  0
ARC
  5
35D
  8
0
  6
CONTINUOUS
 62
     7
 10
996.5625641414
 20
259.1375212826
 30
0.0
 40
119.7329553549
 50
23.1244162649
 51
28.3804969239
  0
ARC
  5
35E
  8
0
  6
CONTINUOUS
 62
     7
 10
994.4998586214
 20
258.0229352602
 30
0.0
 40
122.0775354954573
 50
28.3805764304
 51
33.5901571666
  0
ARC
  5
35F
  8
0
  6
CONTINUOUS
 62
     7
 10
1010.766314721
 20
268.8262876909
 30
0.0
 40
102.55037446824
 50
33.5901700522
 51
39.5272053931
  0
ARC
  5
360
  8
0
  6
CONTINUOUS
 62
     7
 10
1106.9960527052
 20
348.2287151777
 30
0.0
 40
22.2090258321136
 50
211.7237504532
 51
219.5271688598
  0
ARC
  5
361
  8
0
  6
CONTINUOUS
 62
     7
 10
1132.0866294185
 20
363.7393642131
 30
0.0
 40
51.70677614132523
 50
207.5741762606
 51
211.7237706517
  0
ARC
  5
362
  8
0
  6
CONTINUOUS
 62
     7
 10
1139.7548730917
 20
367.7438561861
 30
0.0
 40
60.35766725106416
 50
203.6729655937
 51
207.5742021436
  0
ARC
  5
363
  8
0
  6
CONTINUOUS
 62
     7
 10
1142.1170022503
 20
368.7794460432
 30
0.0
 40
62.93683388273949
 50
199.8922594176
 51
203.672979507
  0
ARC
  5
364
  8
0
  6
CONTINUOUS
 62
     7
 10
1005.8996133519
 20
319.4902121913
 30
0.0
 40
81.92380815648016
 50
19.8922861988
 51
26.1909438016
  0
ARC
  5
365
  8
0
  6
CONTINUOUS
 62
     7
 10
973.0721854346
 20
303.3434224092
 30
0.0
 40
118.507395240298
 50
26.1910033358
 51
30.9671755069
  0
ARC
  5
366
  8
0
  6
CONTINUOUS
 62
     7
 10
966.1457067711
 20
299.1869231488
 30
0.0
 40
126.5853029381736
 50
30.9671948844
 51
35.6013334088
  0
ARC
  5
367
  8
0
  6
CONTINUOUS
 62
     7
 10
972.2553491775
 20
303.5612512999
 30
0.0
 40
119.0711511493278
 50
35.601318255
 51
40.4530874907
  0
ARC
  5
368
  8
0
  6
CONTINUOUS
 62
     7
 10
1127.5980079865
 20
436.016545011
 30
0.0
 40
85.07523377564316
 50
217.0921015132
 51
220.4530601651
  0
ARC
  5
369
  8
0
  6
CONTINUOUS
 62
     7
 10
1104.5145792977
 20
418.5636339245
 30
0.0
 40
56.13652638536242
 50
212.5025925739
 51
217.0920584845
  0
ARC
  5
36A
  8
0
  6
CONTINUOUS
 62
     7
 10
1097.0288153218
 20
413.7942276862
 30
0.0
 40
47.26049697078293
 50
207.4829382231
 51
212.5026207734
  0
ARC
  5
36B
  8
0
  6
CONTINUOUS
 62
     7
 10
1088.9097824486
 20
409.570802552
 30
0.0
 40
38.10866575188044
 50
201.5841555383
 51
207.4829428123
  0
ARC
  5
36C
  8
0
  6
CONTINUOUS
 62
     7
 10
957.9063441305
 20
357.744866098
 30
0.0
 40
102.7736558520052
 50
21.5841077395
 51
27.8584902059
  0
ARC
  5
36D
  8
0
  6
CONTINUOUS
 62
     7
 10
963.2728074984
 20
360.5813929373
 30
0.0
 40
96.70366297071041
 50
27.8584343188
 51
34.4259409329
  0
ARC
  5
36E
  8
0
  6
CONTINUOUS
 62
     7
 10
956.5269796248
 20
355.9579760158
 30
0.0
 40
104.8818154349837
 50
34.4259250107
 51
40.7133611058
  0
ARC
  5
36F
  8
0
  6
CONTINUOUS
 62
     7
 10
924.7772249792
 20
328.6358917819
 30
0.0
 40
146.7690832730691
 50
40.7133915376
 51
45.6008972009
  0
ARC
  5
370
  8
0
  6
CONTINUOUS
 62
     7
 10
1082.766047752
 20
489.9738861275
 30
0.0
 40
79.04149340704032
 50
222.0555217548
 51
225.6009309255
  0
ARC
  5
371
  8
0
  6
CONTINUOUS
 62
     7
 10
1064.4181387252
 20
473.4211221515
 30
0.0
 40
54.33036714981296
 50
217.3599797928
 51
222.0555139498
  0
ARC
  5
372
  8
0
  6
CONTINUOUS
 62
     7
 10
1058.3861173709
 20
468.8159955405
 30
0.0
 40
46.7413966847005
 50
212.2819125275
 51
217.3600084144
  0
ARC
  5
373
  8
0
  6
CONTINUOUS
 62
     7
 10
1052.0102428579
 20
464.7882122679
 30
0.0
 40
39.19985745886044
 50
206.4876397304
 51
212.2819875014
  0
ARC
  5
374
  8
0
  6
CONTINUOUS
 62
     7
 10
970.2828193118
 20
424.0623276689
 30
0.0
 40
52.11262490719093
 50
26.4877436088
 51
30.434345115
  0
ARC
  5
375
  8
0
  6
CONTINUOUS
 62
     7
 10
897.4561915994
 20
381.276370608
 30
0.0
 40
136.5777409349181
 50
30.4343907968
 51
32.3567337075
  0
ARC
  5
376
  8
0
  6
CONTINUOUS
 62
     7
 10
891.4485219441
 20
377.4699454017
 30
0.0
 40
143.6897707092214
 50
32.3568020103
 51
34.2610407164
  0
ARC
  5
377
  8
0
  6
CONTINUOUS
 62
     7
 10
936.5886571382
 20
408.2174147969
 30
0.0
 40
89.07256939371587
 50
34.2610870773
 51
36.9857167988
  0
ARC
  5
378
  8
0
  6
CONTINUOUS
 62
     7
 10
1102.0659170993
 20
532.8487225728
 30
0.0
 40
118.088446345659
 50
214.7723010781
 51
216.9856828148
  0
ARC
  5
379
  8
0
  6
CONTINUOUS
 62
     7
 10
1027.8350250006
 20
481.3101166369
 30
0.0
 40
27.72001577624365
 50
208.2778533743
 51
214.772309928
  0
ARC
  5
37A
  8
0
  6
CONTINUOUS
 62
     7
 10
1015.150795538
 20
474.4866743183
 30
0.0
 40
13.31692436730693
 50
198.9474232122
 51
208.2778101156
  0
ARC
  5
37B
  8
0
  6
CONTINUOUS
 62
     7
 10
1004.6519247346
 20
470.8823960128
 30
0.0
 40
2.21660409034292
 50
163.8217705227
 51
198.9474187391
  0
ARC
  5
37C
  8
0
  6
CONTINUOUS
 62
     7
 10
977.9764931168
 20
478.621353339
 30
0.0
 40
25.55874671736524
 50
343.8217314991
 51
357.3516305697
  0
ARC
  5
37D
  8
0
  6
CONTINUOUS
 62
     7
 10
747.4621663932
 20
489.2838359296
 30
0.0
 40
256.3195392273702
 50
357.3516578268
 51
359.8409469602
  0
ARC
  5
37E
  8
0
  6
CONTINUOUS
 62
     7
 10
770.6495162793
 20
489.2194026382
 30
0.0
 40
233.132099817514
 50
359.8409629498
 51
2.6728346074
  0
ARC
  5
37F
  8
0
  6
CONTINUOUS
 62
     7
 10
931.23956458
 20
496.7163063071
 30
0.0
 40
72.36715594657346
 50
2.6728530256
 51
9.4432439819
  0
ARC
  5
380
  8
0
  6
CONTINUOUS
 62
     7
 10
1166.2746103348
 20
535.8083034633
 30
0.0
 40
165.8966830526376
 50
187.6755625482
 51
189.4432168855
  0
ARC
  5
381
  8
0
  6
CONTINUOUS
 62
     7
 10
1039.7163117897
 20
518.7518666679
 30
0.0
 40
38.19419691090801
 50
182.4148323061
 51
187.675494215
  0
ARC
  5
382
  8
0
  6
CONTINUOUS
 62
     7
 10
1021.3482508105
 20
517.9772694408
 30
0.0
 40
19.80981046480543
 50
174.7824658836
 51
182.4148785859
  0
ARC
  5
383
  8
0
  6
CONTINUOUS
 62
     7
 10
1012.4314758741
 20
518.7915121415
 30
0.0
 40
10.85593608314649
 50
162.8093911851
 51
174.7824719315
  0
ARC
  5
384
  8
0
  6
CONTINUOUS
 62
     7
 10
976.4885210021
 20
529.9113032002
 30
0.0
 40
26.76780320625119
 50
342.8093023775
 51
356.1896033243
  0
ARC
  5
385
  8
0
  6
CONTINUOUS
 62
     7
 10
713.7546586849
 20
547.4101886768
 30
0.0
 40
290.0837605674442
 50
356.1895568135
 51
358.5195812937
  0
ARC
  5
386
  8
0
  6
CONTINUOUS
 62
     7
 10
743.467839731
 20
546.642421779
 30
0.0
 40
260.3606619088742
 50
358.5195508164
 51
1.1800181221
  0
ARC
  5
387
  8
0
  6
CONTINUOUS
 62
     7
 10
936.5732758597
 20
550.6200456933
 30
0.0
 40
67.2142641830427
 50
1.1800043551
 51
8.4621380762
  0
ARC
  5
388
  8
0
  6
CONTINUOUS
 62
     7
 10
1101.389104027
 20
575.1405463155
 30
0.0
 40
99.41560158305548
 50
185.8930713091
 51
188.4621064543
  0
ARC
  5
389
  8
0
  6
CONTINUOUS
 62
     7
 10
1035.7971980776
 20
568.3702925463
 30
0.0
 40
33.47521591406172
 50
180.1083325419
 51
185.8930607633
  0
ARC
  5
38A
  8
0
  6
CONTINUOUS
 62
     7
 10
1028.1015466714
 20
568.3557513726
 30
0.0
 40
25.77955076984793
 50
173.3521596154
 51
180.1083535893
  0
ARC
  5
38B
  8
0
  6
CONTINUOUS
 62
     7
 10
1039.9554490582
 20
566.9742019709
 30
0.0
 40
37.71369005785715
 50
168.2720399014
 51
173.3521974235
  0
ARC
  5
38C
  8
0
  6
CONTINUOUS
 62
     7
 10
905.2914617048
 20
594.9304121757
 30
0.0
 40
99.82153880708097
 50
348.271984601
 51
352.9003958869
  0
ARC
  5
38D
  8
0
  6
CONTINUOUS
 62
     7
 10
891.2420614604
 20
596.6802310802
 30
0.0
 40
113.9794875789275
 50
352.9004097652
 51
357.0905561408
  0
ARC
  5
38E
  8
0
  6
CONTINUOUS
 62
     7
 10
880.5073813459
 20
597.2256418513
 30
0.0
 40
124.7280144569064
 50
357.0906288926
 51
1.0926760362
  0
ARC
  5
38F
  8
0
  6
CONTINUOUS
 62
     7
 10
850.9783221438
 20
596.662315503
 30
0.0
 40
154.2624464630871
 50
1.0927189079
 51
4.5052325013
  0
ARC
  5
390
  8
0
  6
CONTINUOUS
 62
     7
 10
1231.6978697796
 20
626.6609018556
 30
0.0
 40
227.6371334466958
 50
182.8151188335
 51
184.505313686
  0
ARC
  5
391
  8
0
  6
CONTINUOUS
 62
     7
 10
1065.3064154192
 20
618.4790612663
 30
0.0
 40
61.04464082001623
 50
178.3159821911
 51
182.8151854518
  0
ARC
  5
392
  8
0
  6
CONTINUOUS
 62
     7
 10
1049.0838610125
 20
618.9560135123
 30
0.0
 40
44.81507659530804
 50
172.8844518609
 51
178.3159913531
  0
ARC
  5
393
  8
0
  6
CONTINUOUS
 62
     7
 10
1078.8878651023
 20
615.2355374963
 30
0.0
 40
74.85039916003406
 50
169.1855454409
 51
172.8844689425
  0
ARC
  5
394
  8
0
  6
CONTINUOUS
 62
     7
 10
869.5307869477
 20
655.2270543149
 30
0.0
 40
138.2920592823847
 50
349.1856361408
 51
352.7699970156
  0
ARC
  5
395
  8
0
  6
CONTINUOUS
 62
     7
 10
885.8050629773
 20
653.1624795027
 30
0.0
 40
121.8873486954369
 50
352.769995626
 51
356.71041102
  0
ARC
  5
396
  8
0
  6
CONTINUOUS
 62
     7
 10
900.3066636267
 20
652.3291166023
 30
0.0
 40
107.3618223678444
 50
356.710330908
 51
0.8931458708
  0
ARC
  5
397
  8
0
  6
CONTINUOUS
 62
     7
 10
938.6443346307
 20
652.9268032664
 30
0.0
 40
69.0194926608848
 50
0.8931311374
 51
6.7172535754
  0
ARC
  5
398
  8
0
  6
CONTINUOUS
 62
     7
 10
1065.4673801268
 20
667.863807039
 30
0.0
 40
58.68015084135968
 50
183.5996398556
 51
186.7172546787
  0
ARC
  5
399
  8
0
  6
CONTINUOUS
 62
     7
 10
1055.4462766545
 20
667.2333903762
 30
0.0
 40
48.63923753777774
 50
180.0109190884
 51
183.5996333761
  0
ARC
  5
39A
  8
0
  6
CONTINUOUS
 62
     7
 10
1046.6980808083
 20
667.2317276455
 30
0.0
 40
39.89104153357657
 50
176.2691560256
 51
180.0109254778
  0
ARC
  5
39B
  8
0
  6
CONTINUOUS
 62
     7
 10
1014.5900404994
 20
669.3254316299
 30
0.0
 40
7.714810417194506
 50
163.6281966721
 51
176.2692492822
  0
ARC
  5
39C
  8
0
  6
CONTINUOUS
 62
     7
 10
909.7539714083
 20
700.1241601468
 30
0.0
 40
101.551666879068
 50
343.6282785239
 51
347.7868081205
  0
ARC
  5
39D
  8
0
  6
CONTINUOUS
 62
     7
 10
899.7516767946
 20
702.2889743503
 30
0.0
 40
111.7855477680271
 50
347.7868928601
 51
351.656511229
  0
ARC
  5
39E
  8
0
  6
CONTINUOUS
 62
     7
 10
873.8574202218
 20
706.0866107362
 30
0.0
 40
137.9568023344576
 50
351.6565120296
 51
355.1091236724
  0
ARC
  5
39F
  8
0
  6
CONTINUOUS
 62
     7
 10
757.7101049345
 20
716.0256258241
 30
0.0
 40
254.5285951031626
 50
355.1090544969
 51
357.2919576829
  0
ARC
  5
3A0
  8
0
  6
CONTINUOUS
 62
     7
 10
1320.8489987148
 20
689.3894673642
 30
0.0
 40
309.2398845280372
 50
175.7628741032
 51
177.2919611777
  0
ARC
  5
3A1
  8
0
  6
CONTINUOUS
 62
     7
 10
1111.2076594668
 20
704.9211567461
 30
0.0
 40
99.02398480407975
 50
172.1899762682
 51
175.7628807808
  0
ARC
  5
3A2
  8
0
  6
CONTINUOUS
 62
     7
 10
1085.8073265885
 20
708.4049868599
 30
0.0
 40
73.3858494862876
 50
167.9225364723
 51
172.1898912661
  0
ARC
  5
3A3
  8
0
  6
CONTINUOUS
 62
     7
 10
1112.1448619571
 20
702.7694883163
 30
0.0
 40
100.3195572355187
 50
164.5466534774
 51
167.9225058143
  0
ARC
  5
3A4
  8
0
  6
CONTINUOUS
 62
     7
 10
925.3345879942
 20
754.4128311374
 30
0.0
 40
93.49765901689727
 50
344.5466286184
 51
354.0621114025
  0
ARC
  5
3A5
  8
0
  6
CONTINUOUS
 62
     7
 10
904.3877446304
 20
756.5915414977
 30
0.0
 40
114.557502932224
 50
354.0620795444
 51
2.2331190914
  0
ARC
  5
3A6
  8
0
  6
CONTINUOUS
 62
     7
 10
904.7614067554
 20
756.6060713084
 30
0.0
 40
114.1835584210939
 50
2.2331397265
 51
10.4167683044
  0
ARC
  5
3A7
  8
0
  6
CONTINUOUS
 62
     7
 10
926.7109516138
 20
760.6412303247
 30
0.0
 40
91.8661878821191
 50
10.4167541072
 51
20.0498315453
  0
ARC
  5
3A8
  8
0
  6
CONTINUOUS
 62
     7
 10
1096.4433210298
 20
822.5858352289
 30
0.0
 40
88.81643802408095
 50
196.8846910073
 51
200.0497378234
  0
ARC
  5
3A9
  8
0
  6
CONTINUOUS
 62
     7
 10
1041.9433567352
 20
806.0433775306
 30
0.0
 40
31.86120108471041
 50
190.0833747324
 51
196.8846782932
  0
ARC
  5
3AA
  8
0
  6
CONTINUOUS
 62
     7
 10
1041.6414058338
 20
805.9897319849
 30
0.0
 40
31.55452179132007
 50
183.2414015778
 51
190.0834636015
  0
ARC
  5
3AB
  8
0
  6
CONTINUOUS
 62
     7
 10
1095.8629379945
 20
809.0604844412
 30
0.0
 40
85.86293799457366
 50
180.0000476723
 51
183.2413975586
  0
ARC
  5
3AC
  8
0
  6
CONTINUOUS
 62
     7
 10
909.8735203645
 20
809.0604682848
 30
0.0
 40
100.1264796354893
 50
359.9999683641
 51
15.738624692
  0
ARC
  5
3AD
  8
0
  6
CONTINUOUS
 62
     7
 10
903.9000148672
 20
807.3771856621
 30
0.0
 40
106.3326224229127
 50
15.7385521117
 51
30.7831736692
  0
ARC
  5
3AE
  8
0
  6
CONTINUOUS
 62
     7
 10
902.5592328738
 20
806.5785797289
 30
0.0
 40
107.8932209550154
 50
30.7831157461
 51
45.712265838
  0
ARC
  5
3AF
  8
0
  6
CONTINUOUS
 62
     7
 10
903.5128641665
 20
807.5562953706
 30
0.0
 40
106.5274462606654
 50
45.712237774
 51
60.7846991355
  0
ARC
  5
3B0
  8
0
  6
CONTINUOUS
 62
     7
 10
929.2010073946
 20
853.4909329613
 30
0.0
 40
53.89787631098727
 50
60.7847373619
 51
64.3862827463
  0
ARC
  5
3B1
  8
0
  6
CONTINUOUS
 62
     7
 10
882.1414546298
 20
755.3300829
 30
0.0
 40
162.7562888990074
 50
64.3863288514
 51
65.9662922372
  0
ARC
  5
3B2
  8
0
  6
CONTINUOUS
 62
     7
 10
877.1869927655
 20
744.2200563238
 30
0.0
 40
174.9209665714712
 50
65.9662547002
 51
67.5281134702
  0
ARC
  5
3B3
  8
0
  6
CONTINUOUS
 62
     7
 10
898.3558640722
 20
795.3971694221
 30
0.0
 40
119.5384962629511
 50
67.528127029
 51
69.6056150901
  0
ARC
  5
3B4
  8
0
  6
CONTINUOUS
 62
     7
 10
986.6261347703
 20
1032.8201604125
 30
0.0
 40
133.7623472807567
 50
247.9115496847
 51
249.6056404378
  0
ARC
  5
3B5
  8
0
  6
CONTINUOUS
 62
     7
 10
971.6761188293
 20
995.9810565579
 30
0.0
 40
94.00530325804914
 50
245.7047327756
 51
247.9114688199
  0
ARC
  5
3B6
  8
0
  6
CONTINUOUS
 62
     7
 10
973.9946129674
 20
1001.1166466159
 30
0.0
 40
99.63999049709682
 50
243.9706631471
 51
245.7046295322
  0
ARC
  5
3B7
  8
0
  6
CONTINUOUS
 62
     7
 10
931.8761660695
 20
914.8731239434
 30
0.0
 40
3.661301341382507
 50
225.0000649982
 51
243.9705679889
  0
ARC
  5
3B8
  8
0
  6
CONTINUOUS
 62
     7
 10
931.0094169997
 20
914.0063689819
 30
0.0
 40
2.435528885638226
 50
194.4870793935
 51
224.9999997031
  0
ARC
  5
3B9
  8
0
  6
CONTINUOUS
 62
     7
 10
934.5015896832
 20
914.9086728515
 30
0.0
 40
6.042386565643928
 50
179.0051215802
 51
194.4871412532
  0
ARC
  5
3BA
  8
0
  6
CONTINUOUS
 62
     7
 10
948.207008154
 20
914.6706841147
 30
0.0
 40
19.74987116716198
 50
171.4373102686
 51
179.0051643797
  0
ARC
  5
3BB
  8
0
  6
CONTINUOUS
 62
     7
 10
1137.7177260043
 20
886.1363033603
 30
0.0
 40
211.3967419090494
 50
170.1078884679
 51
171.4373648229
  0
ARC
  5
3BC
  8
0
  6
CONTINUOUS
 62
     7
 10
824.5400844167
 20
940.7500516034
 30
0.0
 40
106.5071691829215
 50
350.1079253112
 51
12.2975091414
  0
ARC
  5
3BD
  8
0
  6
CONTINUOUS
 62
     7
 10
826.2684005712
 20
941.1267093973
 30
0.0
 40
104.7382859718596
 50
12.2975611797
 51
34.7675077092
  0
ARC
  5
3BE
  8
0
  6
CONTINUOUS
 62
     7
 10
826.0446522154
 20
940.971276016
 30
0.0
 40
105.0107246883192
 50
34.7675580561
 51
57.2045909866
  0
ARC
  5
3BF
  8
0
  6
CONTINUOUS
 62
     7
 10
824.7241467635
 20
938.921977198
 30
0.0
 40
107.4486254844401
 50
57.2045663876
 51
79.2588257869
  0
ARC
  5
3C0
  8
0
  6
CONTINUOUS
 62
     7
 10
831.8552225511
 20
976.5144289226
 30
0.0
 40
69.1857888339058
 50
79.2587648315
 51
86.0135849011
  0
ARC
  5
3C1
  8
0
  6
CONTINUOUS
 62
     7
 10
824.5294440602
 20
871.3946280984
 30
0.0
 40
174.5605465124887
 50
86.0135418627
 51
89.3976429974
  0
ARC
  5
3C2
  8
0
  6
CONTINUOUS
 62
     7
 10
824.5367788176
 20
872.0847271433
 30
0.0
 40
173.8704084943138
 50
89.397669161
 51
92.778562431
  0
ARC
  5
3C3
  8
0
  6
CONTINUOUS
 62
     7
 10
819.2274304541
 20
981.4826882655
 30
0.0
 40
64.34368537281364
 50
92.7786295619
 51
99.8785130733
  0
ARC
  5
3C4
  8
0
  6
CONTINUOUS
 62
     7
 10
800.3596630766
 20
1089.829466421
 30
0.0
 40
45.63366221516509
 50
275.0534339519
 51
279.8786297935
  0
ARC
  5
3C5
  8
0
  6
CONTINUOUS
 62
     7
 10
802.0576097508
 20
1070.6279143587
 30
0.0
 40
26.35718368542114
 50
267.7752299505
 51
275.0534714888
  0
ARC
  5
3C6
  8
0
  6
CONTINUOUS
 62
     7
 10
802.5119052347
 20
1082.3225526175
 30
0.0
 40
38.06064250709951
 50
261.9749732005
 51
267.7752759206
  0
ARC
  5
3C7
  8
0
  6
CONTINUOUS
 62
     7
 10
820.4621055859
 20
1209.642767668
 30
0.0
 40
166.6399832004702
 50
260.0373456904
 51
261.9750427811
  0
ARC
  5
3C8
  8
0
  6
CONTINUOUS
 62
     7
 10
773.2318979193
 20
940.7619049725
 30
0.0
 40
106.3574725388394
 50
80.0373758394
 51
83.1602608972
  0
ARC
  5
3C9
  8
0
  6
CONTINUOUS
 62
     7
 10
776.9560650101
 20
971.8098990191
 30
0.0
 40
75.08692161902798
 50
83.1603182749
 51
87.2143739171
  0
ARC
  5
3CA
  8
0
  6
CONTINUOUS
 62
     7
 10
775.8269246621
 20
948.6023125608
 30
0.0
 40
98.3219603997494
 50
87.2144111666
 51
90.6702306442
  0
ARC
  5
3CB
  8
0
  6
CONTINUOUS
 62
     7
 10
778.1049672678
 20
753.8803798175
 30
0.0
 40
293.0572180429422
 50
90.6702568056
 51
92.2009480905
  0
LINE
  5
3CC
  8
0
  6
CONTINUOUS
 62
     7
 10
766.850297
 20
1046.721404
 30
0.0
 11
752.14937
 21
1046.156413
 31
0.0
  0
LINE
  5
3CD
  8
0
  6
CONTINUOUS
 62
     7
 10
752.14937
 20
1046.156413
 30
0.0
 11
751.457049
 21
1050.328206
 31
0.0
  0
ARC
  5
3CE
  8
0
  6
CONTINUOUS
 62
     7
 10
729.8378355753
 20
1046.7404359215
 30
0.0
 40
21.91489181441705
 50
9.4225242845
 51
15.3554370951
  0
ARC
  5
3CF
  8
0
  6
CONTINUOUS
 62
     7
 10
618.1787121609
 20
1016.0778040913
 30
0.0
 40
137.7076240234592
 50
15.3554367497
 51
16.8806278842
  0
ARC
  5
3D0
  8
0
  6
CONTINUOUS
 62
     7
 10
601.6566893962
 20
1011.0640333211
 30
0.0
 40
154.9736349572493
 50
16.8806624459
 51
18.4294583798
  0
ARC
  5
3D1
  8
0
  6
CONTINUOUS
 62
     7
 10
603.5241745922
 20
1011.6861560919
 30
0.0
 40
153.0052504236952
 50
18.429520005
 51
19.9932121547
  0
ARC
  5
3D2
  8
0
  6
CONTINUOUS
 62
     7
 10
1727.9500419073
 20
1420.7936030595
 30
0.0
 40
1043.532435673837
 50
199.7450457446
 51
199.9932509644
  0
ARC
  5
3D3
  8
0
  6
CONTINUOUS
 62
     7
 10
2518.8655261356
 20
1704.6867775231
 30
0.0
 40
1883.855372225993
 50
199.5856116679
 51
199.7451230923
  0
ARC
  5
3D4
  8
0
  6
CONTINUOUS
 62
     7
 10
2473.8371192812
 20
1688.6666520673
 30
0.0
 40
1836.062047979786
 50
199.4254429374
 51
199.5856419108
  0
ARC
  5
3D5
  8
0
  6
CONTINUOUS
 62
     7
 10
1487.8374915515
 20
1340.9485889896
 30
0.0
 40
790.5463296507949
 50
199.1247165605
 51
199.4254046389
  0
ARC
  5
3D6
  8
0
  6
CONTINUOUS
 62
     7
 10
627.2629873165
 20
1042.532281634
 30
0.0
 40
120.2998537606687
 50
19.1246489855
 51
31.2421737247
  0
ARC
  5
3D7
  8
0
  6
CONTINUOUS
 62
     7
 10
641.4296073946
 20
1051.1261593127
 30
0.0
 40
103.7303680114599
 50
31.2421694802
 51
44.7839445502
  0
ARC
  5
3D8
  8
0
  6
CONTINUOUS
 62
     7
 10
643.31461375
 20
1052.997013997
 30
0.0
 40
101.0745543490161
 50
44.7839400235
 51
58.5168629455
  0
ARC
  5
3D9
  8
0
  6
CONTINUOUS
 62
     7
 10
639.679618829
 20
1047.0616064775
 30
0.0
 40
108.0346010785498
 50
58.5167838201
 51
71.580721527
  0
ARC
  5
3DA
  8
0
  6
CONTINUOUS
 62
     7
 10
642.9717811964
 20
1056.9476869295
 30
0.0
 40
97.61476807996007
 50
71.5806136044
 51
79.1079462833
  0
ARC
  5
3DB
  8
0
  6
CONTINUOUS
 62
     7
 10
638.8210029916
 20
1035.3779575123
 30
0.0
 40
119.5802452385449
 50
79.1078496649
 51
85.5725362222
  0
ARC
  5
3DC
  8
0
  6
CONTINUOUS
 62
     7
 10
639.0161796862
 20
1037.8988060448
 30
0.0
 40
117.0518522180697
 50
85.5725325353
 51
92.1001938265
  0
ARC
  5
3DD
  8
0
  6
CONTINUOUS
 62
     7
 10
637.8931342725
 20
1068.5246721955
 30
0.0
 40
86.4054020406096
 50
92.1002321691
 51
100.2959919483
  0
ENDSEC
  0
EOF
